<?xml version="1.0" encoding="UTF-8"?>
<svg width="200px" height="200px" viewBox="0 0 200 200" version="1.1" xmlns="http://www.w3.org/2000/svg" xmlns:xlink="http://www.w3.org/1999/xlink">
    <!-- Generator: Sketch 54.1 (76490) - https://sketchapp.com -->
    <title>akron</title>
    <desc>Created with Sketch.</desc>
    <g id="akron" stroke="none" stroke-width="1" fill="none" fill-rule="evenodd">
        <g id="akron_BGL">
            <g id="akron" transform="translate(0.000000, 48.000000)">
                <g id="g10" transform="translate(99.933728, 51.734926) scale(-1, 1) rotate(-180.000000) translate(-99.933728, -51.734926) translate(0.000000, 0.045066)" fill-rule="nonzero">
                    <g id="g12">
                        <path d="M160.708015,18.671199 L158.741944,18.671199 L158.741944,13.6206756 L157.340752,13.6206756 L157.340752,18.671199 L155.362753,18.671199 L155.362753,19.918091 L160.708015,19.918091 L160.708015,18.671199 Z M168.76262,13.6206756 L167.361692,13.6206756 L167.361692,18.7011261 L167.330678,18.7011261 L165.506954,13.6206756 L164.696616,13.6206756 L162.873422,18.7011261 L162.841878,18.7011261 L162.841878,13.6206756 L161.440155,13.6206756 L161.440155,19.918091 L163.714509,19.918091 L165.101653,16.1929486 L166.489592,19.918091 L168.76262,19.918091 L168.76262,13.6206756 L168.76262,13.6206756 Z" id="path14" fill="#0E1531"></path>
                        <polyline id="path16" fill="#AA9A5C" points="199.656721 103.2273 50.7074871 82.6709058 49.7558636 82.5704419 49.1684547 81.8170954 20.6304832 45.475413 15.7325907 39.23817 23.1851552 41.9435377 53.6005288 52.9831663 80.1932386 56.8649422 0 0.000310637501 141.931342 15.5229155 142.877929 15.6220009 143.467988 16.3759042 171.924184 52.6139152 176.787537 58.8055651 169.378392 56.1492365 138.728691 45.1636834 112.410335 41.3168976 199.656721 103.2273"></polyline>
                        <polyline id="path18" fill="#0E1531" points="191.220936 100.037108 50.9495017 80.4159026 22.4133328 44.0736901 53.0436037 55.1949622 89.2360481 60.4789912 8.43440668 3.19552013 141.682965 17.7741811 170.143137 54.015108 139.281375 42.9481765 103.391382 37.7105358 191.220936 100.037108"></polyline>
                        <polyline id="path20" fill="#FFFFFF" points="161.989393 85.1265718 133.344728 81.4587123 174.933594 93.3288247 53.5273678 75.7773341 36.8315431 54.5142465 51.8425434 59.9628878 108.770309 68.2764728 37.6675935 18.0988995 69.9151739 27.2898602 31.4131205 10.653174 139.10775 22.4156124 155.802779 43.6800519 140.474748 38.1805159 83.8677249 29.9162352 161.989393 85.1265718"></polyline>
                        <path d="M69.7852865,27.7452611 L70.1028478,26.8551352 L34.486414,11.4653675 L138.858313,22.8649961 L154.414575,42.6788591 L140.590056,37.7187532 L140.543138,37.7118612 L83.9358495,29.4478455 L83.5941662,30.3029813 L160.162223,84.4151072 L133.404901,80.9889973 L133.214841,81.9141133 L168.039757,91.8536756 L53.7826362,75.3357171 L38.2269043,55.524717 L51.7264401,60.4243855 L51.7741538,60.4315426 L108.701919,68.7451275 L109.043337,67.8897266 L40.215771,19.3177464 L69.7852865,27.7452611 Z M31.4645453,10.1823457 L31.2254465,11.087846 L63.0600382,24.8434454 L37.7974808,17.6435251 L37.394565,18.4858577 L106.87952,67.5218008 L51.9586468,59.5013902 L35.436182,53.5040411 L53.2718343,76.218951 L53.4595083,76.2459888 L174.865735,93.7974794 L175.063481,92.8734238 L139.508015,82.7252464 L161.929221,85.5962868 L162.262686,84.7398256 L85.7553325,30.670377 L140.359705,38.6422787 L157.190718,44.6812447 L139.357452,21.9666264 L139.15944,21.9448901 L31.4645453,10.1823457 L31.4645453,10.1823457 Z" id="path22" fill="#FFFFFF"></path>
                    </g>
                </g>
            </g>
        </g>
    </g>
</svg>