<?xml version="1.0" encoding="UTF-8"?>
<svg width="200px" height="200px" viewBox="0 0 200 200" version="1.1" xmlns="http://www.w3.org/2000/svg" xmlns:xlink="http://www.w3.org/1999/xlink">
    <!-- Generator: Sketch 54.1 (76490) - https://sketchapp.com -->
    <title>baylor</title>
    <desc>Created with Sketch.</desc>
    <g id="baylor" stroke="none" stroke-width="1" fill="none" fill-rule="evenodd">
        <g id="baylor_BGL" transform="translate(-0.000000, 0.000000)">
            <g id="baylor" transform="translate(14.000000, 0.000000)">
                <g id="g10" transform="translate(86.444227, 99.798769) scale(-1, 1) rotate(-180.000000) translate(-86.444227, -99.798769) translate(0.000000, 0.100490)" fill-rule="nonzero">
                    <g id="g12">
                        <path d="M37.9879436,92.7622709 L37.9879436,125.808064 L89.2731287,125.808064 L96.0211324,119.054259 L96.0211324,99.5167455 L89.2731287,92.7622709 L80.3641308,92.7622709 L80.3641308,96.6564209 L88.2054588,96.6564209 L88.2054588,121.78128 L44.5728744,121.78128 L44.5728744,96.6564209 L52.2265906,96.6564209 L52.2265906,92.7622709 L37.9879436,92.7622709 Z M37.9879436,172.198912 L88.5726516,172.198912 L93.9203703,165.445554 L93.9203703,160.16322 L88.5726516,153.408745 L37.9879436,153.408745 L37.9879436,172.198912 Z M172.685673,121.78128 L129.053981,121.78128 L129.053981,96.6564209 L136.894194,96.6564209 L136.894194,33.4155585 L130.803836,27.3186682 L86.4544891,27.3186682 L80.3641308,33.4155585 L80.3641308,64.1299969 L101.851377,64.1299969 L124.909566,87.1338397 L124.909566,131.059807 L116.273844,139.702632 L122.807689,148.345234 L122.807689,176.132808 L101.157146,199.329572 L0,199.329572 L0,171.447993 L10.225694,171.447993 L10.225694,92.0111286 L0,92.0111286 L0,64.1299969 L52.2234674,64.1299969 L52.219452,21.4093402 L73.6089885,0 L73.6170194,0 L143.643313,0 L143.649336,0 L165.038873,21.4093402 L165.03285,96.6564209 L172.685673,96.6564209 L172.685673,121.78128 L172.685673,121.78128 Z" id="path14" fill="#FAB93D"></path>
                        <path d="M75.8627847,93.2849891 L75.8627847,101.162604 L83.7029973,101.162604 L83.7029973,117.275543 L49.075336,117.275543 L49.075336,101.162604 L56.7270444,101.162604 L56.7259289,93.2849891 C63.0549849,93.2849891 70.0202703,93.2849891 75.8627847,93.2849891" id="path16" fill="#1A3E2A"></path>
                        <polyline id="path18" fill="#1A3E2A" points="168.184104 117.275543 133.555327 117.275543 133.555327 101.162604 141.396878 101.162604 141.396878 31.5495371 132.669246 22.8129312 84.5901939 22.8129312 75.8627847 31.5495371 75.8627847 63.6072787 56.7239212 63.6072787 56.7207981 23.2762546 75.4741761 4.50571468 75.4813147 4.50571468 141.778125 4.50571468 141.785264 4.50571468 160.53775 23.2762546 160.53128 101.162604 168.184104 101.162604 168.184104 117.275543"></polyline>
                        <path d="M90.4378391,176.704872 L33.4874898,176.704872 L33.4874898,148.902785 L90.4378391,148.902785 L98.4228318,158.296752 L98.4228318,167.312022 L90.4378391,176.704872 Z M91.1374239,130.314247 L33.4874898,130.314247 L33.4874898,88.2565339 L91.1374239,88.2565339 L100.523817,97.6493845 L100.523817,120.920727 L91.1374239,130.314247 Z M4.50145766,87.5053916 L14.7270624,87.5053916 L14.7270624,175.95373 L4.50145766,175.95373 L4.50145766,194.823835 L99.2845971,194.823835 L118.305227,174.274155 L118.305227,150.211702 L109.907979,139.702632 L120.407105,129.193786 L120.407105,89.0047734 L99.9913205,68.6357339 L4.50145766,68.6357339 L4.50145766,87.5053916 L4.50145766,87.5053916 Z" id="path20" fill="#1A3E2A"></path>
                    </g>
                </g>
            </g>
        </g>
    </g>
</svg>