<?xml version="1.0" encoding="UTF-8"?>
<svg width="200px" height="200px" viewBox="0 0 200 200" version="1.1" xmlns="http://www.w3.org/2000/svg" xmlns:xlink="http://www.w3.org/1999/xlink">
    <!-- Generator: Sketch 54.1 (76490) - https://sketchapp.com -->
    <title>byu</title>
    <desc>Created with Sketch.</desc>
    <g id="byu" stroke="none" stroke-width="1" fill="none" fill-rule="evenodd">
        <g id="byu_BGL" transform="translate(0.000000, 0.000000)">
            <g id="byu" transform="translate(0.000000, 36.000000)">
                <g id="g10" transform="translate(99.973352, 64.068214) scale(-1, 1) rotate(-180.000000) translate(-99.973352, -64.068214) translate(0.000000, 0.119375)" fill-rule="nonzero">
                    <g id="g12">
                        <path d="M0,63.9328521 C0,28.6806281 44.8102307,0 99.8853159,0 C154.96573,0 199.771484,28.6806281 199.771484,63.9328521 C199.771484,99.1801734 154.96573,127.856965 99.8853159,127.856965 C44.8102307,127.856965 0,99.1801734 0,63.9328521" id="path14" fill="#FFFFFF"></path>
                        <path d="M155.367116,79.0859559 C152.677428,81.7762836 145.647319,86.0182233 145.647319,86.0182233 L113.729813,48.6335186 L113.568449,31.7461223 L125.776496,33.1088721 C125.776496,33.1088721 127.449824,26.8163063 128.520327,20.3691975 C96.4171572,13.9131145 72.3920046,20.6086006 72.3920046,20.6086006 L74.7966941,32.904449 L86.1122281,31.7533698 L86.1122281,49.0459886 C86.1122281,49.0459886 61.2621354,78.1910985 53.5859299,87.5425504 C48.7829458,85.4829715 43.6344247,81.5059932 43.6344247,81.5059932 L35.9908331,91.187208 C55.8593112,108.675937 90.8983724,110.294695 90.8983724,110.294695 C90.8983724,110.294695 91.3914179,104.082705 91.7544342,96.9187293 C86.0199286,96.3529952 79.7309865,95.3801202 79.7309865,95.3801202 L106.708231,64.0019169 L130.171486,91.9658917 L119.817956,94.2388466 C119.817956,94.2388466 120.982038,101.916971 121.861974,107.748039 C147.536367,105.293043 163.776814,89.3987721 163.776814,89.3987721 C163.776814,89.3987721 158.696932,83.1025825 155.367116,79.0859559 Z M99.8859554,122.49251 C47.7196897,122.49251 5.43989328,96.2756171 5.43989328,63.9324258 C5.43989328,31.5834791 47.7196897,5.36428444 99.8859554,5.36428444 C152.044974,5.36428444 194.331144,31.5834791 194.331144,63.9324258 C194.331144,96.2756171 152.044974,122.49251 99.8859554,122.49251 L99.8859554,122.49251 Z" id="path16" fill="#0E315F"></path>
                        <path d="M119.817956,94.2388466 L130.171486,91.9658917 L106.708231,64.0019169 L79.7309865,95.3801202 C79.7309865,95.3801202 86.0199286,96.3529952 91.7544342,96.9187293 C91.3914179,104.082705 90.8983724,110.294695 90.8983724,110.294695 C90.8983724,110.294695 55.8593112,108.675937 35.9908331,91.187208 L43.6344247,81.5059932 C43.6344247,81.5059932 48.7829458,85.4829715 53.5859299,87.5425504 C61.2621354,78.1910985 86.1122281,49.0459886 86.1122281,49.0459886 L86.1122281,31.7533698 L74.7966941,32.904449 L72.3920046,20.6086006 C72.3920046,20.6086006 96.4171572,13.9131145 128.520327,20.3691975 C127.449824,26.8163063 125.776496,33.1088721 125.776496,33.1088721 L113.568449,31.7461223 L113.729813,48.6335186 L145.647319,86.0182233 C145.647319,86.0182233 152.677428,81.7762836 155.367116,79.0859559 C158.696932,83.1025825 163.776814,89.3987721 163.776814,89.3987721 C163.776814,89.3987721 147.536367,105.293043 121.861974,107.748039 C120.982038,101.916971 119.817956,94.2388466 119.817956,94.2388466" id="path18" fill="#FFFFFF"></path>
                    </g>
                </g>
            </g>
        </g>
    </g>
</svg>