<?xml version="1.0" encoding="UTF-8"?>
<svg width="200px" height="200px" viewBox="0 0 200 200" version="1.1" xmlns="http://www.w3.org/2000/svg" xmlns:xlink="http://www.w3.org/1999/xlink">
    <!-- Generator: Sketch 54.1 (76490) - https://sketchapp.com -->
    <title>cal-poly</title>
    <desc>Created with Sketch.</desc>
    <g id="cal-poly" stroke="none" stroke-width="1" fill="none" fill-rule="evenodd">
        <g id="cal-poly_BGL">
            <g id="cal-poly" transform="translate(30.001508, 0.000000)">
                <g id="g10" transform="translate(69.503493, 100.499725) scale(-1, 1) rotate(-180.000000) translate(-69.503493, -100.499725) translate(0.000000, 0.611959)" fill-rule="nonzero">
                    <g id="g12">
                        <path d="M134.124539,57.2249666 C133.824141,56.7520411 132.819898,55.1760767 131.986756,54.5621202 C131.766075,54.392961 131.164307,53.6511132 130.624757,52.891162 C130.395327,51.8642351 129.679816,48.8284208 128.642519,47.0471879 L127.421484,45.1085727 C126.518346,43.716659 125.492715,42.1388453 125.238009,41.1374189 L124.789842,38.580662 C124.323204,35.5029959 123.988781,33.5582489 123.251882,32.6553202 C122.482902,31.6972055 119.593637,29.1491109 118.558285,28.243165 C118.311356,27.6572395 116.155101,22.3934485 116.155101,22.3934485 L115.854703,22.1543091 C114.675471,21.20729 108.829862,17.6509559 108.274758,17.2593007 C107.342455,16.6171186 106.459732,16.8011693 105.741304,16.9684792 L105.129815,17.0881949 C104.038077,17.270299 100.250535,19.0971796 100.250535,19.0971796 C98.9420048,19.9488155 96.2841145,22.3539326 96.2841145,22.3539326 C95.6881794,23.540091 94.9619745,25.3593799 94.9814178,26.2471252 C95.0591907,28.2032598 95.9992711,32.4332135 97.1017026,33.7822048 C98.2206608,35.1721719 102.904536,37.5898445 103.970026,37.8544842 C104.372501,37.9685548 106.910815,38.6030478 110.637111,36.8979268 C111.719127,38.2156752 112.870167,41.6659198 113.401939,42.1525688 C113.950238,42.6733807 115.596108,43.5406867 116.304814,43.9318552 C118.165532,48.9313958 120.022361,53.8944377 120.073885,54.9833637 C120.073885,54.9833637 120.685375,57.4519398 120.696069,57.5805125 C120.721345,58.4651431 120.689264,60.1323055 119.266991,61.0443832 C118.294829,61.6660288 110.570032,66.5785565 107.770206,67.3921364 C105.242585,68.1183142 101.965428,70.0618933 100.191233,71.2717029 C99.2005999,70.8921166 97.308773,69.4087129 95.7202607,70.2740723 C95.0134991,69.9858787 93.8916244,69.2152212 92.2924183,69.5927635 C91.7723117,67.089538 90.6232165,59.5620502 90.6232165,59.5620502 C90.5211395,58.9974399 89.7220226,52.9007003 89.237886,49.1770562 L89.2262201,49.0512088 L89.1746955,48.9275999 C88.8801305,47.9748384 87.8272793,44.8271922 86.7423467,43.660013 C86.0190584,42.8961686 82.6864878,38.9638495 81.0386736,36.9910714 L80.6838345,36.5617496 C80.6838345,36.5617496 76.8807377,35.9340696 74.9111379,35.6051922 C75.4312445,34.0965801 76.1759204,31.949679 76.1759204,31.949679 L76.1584215,31.6664493 C76.1380061,31.0813024 76.0602331,29.6311855 75.6859508,28.8172163 C75.5508204,28.5032303 75.3894415,27.680404 75.3748591,27.0926293 C75.3670818,26.8949524 75.3748591,26.7090525 75.3943023,26.5896288 C75.5226277,26.1649788 76.4452092,24.4503194 76.9497612,23.5382418 L77.9433105,21.6102354 C78.4410573,20.5385369 78.5586889,18.7017286 78.5168859,17.3733713 C78.5061922,16.928574 78.4653614,16.5255313 78.408976,16.2347098 C78.2855114,15.4168473 77.5904158,9.72422113 77.3434867,7.60807629 L77.2355767,6.68568164 L70.9427735,4.36310027 L70.585018,4.40534141 C70.3876692,4.42548868 65.4753357,5.03564929 62.7892527,7.48446743 C60.3802359,9.67857345 59.4994573,10.2956445 59.4216844,10.3755523 L58.8461646,11.0906344 L59.2126696,11.9248482 C60.6174433,15.2332833 62.4878826,20.1598265 63.3822714,21.1449016 C63.3842157,21.3627257 63.2043658,21.9410595 62.7950857,22.4531116 C62.0251336,23.4333202 61.4311427,24.9221744 61.4914168,26.4637813 C61.5059992,26.9348576 61.612937,27.4101191 61.7645942,27.8899551 C61.5536351,28.4902854 61.0296399,29.8491069 60.6281371,30.9576935 C59.6734743,30.8379779 57.3082047,31.3188845 57.3082047,31.3188845 L46.384995,35.4512164 L43.4315675,39.7173769 C43.4315675,39.7173769 46.9702363,47.1768312 47.6779701,48.6766837 C47.2278592,49.1591476 46.764138,49.6637053 46.764138,49.6637053 L46.6746992,49.7473116 C46.0291837,50.4156755 45.8532225,50.9578999 45.8998862,52.1763718 C45.9173851,52.8968071 46.2644469,53.7621665 46.6241467,54.4841591 C44.5301103,55.7251142 40.4645297,58.2062458 38.9324028,59.4362027 C37.1990383,60.8584833 36.6692102,62.2074745 36.7187904,63.4696476 C36.7440666,64.3369535 37.0444646,65.1611424 37.4119418,65.9283933 C37.5402671,66.2135697 38.4910413,67.1731444 38.5347886,67.3085301 C37.5558217,69.1216872 29.9506001,84.2389541 29.6647846,90.6948407 C29.6083992,91.9581817 29.0814875,94.3778009 29.1291234,95.7569644 C29.342999,101.741775 31.0160895,107.746051 32.588075,111.83877 C33.3803869,113.931361 35.0991689,116.315941 36.9900236,118.524355 C35.5590014,120.190641 33.0644343,123.531974 32.3421181,127.056286 C31.3174596,132.090184 33.9811829,134.591561 34.7054434,135.428597 C35.4219266,136.259794 40.3770352,140.209437 43.6765522,140.606543 C43.6765522,140.606543 37.8542754,136.848639 36.3279814,132.777333 C34.8075204,128.700187 37.0979335,125.508742 37.0979335,125.508742 C37.0979335,125.508742 38.0720396,133.404137 40.5568851,135.72156 C43.0572852,138.038009 47.0684247,139.450265 47.0684247,139.450265 C47.0684247,139.450265 50.0432397,141.344303 52.0468651,143.174104 C51.0037355,142.665069 49.2762041,142.165767 46.9770415,141.866964 C46.9770415,141.866964 44.1986031,145.76405 42.5167632,146.674084 C40.8193688,147.600664 30.7506893,149.694228 30.7506893,149.694228 C30.7506893,149.694228 40.2321831,150.211049 42.803551,150.281127 C45.3933899,150.365804 50.2833637,147.598717 52.3142096,146.679924 C53.3835876,146.186461 53.686902,145.57523 53.626628,145.013637 C53.6703753,145.098314 52.6525219,140.002125 52.6525219,140.002125 C52.6525219,140.002125 49.4132789,137.808311 46.7359454,135.154127 C44.5923286,133.029417 43.9487575,129.403881 44.4416436,126.956037 C44.4931681,126.681566 44.5621916,126.435322 44.6457975,126.202704 C44.6302429,126.202704 44.8081486,126.354538 45.1911803,126.690326 C45.6247644,127.091325 46.1400102,127.552668 46.6941424,128.048077 C46.8555213,128.191152 47.0810628,128.391651 47.0363433,128.34688 L46.8516326,129.199489 L46.5667892,130.511495 C46.5667892,130.511495 48.2622393,134.576961 49.1410736,135.406211 C50.0490727,136.251034 54.2527002,138.325132 54.2527002,138.325132 C54.2527002,138.325132 51.1903906,134.471845 50.9774872,133.449882 C50.9016586,133.081002 50.8899926,132.422079 50.8977699,131.717411 C52.5757211,133.161786 54.0106319,134.330717 54.4471326,134.536083 C55.5476197,135.029545 62.7260622,135.588218 65.4413101,135.585298 C65.5881065,135.784824 65.7650399,135.983377 65.9546115,136.226701 C64.6412209,136.015496 63.3987982,135.869501 62.7513384,135.887994 C60.6193877,135.97559 58.001356,138.084728 57.2965387,138.84974 L54.1564562,142.248497 L58.6906187,141.352089 C59.2865539,141.236267 61.0869975,140.999756 62.2147051,141.213881 C63.9101553,141.53507 68.8954009,143.587755 69.7246548,144.529908 L70.8115317,145.853593 C72.7616882,148.238174 74.7322601,150.586742 76.5142327,152.451582 C74.737121,152.365931 72.7811315,152.509006 70.9923538,153.146516 C65.8680891,155.015249 65.2391004,159.896339 65.2109077,160.089052 L64.7724628,163.802185 L67.6617276,161.43415 C68.9809511,160.364495 70.90972,159.193618 71.6718949,159.159552 C73.2536021,159.105048 80.0344305,161.019525 81.0901982,161.815683 C81.4810072,162.123245 82.3909506,162.758809 83.4671337,163.435251 C82.3034561,163.607525 81.1776927,163.83333 80.4407941,164.152572 C78.2077385,165.066499 76.5025667,170.817718 76.5025667,170.817718 C78.3613401,170.000147 80.8228537,169.165057 81.5247545,169.203016 C82.0322229,169.259467 84.1544521,170.078984 85.7099109,170.676589 C87.0194128,171.187571 88.1364267,171.610956 89.1124771,171.95745 C86.7627621,173.154606 86.5702741,173.557552 86.3943128,173.922539 L86.2436277,174.229128 C82.2762355,182.462257 81.7677949,185.143693 81.7998763,186.361289 C81.8018206,186.41774 81.7998763,186.479058 81.8134865,186.535509 L82.2529036,191.381561 L84.6259505,187.145767 C85.8917052,184.900369 87.4792453,182.262731 87.9390779,181.758562 L88.1344824,181.552223 C88.835411,180.805703 89.0492866,180.570165 89.9018725,180.471862 C90.5366941,180.390105 92.0688211,180.542913 93.5076205,180.718106 C92.7959981,182.092403 91.7013439,183.900791 90.5036406,184.984072 L88.186007,187.094183 L91.2745649,187.587645 C91.4096954,187.614897 93.9334274,187.977937 97.2980793,186.445966 C97.320439,186.891737 97.3379379,187.331667 97.3914068,187.796904 C97.6490297,190.170778 99.7702867,193.070233 101.427822,193.974427 L104.173207,195.499585 L103.640463,192.404497 C103.491722,191.500303 103.364369,190.520192 103.350758,189.996558 C103.339093,189.927453 103.355619,189.897281 103.349786,189.850563 C103.535469,189.552734 104.070158,188.92301 104.865387,188.562889 C105.628534,188.230995 109.030128,187.283002 113.530264,186.138404 C115.518335,185.636182 117.050462,184.592806 118.811047,182.542067 C118.833407,182.519681 119.984446,181.156091 120.763148,179.642612 C121.177289,179.867444 121.594346,180.122448 121.8928,180.357013 C122.739553,181.049028 124.815118,184.016614 125.046493,184.746587 C125.553961,186.497551 128.800009,188.700124 130.50907,189.114749 L132.605051,189.584853 L131.608585,181.349777 C131.39957,179.118004 130.190201,176.365517 129.038189,173.977043 C128.2381,172.338009 126.637922,171.239156 125.312865,170.626951 C126.056569,168.132388 126.888739,165.596946 127.163861,165.12295 C127.819098,164.11072 129.476634,160.819999 129.763422,159.508966 C129.815918,159.254936 129.831473,158.894815 129.815918,158.466564 C129.751756,156.551113 128.994442,153.397627 128.196297,152.04085 C127.695634,151.198947 126.607785,148.001662 125.992406,146.027814 C126.014766,145.544085 126.255862,139.353908 126.255862,139.353908 C126.255862,139.353908 125.657983,134.103938 125.548128,133.224077 C125.965186,132.543741 127.526478,130.004406 127.526478,130.004406 L127.576058,129.89637 C127.663552,129.665699 128.11658,128.528886 128.249766,127.752194 C128.271153,127.667517 128.26532,127.556561 128.26532,127.389154 C128.247822,126.854814 127.998948,125.697562 126.681669,122.678391 C126.476543,122.268633 125.929216,121.24667 125.006634,120.826205 C124.911362,120.78046 124.761649,120.675344 124.615825,120.560494 C124.456391,119.509332 124.169603,117.406035 124.154048,117.35153 C123.936284,116.209852 123.060366,114.304134 121.171456,113.619905 C120.850643,112.991155 120.23332,111.785238 120.23332,111.785238 L120.007778,111.591552 C119.741406,111.384239 118.448431,110.35449 117.117541,110.069314 C117.117541,110.069314 116.165795,109.858108 115.245158,109.634249 C115.65541,107.831701 116.500219,104.057251 116.500219,104.057251 C116.500219,104.057251 115.402648,94.3437355 115.356956,93.3363719 C115.993722,92.5879056 119.922228,87.5627673 120.024305,87.4479181 C120.482193,87.0391329 121.570042,85.9801845 121.860719,84.7917874 C122.095982,83.8009699 124.502082,77.6049539 125.052326,76.8078227 C125.631734,75.9785727 129.723563,70.6575517 131.297493,68.6175188 C131.588169,68.1951074 133.050301,66.0127783 132.975444,64.1832698 C132.941419,63.0990156 134.310222,60.2247689 134.35397,58.0584018 L134.361747,57.5960852 L134.124539,57.2249666 Z M19.469724,137.688595 C16.8497481,136.580009 13.6571688,136.63354 10.3615404,137.855029 C10.2264099,137.896881 8.18292584,139.475571 8.18292584,139.475571 C15.7191239,138.515899 20.2902286,141.284932 22.0576187,142.594991 C23.825981,143.91965 25.4018552,144.712888 25.4018552,144.712888 C24.0291628,144.92896 15.3312314,142.325388 15.3312314,142.325388 C17.9891217,144.298263 19.252932,145.804928 24.5988496,146.290604 C29.9593496,146.793799 31.4739776,146.04728 34.2047801,145.273508 C36.9219722,144.463724 41.9801299,141.534096 41.9801299,141.534096 C40.5938273,141.400754 35.9993907,137.964039 35.9993907,137.964039 C30.1391995,142.302028 22.0945608,138.803022 19.469724,137.688595 Z M129.102042,166.196498 C129.057201,166.286653 128.978729,166.386007 128.965277,166.420965 C128.965277,166.420965 129.102042,166.231456 129.102042,166.196498 Z M125.975606,118.89419 C125.962154,118.89419 125.897134,118.865009 125.897134,118.865009 C125.928523,118.865009 125.950944,118.914392 126.002511,118.909902 L125.975606,118.89419 L125.975606,118.89419 Z" id="path176" fill="#FFFFFF"></path>
                        <path d="M134.455074,57.3196686 C134.154676,56.8463537 133.150433,55.2696107 132.318263,54.6575035 C132.09661,54.4879549 131.494842,53.7465937 130.956264,52.9854746 C130.725862,51.9597156 130.010351,48.9238041 128.973054,47.1425711 L127.752019,45.2039559 C126.848881,43.8121395 125.82325,42.2343259 125.568544,41.2328994 L125.120377,38.6760452 C124.653739,35.5972112 124.320288,33.6529508 123.582417,32.7495354 C122.813437,31.7907394 119.924172,29.2445915 118.88882,28.3385482 C118.641891,27.7527201 116.484664,22.488929 116.484664,22.488929 L116.18621,22.2497897 C115.006978,21.3026732 109.160397,17.7459498 108.604321,17.3540026 C107.67299,16.7114312 106.791239,16.8966498 106.072811,17.0627918 L105.46035,17.1825075 C104.369584,17.3646116 100.58107,19.1925628 100.58107,19.1925628 C99.273512,20.0441987 96.6146495,22.4489265 96.6146495,22.4489265 C96.0196865,23.6344036 95.2934817,25.4547631 95.3119528,26.3414378 C95.3906979,28.297475 96.3307783,32.5267475 97.4332098,33.877588 C98.5511958,35.2676524 103.236043,37.684157 104.300561,37.9498674 C104.704008,38.0635487 107.242322,38.6973604 110.968618,36.9921421 C112.050634,38.3110584 113.200702,41.761303 113.731502,42.2479521 C114.280773,42.7684719 115.926643,43.6349019 116.635349,44.0273357 C118.496067,49.0260977 120.352896,53.9887503 120.40442,55.0780656 C120.40442,55.0780656 121.01591,57.5450844 121.026604,57.6755064 C121.05188,58.5594557 121.019799,60.2266181 119.597526,61.1386958 C118.625364,61.7595627 110.900567,66.6720905 108.100741,67.4856704 C105.57312,68.2126268 102.296935,70.1562058 100.52274,71.3661128 C99.5311349,70.9865265 97.6393081,69.5034148 96.0507957,70.3682875 C95.3440341,70.0804833 94.2221594,69.3094365 92.6239255,69.6869788 C92.1038189,67.1838506 90.9547237,59.6563627 90.9547237,59.6563627 C90.8516745,59.0909739 90.0525576,52.9949156 89.568421,49.2712715 L89.5567551,49.1458134 L89.5062026,49.0211339 C89.2116376,48.0703189 88.1587864,44.9215047 87.0728817,43.7547149 C86.3495934,42.9904812 83.017995,39.0585514 81.3692086,37.085676 L81.0143695,36.6564515 C81.0143695,36.6564515 77.2112727,36.0295502 75.2426451,35.6995048 C75.7627516,34.1908927 76.5064554,32.0446729 76.5064554,32.0446729 L76.4899286,31.7614432 C76.4685411,31.1766856 76.3907681,29.7254981 76.0164859,28.9107502 C75.8813554,28.5974455 75.7199765,27.7751059 75.7053941,27.1881098 C75.6976168,26.9896543 75.7053941,26.8025864 75.7258095,26.6839414 C75.8541348,26.2596807 76.7757442,24.5457027 77.2802962,23.6325543 L78.2748177,21.704548 C78.7715923,20.6327521 78.8901961,18.7964305 78.8474209,17.4687545 C78.8367272,17.0227893 78.7958964,16.6202332 78.739511,16.330093 C78.6160464,15.5115493 77.9219229,9.81775508 77.6740217,7.7027782 L77.5670839,6.78116219 L71.2742807,4.45663422 L70.915553,4.49955667 C70.7182042,4.52009326 65.8068429,5.1303512 63.1197877,7.57916934 C60.7107709,9.77171808 59.8299923,10.3899571 59.7522194,10.4705461 L59.1766996,11.184947 L59.5441767,12.0202315 C60.9479783,15.3264279 62.8184176,20.2545285 63.7137786,21.2402848 C63.7147508,21.4574276 63.535873,22.0352748 63.1265929,22.5474242 C62.3566408,23.5283141 61.7616777,25.0157083 61.8219518,26.5573153 C61.8375064,27.0295595 61.943472,27.5055997 62.0951292,27.9842677 C61.8841701,28.58489 61.3601749,29.9444902 60.9586721,31.0531741 C60.0049814,30.9333611 57.6397118,31.414365 57.6397118,31.414365 L46.71553,35.5459183 L43.7621025,39.8128574 C43.7621025,39.8128574 47.3007713,47.2711438 48.0085051,48.7709963 C47.5583942,49.2546281 47.094673,49.7568499 47.094673,49.7568499 L47.0062063,49.8404563 C46.3606909,50.511156 46.1837575,51.0514338 46.2304212,52.2710737 C46.2479201,52.9911197 46.5949819,53.8553111 46.9537096,54.578861 C44.8616175,55.8205947 40.7960369,58.3017264 39.2619656,59.5309046 C37.5295733,60.9516279 37.0007173,62.3016898 37.0493254,63.5651281 C37.0746016,64.4311688 37.3749996,65.256623 37.7424768,66.021538 C37.8717743,66.3078823 38.8225485,67.2686249 38.8653236,67.4028427 C37.8863567,69.2170705 30.2811351,84.333364 29.9953196,90.7902239 C29.9389342,92.0525916 29.4129947,94.4722108 29.4596584,95.850401 C29.6745062,101.836185 31.3466245,107.841434 32.91861,111.93318 C33.7109219,114.026744 35.4297039,116.410351 37.3215307,118.618765 C35.8905086,120.285051 33.3949693,123.626384 32.6726531,127.150696 C31.6479946,132.185567 34.3117179,134.686944 35.0369506,135.523007 C35.7524616,136.354203 40.7085423,140.304821 44.0070873,140.700953 C44.0070873,140.700953 38.1848104,136.943049 36.6594886,132.871743 C35.1380554,128.79557 37.4294407,125.602179 37.4294407,125.602179 C37.4294407,125.602179 38.4035468,133.498547 40.8883923,135.81597 C43.3878202,138.132419 47.3989597,139.544675 47.3989597,139.544675 C47.3989597,139.544675 50.3747469,141.438713 52.3774001,143.26754 C51.3352427,142.760452 49.6067391,142.260177 47.3075765,141.961374 C47.3075765,141.961374 44.5301103,145.85846 42.8472983,146.768494 C41.1499038,147.695073 31.0821965,149.788638 31.0821965,149.788638 C31.0821965,149.788638 40.5627181,150.305459 43.1350581,150.375537 C45.7248971,150.460214 50.6148708,147.693127 52.6447446,146.775307 C53.7150947,146.280871 54.017437,145.66964 53.957163,145.108047 C54.0018825,145.192724 52.9840291,140.096535 52.9840291,140.096535 C52.9840291,140.096535 49.744786,137.902721 47.0664804,135.248537 C44.9238358,133.123827 44.2792925,129.498291 44.7731507,127.050446 C44.8237031,126.775976 44.8917545,126.529732 44.9773047,126.297114 C44.960778,126.297114 45.1386836,126.448948 45.5217153,126.785709 C45.9562716,127.185735 46.4705452,127.648052 47.0246774,128.142487 C47.1860563,128.285562 47.4115978,128.486061 47.3678505,128.44129 L47.1821676,129.293899 L46.8982964,130.605905 C46.8982964,130.605905 48.5937465,134.671371 49.4716086,135.500621 C50.3796077,136.346417 54.5842074,138.420515 54.5842074,138.420515 C54.5842074,138.420515 51.5218978,134.567228 51.3080222,133.544292 C51.2321936,133.175412 51.2214998,132.516489 51.2292771,131.812794 C52.9062561,133.256195 54.3421391,134.4261 54.7766954,134.631466 C55.8781547,135.123955 63.0565972,135.682628 65.7718451,135.679708 C65.9196137,135.879234 66.0955749,136.07876 66.2861186,136.321111 C64.9727281,136.109906 63.7293332,135.964884 63.0818734,135.982404 C60.9508948,136.07 58.3328632,138.179137 57.6280459,138.94415 L54.4869912,142.342907 L59.0221259,141.446499 C59.6170889,141.330677 61.4165603,141.093192 62.5452401,141.308291 C64.2406903,141.629479 69.2259359,143.682165 70.056162,144.625291 L71.1420667,145.948003 C73.0931954,148.332584 75.0627952,150.681152 76.8447677,152.545991 C75.0666838,152.460341 73.1126386,152.603416 71.3228888,153.240926 C66.1986241,155.109659 65.5706076,159.990749 65.5414427,160.184435 L65.1029978,163.896594 L67.9932347,161.52856 C69.3114861,160.458905 71.2402551,159.289001 72.003402,159.253962 C73.5851093,159.199458 80.3649655,161.113935 81.4217053,161.910093 C81.8115422,162.217655 82.7214856,162.853219 83.7976687,163.529661 C82.6339911,163.702908 81.5082277,163.92774 80.7713291,164.246982 C78.5392457,165.160909 76.8331017,170.912128 76.8331017,170.912128 C78.6928472,170.094557 81.1543608,169.260441 81.8562616,169.297426 C82.3627579,169.353877 84.4859592,170.173394 86.0414181,170.770999 C87.35092,171.281981 88.4679339,171.705366 89.4439843,172.05186 C87.0932971,173.249016 86.9017812,173.651962 86.7248478,174.016949 L86.5741627,174.323538 C82.6077427,182.556667 82.0993021,185.239076 82.1313834,186.455699 C82.1323556,186.513124 82.1313834,186.574441 82.1440215,186.629919 L82.5834386,191.475971 L84.9574577,187.240177 C86.2222402,184.994778 87.8097803,182.35714 88.2696129,181.852972 L88.4659895,181.646633 C89.1649739,180.901086 89.3807938,180.664575 90.2333797,180.566272 C90.866257,180.485488 92.3993561,180.637323 93.8391277,180.812516 C93.1275053,182.186813 92.0318789,183.995201 90.8351478,185.077509 L88.516542,187.189566 L91.6060721,187.682055 C91.7402304,187.709307 94.2639624,188.072347 97.6276421,186.540376 C97.650974,186.986146 97.6675007,187.427051 97.722914,187.891314 C97.9805368,190.265188 100.09985,193.164643 101.75933,194.068837 L104.503742,195.593995 L103.970998,192.498907 C103.822257,191.594713 103.694904,190.614602 103.682266,190.090968 C103.6706,190.022837 103.686154,189.991691 103.681293,189.944973 C103.866004,189.647144 104.400693,189.018393 105.195922,188.657299 C105.959069,188.326378 109.361635,187.377412 113.860799,186.23184 C115.84887,185.731565 117.381969,184.68819 119.141582,182.636477 C119.163942,182.614091 120.314981,181.2505 121.093683,179.737995 C121.506852,179.962827 121.924881,180.216858 122.223335,180.451423 C123.070088,181.144411 125.146625,184.111997 125.377028,184.840997 C125.883524,186.592934 129.130544,188.794534 130.839605,189.209159 L132.935586,189.679262 L131.93912,181.44516 C131.730105,179.213387 130.520736,176.459927 129.367752,174.071453 C128.569607,172.432419 126.969429,171.333566 125.642428,170.721361 C126.387104,168.226798 127.219274,165.69233 127.494396,165.21736 C128.149633,164.20513 129.807169,160.914409 130.093957,159.603376 C130.146453,159.349346 130.162008,158.989225 130.147426,158.560974 C130.082291,156.645523 129.324005,153.492037 128.526832,152.13526 C128.026169,151.293357 126.937347,148.096072 126.322941,146.122224 C126.345301,145.638494 126.587369,139.448318 126.587369,139.448318 C126.587369,139.448318 125.988518,134.198348 125.878663,133.31946 C126.296693,132.639124 127.857013,130.09979 127.857013,130.09979 L127.906593,129.99078 C127.994087,129.761082 128.447115,128.623296 128.580301,127.846604 C128.600716,127.761927 128.594883,127.651945 128.594883,127.483564 C128.578357,126.949223 128.330455,125.791972 127.012204,122.772801 C126.807078,122.363043 126.259751,121.342053 125.337169,120.921588 C125.242869,120.87487 125.092184,120.769753 124.947332,120.655878 C124.786926,119.603742 124.500138,117.500445 124.484583,117.44594 C124.265847,116.304262 123.391873,114.399517 121.501991,113.714315 C121.18215,113.085565 120.563855,111.878675 120.563855,111.878675 L120.337341,111.685962 C120.071941,111.479623 118.778966,110.4489 117.448076,110.163724 C117.448076,110.163724 116.49633,109.952518 115.576665,109.728659 C115.985945,107.926111 116.830754,104.151661 116.830754,104.151661 C116.830754,104.151661 115.733183,94.4391187 115.687491,93.4317551 C116.323285,92.6823155 120.251791,87.6571772 120.35484,87.5433013 C120.812728,87.1335428 121.900577,86.0745944 122.191254,84.8861974 C122.426517,83.8963531 124.831645,77.6993638 125.382861,76.9022326 C125.962269,76.0729826 130.053126,70.7529349 131.628028,68.7118314 C131.917732,68.28942 133.379864,66.1082588 133.305979,64.2764144 C133.271954,63.1933282 134.640757,60.3189841 134.684505,58.1526171 L134.693254,57.6910791 L134.455074,57.3196686 Z M19.8002591,137.783978 C17.1802831,136.673445 13.9877038,136.72795 10.6930475,137.949439 C10.5579171,137.992264 8.51346085,139.569981 8.51346085,139.569981 C16.0496589,138.610309 20.6217358,141.379342 22.3881537,142.690374 C24.1574881,144.015033 25.7323902,144.807298 25.7323902,144.807298 C24.3606699,145.02337 15.6617664,142.419798 15.6617664,142.419798 C18.3196567,144.393646 19.583467,145.900312 24.9303567,146.385014 C30.2898846,146.888209 31.8045127,146.14169 34.5353151,145.367918 C37.2525072,144.559107 42.3116371,141.628506 42.3116371,141.628506 C40.9243623,141.495164 36.3299257,138.058449 36.3299257,138.058449 C30.4697345,142.396438 22.4250958,138.897432 19.8002591,137.783978 Z M129.434819,166.290908 C129.387736,166.381063 129.309264,166.480417 129.295812,166.515375 C129.295812,166.515375 129.432577,166.325866 129.434819,166.290908 Z M126.307113,118.9886 C126.293661,118.9886 126.228642,118.959419 126.228642,118.959419 C126.257788,118.959419 126.277967,119.008802 126.334018,119.004312 L126.307113,118.9886 Z M136.843676,58.2150055 C136.790207,59.7194325 136.291488,61.3626517 135.889013,62.6686232 C135.724718,63.2256417 135.499176,63.9886101 135.462234,64.241473 C135.462234,64.230864 135.476816,64.2133447 135.476816,64.1977719 L135.461262,64.2696013 L135.469039,64.2520819 C135.533202,66.5979251 134.042878,69.0193936 133.401251,69.9326393 L133.372086,69.9907452 L133.329311,70.0208201 C129.869387,74.513759 127.598417,77.510544 127.177471,78.0984161 C126.681669,78.9519985 124.522498,84.470599 124.277513,85.4088585 C123.904203,86.9087109 122.859129,88.1477195 121.980295,88.9701564 C121.876273,89.0888988 121.197704,89.9600006 121.197704,89.9600006 C121.197704,89.9600006 118.727441,93.0706615 117.92638,94.1159837 C118.077065,95.8250952 118.538842,100.058942 118.977287,103.902497 L119.017145,104.26943 C119.017145,104.26943 118.522315,106.49147 118.144144,108.139263 C119.74335,108.527609 121.14618,109.567092 121.69934,110.010916 L122.27972,110.500485 C122.27972,110.500485 122.807604,111.537047 123.086615,112.069441 C125.163152,113.207227 126.27725,115.370869 126.600007,117.027422 C126.61459,117.07414 126.801245,118.426052 126.941236,119.40227 C128.000892,120.139056 128.667795,121.200925 128.959444,121.861794 C130.496432,125.367614 130.720029,126.625115 130.746277,127.400834 L130.711279,128.205751 C130.551845,129.151797 130.096873,130.321702 129.899524,130.789858 L129.791614,131.080874 C129.791614,131.080874 128.608494,132.998271 128.114635,133.825575 C128.243933,134.974067 128.75529,139.361695 128.75529,139.361695 C128.75529,139.361695 128.524888,145.144059 128.492806,145.828288 C129.321088,148.433807 130.114372,150.606208 130.383661,151.042246 C131.420958,152.805862 132.225908,156.373973 132.297847,158.479217 L132.198687,160.0618 C131.841904,161.709594 130.100762,165.111271 129.384279,166.276308 C129.239427,166.553698 128.811675,167.773241 128.207963,169.736383 C129.329838,170.486796 130.557678,171.557424 131.31402,173.139034 C132.55061,175.703674 133.839696,178.653741 134.095375,181.233954 C134.092458,181.189183 135.075314,189.421338 135.075314,189.421338 L135.436958,192.459975 L130.363246,191.306617 C128.062139,190.77033 124.086969,188.145345 123.295629,185.434709 C123.318961,185.476561 123.347154,185.568051 123.347154,185.568051 C123.163415,185.140773 122.289442,183.880352 121.602124,182.981998 C121.129653,183.625348 120.776758,184.040946 120.771897,184.047759 C118.729386,186.431366 116.818116,187.718067 114.378962,188.337084 C109.104984,189.667583 106.531672,190.430649 106.087394,190.646721 C106.007677,190.66424 105.962957,190.715825 105.898794,190.763517 C105.945458,191.174248 106.012537,191.648245 106.088366,192.127107 L107.400784,199.659462 L103.456724,197.48122 L100.714256,195.960929 C98.8097908,194.917553 96.6340928,192.209838 95.8340036,189.435938 C93.3131882,190.076368 91.5108002,189.854456 91.2619268,189.814551 C91.2619268,189.814551 87.2624533,189.163414 86.4215333,189.032992 C85.7507417,190.236962 81.0396457,198.616086 81.0396457,198.616086 L80.0033213,186.826526 C79.9916554,186.785647 79.9770729,186.52383 79.9770729,186.52383 C79.9187432,184.929567 80.4291281,182.109923 84.6249784,173.378465 C84.6249784,173.386251 84.7756634,173.075769 84.7756634,173.075769 C84.8369096,172.932694 84.9370423,172.822712 85.0128709,172.693263 C84.0504308,172.315623 82.3627579,171.66546 81.7182147,171.495133 C81.1232517,171.606089 79.4073861,172.155029 77.6983257,172.908362 L73.4460901,174.757629 L74.7575364,170.313549 C75.1668165,168.968451 76.5083997,165.011021 78.7015967,163.077077 C76.6153375,162.365596 73.199161,161.465296 72.1910293,161.424417 C71.7273081,161.576252 70.4566927,162.304279 69.3639828,163.209446 L62.334281,168.948012 L63.403659,159.931378 C63.6787808,157.567237 65.5015841,153.068653 70.590851,151.217439 C71.1352616,151.01694 71.7321689,150.883598 72.333937,150.757069 C71.3102507,149.546287 70.326423,148.353996 69.4709206,147.316461 C69.4777258,147.320354 68.6805531,146.363602 68.4832043,146.113464 C67.6967254,145.461354 63.535873,143.704551 62.141793,143.437867 C61.5273868,143.313285 60.1391397,143.441761 59.4275173,143.568289 C59.4275173,143.568289 57.5298575,143.944956 56.204801,144.20288 C56.216467,144.248625 56.306878,144.587332 56.306878,144.587332 L56.0657819,144.649624 C56.1280003,145.027263 56.144527,145.393223 56.0832808,145.76697 C55.9452338,146.660458 55.3794357,147.887787 53.5478829,148.736503 L52.166441,149.400292 C48.7541532,151.097724 45.4993556,152.618989 43.0796449,152.551831 L23.5411376,150.874839 L30.7030534,148.536003 C29.2321726,148.742342 27.3986755,148.790034 24.7300914,148.542816 C19.4376427,148.047407 17.5312335,146.570914 15.3098438,144.863749 C15.3098438,144.863749 13.1244241,141.646999 13.1205355,141.735569 C11.2812054,141.33165 11.423141,141.385182 8.78274966,141.717076 L0.902406309,142.722493 L7.19812596,137.871575 C9.50409369,136.080707 9.59839339,136.043721 9.95226027,135.914273 C13.7223036,134.521483 17.5254005,134.466978 20.6450676,135.80137 L20.7490889,135.835436 C23.1007483,136.838906 28.9628838,139.308163 33.6127336,137.146468 C33.525239,137.066658 33.453299,136.985874 33.4008023,136.918716 L33.2472007,136.760069 C32.4782208,135.89578 30.4269594,133.625075 30.2947454,129.751349 C30.2616919,128.831582 30.3258546,127.812539 30.5455632,126.738018 C31.1978837,123.571879 33.0313808,120.624732 34.546981,118.613898 C32.7990341,116.408404 31.5468898,114.42385 30.9101238,112.718631 C29.6638124,109.475602 27.5551935,102.999276 27.3043758,95.9263183 C27.2674336,94.9286877 27.4424228,93.6916257 27.624217,92.4837627 L27.8380926,90.6851077 C28.1151587,84.4287472 34.252416,71.7710048 36.2988165,67.7016452 C36.0839688,67.4290244 35.9041189,67.1963088 35.7874594,66.944322 C35.4209545,66.1736645 34.9377901,65.007556 34.8911263,63.6468852 C34.8094647,61.4869419 35.8205129,59.5309046 37.9077443,57.8568318 C39.2211348,56.8037232 42.0520699,55.019473 44.2997079,53.6518918 C44.1723548,53.1983349 44.089721,52.751591 44.0741664,52.3448497 C44.0226418,50.8692324 44.2297123,49.627596 45.4225548,48.3835263 C44.5184443,46.4526001 41.2753127,39.6014571 41.2753127,39.6014571 L45.3243665,33.7548551 L57.0428045,29.3244019 L57.213905,29.2932564 C57.6854034,29.1932013 58.5486831,29.0255994 59.4352946,28.9412144 C59.6287548,28.4103776 59.7133329,28.2218498 59.8348531,27.8518991 C59.7454142,27.440194 59.6725021,27.0303382 59.665697,26.6322592 C59.5947292,24.822898 60.2120519,22.905598 61.2862906,21.4319272 C60.6407752,20.2545285 59.8426304,18.3983516 58.6575652,15.5347137 L57.5541616,12.8718673 C57.5483286,12.8756632 56.6811603,10.8317371 56.6811603,10.8317371 L58.0771846,9.11094597 C58.0810733,9.11211392 58.6400663,8.59237271 58.6400663,8.59237271 L61.6819605,5.97517399 C62.2885894,5.41737682 62.9885459,4.94143403 63.704057,4.53576336 C63.704057,4.53576336 66.6691504,3.22628803 68.0243439,2.84008332 C69.3834261,2.45183469 70.7366753,2.22797612 70.7366753,2.22797612 C70.7366753,2.22797612 76.7339412,3.45326116 79.6795914,6.30093688 L79.8088889,7.4282108 C80.2521947,11.1256731 80.7703569,15.3613693 80.8724339,15.9913852 L80.992982,17.388944 C81.0357571,18.3827788 81.0299241,20.867317 80.2434453,22.6029022 L80.2133082,22.6660693 L79.1799003,24.6332022 C78.8697807,25.1946979 78.0959399,26.6352765 77.8587324,27.1743863 C77.8898416,27.5162086 77.9685867,27.9637311 78.0133061,28.0895786 L77.9996959,28.0435416 C78.4595284,29.091005 78.6102135,30.6121727 78.6539607,31.6896137 L78.6704875,32.3679052 C78.6704875,32.3679052 78.3030103,33.435808 78.1163553,33.9894199 C79.7126449,34.2600942 82.1508267,34.6551559 82.1508267,34.6551559 L83.0150785,35.6937623 C84.9244042,37.9685548 88.0012962,41.5909758 88.6507003,42.267418 C89.9679795,43.6668261 91.0373574,46.6901821 91.5623248,48.3661042 L91.6605131,48.6687026 L91.6993996,48.9823966 C92.2875575,53.5169927 92.9807088,58.7092463 93.0730642,59.2339514 L93.0915353,59.3205749 C93.0983404,59.3887058 93.8575987,64.3650819 94.4097866,67.5119494 C95.1311307,67.6111285 95.7251215,67.8418975 96.1898148,68.0510593 C97.8308239,67.7016452 99.3668395,68.3703984 100.387609,68.8969527 C102.474841,67.5682061 105.234808,66.0683536 107.502861,65.4105987 C109.009712,64.9775784 113.15501,62.6618101 118.351215,59.3692398 L118.450375,59.3157084 C118.652585,59.1852864 118.869377,58.8795735 118.854794,57.9054967 C118.806186,57.6573057 118.254971,55.4087923 118.254971,55.4087923 L118.242333,55.1472671 L118.247193,55.2045943 C118.115952,54.2115382 116.287315,49.284995 114.894207,45.5248523 C113.745112,44.895323 112.807948,44.3455069 112.254788,43.8303402 C111.723016,43.3273397 111.402202,42.6236451 110.761548,41.2036031 C110.559338,40.7480996 110.300743,40.1766763 110.05187,39.6451582 C107.140245,40.5845855 104.941215,40.3401904 103.774621,40.0542354 C102.504006,39.7348962 97.320439,37.1769714 95.7494256,35.2345603 C94.1832729,33.3012008 93.2363874,28.4651743 93.1634752,26.4026582 C93.108062,24.8240659 94.2066048,22.4375389 94.6887971,21.4775749 L94.8735078,21.125533 L95.1739058,20.8460991 C95.4558327,20.5872018 97.9883141,18.3067642 99.3882271,17.380963 L99.5029422,17.299206 L99.6361283,17.2361362 C100.863969,16.6559532 103.837812,15.2552798 105.112316,15.0424195 C105.045236,15.0560457 105.646032,14.9351621 105.646032,14.9351621 C106.49473,14.7591898 108.1406,14.3972202 109.842855,15.5951556 C109.83605,15.5883425 111.370121,16.5498637 111.370121,16.5498637 C114.13106,18.2698762 116.679096,19.8620946 117.536543,20.5620907 L118.276358,21.1498654 C118.276358,21.1498654 120.361645,26.2566635 120.695097,27.052724 C122.212641,28.3948049 124.485555,30.4361031 125.263285,31.4025881 C126.366689,32.7602417 126.741943,34.929626 127.257189,38.3467784 C127.2533,38.3098904 127.586752,40.2203774 127.67619,40.7355441 C127.855068,41.40128 128.917641,43.0372969 129.567045,44.0261678 C129.583572,44.0523495 130.805579,45.9970965 130.805579,45.9970965 C131.884679,47.8581399 132.616717,50.5997261 132.956973,52.079042 C133.3332,52.5580994 133.63457,52.9230862 133.722064,52.9991007 C134.686449,53.766741 135.648889,55.1403567 136.291488,56.1710794 L136.868952,57.1082682 L136.843676,58.2150055 L136.843676,58.2150055 Z" id="path178" fill="#B49154"></path>
                        <path d="M131.102089,58.6549363 C130.6442,57.5238665 129.985075,57.5161775 128.593911,57.3972404 C127.186221,57.2843378 125.098017,61.0687157 125.098017,61.0687157 L123.231467,61.4705905 C123.231467,61.4705905 120.660099,63.2001413 119.233938,64.4927786 C117.789305,65.7717897 112.613516,71.0118322 109.418992,73.5151551 C109.418992,73.5151551 115.95678,70.6400324 118.896597,69.9657314 C118.896597,69.9657314 117.721254,71.4790154 116.452583,72.7618223 C115.180995,74.0514424 108.197957,78.4935751 106.482092,81.1876644 C106.482092,81.1876644 107.50675,87.6182453 108.595571,88.2450493 C109.693142,88.8601737 110.752798,89.5648416 111.253462,90.1293545 C111.77454,90.6870543 112.348116,90.6257365 112.981965,89.938588 C113.615815,89.2543594 117.880688,84.5036912 118.193724,83.9158191 C118.496067,83.3298936 119.446841,82.2290934 119.808485,80.9735388 C120.175962,79.7160376 123.244105,73.6037252 124.743178,71.8225896 C126.243224,70.0363928 129.329838,66.7089785 129.914107,64.8878403 C130.501293,63.0511294 131.553172,59.7992429 131.102089,58.6549363 L131.102089,58.6549363 Z M70.3837805,59.8996873 C70.4051681,59.9657742 76.6172818,61.1349 79.0369925,67.0339627 L77.5009769,61.3321875 L76.2468882,59.030532 C76.2468882,59.030532 74.4707486,60.1722108 73.8028735,60.2820961 C72.9483433,60.4075543 70.3283673,59.8297071 70.3837805,59.8996873 L70.3837805,59.8996873 Z M72.8355725,88.9127318 C75.4905463,89.1229642 79.2469794,88.7930161 80.5399546,87.8167981 C81.8290411,86.8454465 86.4118117,86.5884958 87.7563114,87.1500889 C87.7563114,87.1500889 88.8927686,87.4099595 89.4770378,86.7763424 C90.0583905,86.1456452 92.2331164,78.3164349 92.2331164,78.3164349 C92.2331164,78.3164349 90.0622792,74.7103652 89.232053,74.2295559 C88.6565333,73.896688 87.3431427,73.8908482 86.1444672,74.0855078 L84.6181732,74.5312784 C85.0721728,73.9463262 85.7021336,73.1803405 86.5148609,72.4883255 C86.5148609,72.4883255 85.554365,47.6847955 85.2345238,47.1163894 C84.5890084,45.9921327 83.8754416,44.9926528 83.1570141,44.4291132 C82.0050024,43.5588873 79.5298785,40.0667909 79.5298785,40.0667909 L68.6805531,38.9357211 C68.6805531,38.9357211 65.3120125,44.360009 64.7637133,45.9123223 C64.1901379,47.4650248 66.8383065,55.637712 66.8383065,55.637712 C66.8383065,55.637712 72.0043742,57.4964195 72.3086608,57.4789975 C72.6119753,57.4800681 75.7938608,55.2091688 75.7938608,55.2091688 C75.7938608,55.2091688 74.2345133,51.4904886 75.5838739,49.3986762 C75.5838739,49.3986762 76.2264728,52.9550103 77.1947459,54.2469663 C78.1532974,55.5372677 80.3873252,58.3149632 80.3873252,58.3149632 L82.7282907,75.0792452 C82.7282907,75.0792452 80.4553765,76.994696 80.1015096,78.5461332 C80.0101264,78.9325326 80.0499851,79.4882858 80.1510899,80.1306626 L80.7470251,82.5658546 C81.053256,83.5488857 81.3361551,84.3129247 81.3361551,84.3129247 C81.3361551,84.3129247 81.1524165,84.1338379 80.8763226,83.7990233 C80.0801221,82.8432445 78.5489673,80.6786295 78.4624449,78.2035323 C78.3584236,75.2719582 78.733678,75.3673415 78.8338107,75.4461786 C78.5761878,75.2009075 73.0893067,70.2284246 67.2650856,68.8482878 C67.2650856,68.8482878 65.7096267,68.7567004 64.8064884,69.3007741 C63.9120996,69.8429012 62.6016255,73.9648188 62.3508078,75.2009075 C62.0795746,76.4379694 61.7733437,82.0597395 64.8210709,87.460571 C64.8210709,87.460571 61.9969409,99.5129219 64.2562449,105.552237 C64.2562449,105.552237 60.946034,98.6359803 60.6388309,95.6829937 C60.3248226,92.7416867 61.5448857,89.736142 61.5448857,89.736142 L58.2385635,80.249405 L58.1967605,77.6983905 C58.1967605,77.6983905 50.423355,82.1483097 48.6549927,83.7406254 C46.8739923,85.3348878 44.4192838,89.5852808 43.8933443,92.2005329 C43.4519829,94.4186794 42.2299755,102.565185 43.7582138,111.204179 C43.7582138,111.204179 40.8767263,102.121361 40.8903366,93.7422372 C40.886448,85.3640867 47.3989597,73.9385398 47.3989597,73.9385398 C47.3989597,73.9385398 40.9544993,76.5771511 40.2700974,77.1212247 C39.5711131,77.6497256 37.7385881,79.3422911 37.1795951,80.6883624 C36.6167134,82.0431935 32.1681012,92.4224449 32.3615613,97.8232763 C32.4966918,101.381654 33.7828619,106.264691 35.5959436,110.563749 C35.6445517,110.657186 54.4213946,117.061488 59.3283568,118.701495 L59.7629131,119.373071 L60.0662276,120.121537 L65.1418842,129.924596 C65.1418842,129.924596 70.2321233,135.862688 72.2308879,137.527028 C74.2315968,139.177741 82.4687236,143.893371 82.4687236,143.893371 C82.4687236,143.893371 84.797051,149.426571 86.3700088,153.253579 C87.6629839,156.401225 93.6933034,165.451925 96.9996256,169.717891 C97.6986099,170.622085 98.2682967,171.312153 98.6571614,171.688819 C98.6571614,171.688819 99.4426681,170.291163 102.30374,170.907261 C102.464147,170.94814 102.634275,170.968579 102.811209,171.026003 C102.811209,171.026003 101.596006,171.168105 101.102148,171.589543 C100.609262,172.033367 98.0874746,178.544732 97.050178,180.726866 C96.0002433,182.9236 94.7393495,184.58502 94.3407631,185.019111 C94.3407631,185.019111 98.3334316,182.713368 98.8457608,182.307502 C99.3415633,181.864652 102.993975,176.127059 103.452835,174.574648 C103.452835,174.574648 107.751735,175.041832 109.471489,174.770281 C111.195132,174.507491 114.079536,172.669904 114.77852,171.923384 C115.469727,171.176865 116.390364,168.503215 116.390364,168.503215 C116.390364,168.503215 117.914714,171.400723 118.460097,172.39738 C119.002563,173.403771 121.66337,176.468687 121.990016,176.763596 C122.298191,177.064345 124.072387,178.009418 124.600271,178.710192 C125.137876,179.407074 127.853124,184.206407 129.833417,185.256596 L128.728069,182.644263 L128.09422,179.60076 C128.09422,179.60076 127.825903,174.812133 122.665669,172.959947 C122.665669,172.959947 124.25807,166.164379 124.592493,164.1078 C124.592493,164.1078 126.681669,160.049147 126.956791,159.222817 C127.23094,158.408166 127.091921,157.489373 126.877073,156.991044 C126.660281,156.483956 125.819361,153.151383 125.080518,152.354252 C125.080518,152.354252 124.34362,148.910723 123.569779,147.200638 C123.569779,147.200638 123.903231,142.192046 123.599916,139.440532 C123.291741,136.693885 122.64817,132.84741 122.64817,132.84741 C122.64817,132.84741 124.972609,129.700737 125.255508,128.866621 C125.527713,128.038344 125.797002,127.107871 125.471328,126.415856 C125.135932,125.706322 123.611582,123.002499 122.380825,122.43604 C122.380825,122.43604 121.630316,121.752785 121.822804,121.13182 C121.992933,120.511829 122.438183,118.761839 121.795584,117.863485 C121.152985,116.968051 120.721345,116.472642 118.600088,117.061488 C116.488553,117.6406 114.995312,115.97334 113.477768,116.123228 C111.946613,116.286742 111.227213,118.867929 110.976395,120.498203 C110.727522,122.14989 110.009094,121.974697 109.217755,122.505144 C108.431276,123.044351 106.825265,124.023489 106.437372,127.192548 C106.356683,127.875803 106.277938,128.552245 106.213775,129.212142 C106.22058,129.206302 106.207942,129.212142 106.12142,130.1796 C105.939625,132.233259 105.767553,134.044567 105.392298,134.903016 C104.823584,136.146891 102.013064,137.369353 101.203253,137.707088 C100.400247,138.038009 100.359417,139.7734 100.359417,139.7734 L98.5677225,149.226071 C98.5677225,149.226071 98.336348,151.482177 99.1383815,154.213251 C99.9666633,156.947246 101.959595,166.963457 101.959595,166.963457 L95.7912285,145.85846 C95.7912285,145.85846 94.7850411,143.35319 95.133075,141.908816 C95.4849976,140.452762 98.9663089,126.553091 99.1821288,124.090647 C99.4018374,121.635016 100.722033,112.921077 100.722033,112.921077 C100.722033,112.921077 92.7746105,118.817317 91.2531774,119.170625 C89.742438,119.536585 84.5938692,118.397826 82.7525948,117.845966 L85.7954611,114.682747 C85.7954611,114.682747 89.1756676,106.708515 89.7832687,103.81198 C90.3986472,100.942697 89.6870247,95.2362499 89.6870247,95.2362499 C89.6870247,95.2362499 86.8852545,99.9382532 85.5067291,100.900845 C84.1097326,101.875117 80.8646566,102.703393 80.8646566,102.703393 C80.8646566,102.703393 83.6576774,100.76653 84.9564855,97.1487807 C86.2543215,93.5310315 85.8168487,89.8675373 85.8168487,89.8675373 C85.8168487,89.8675373 80.7577188,90.9702841 79.0690738,92.2501711 L73.5588609,92.1470015 C73.5588609,92.1470015 68.4219581,91.0111626 67.6092308,85.6288238 C67.6092308,85.6288238 67.7919972,85.8487892 68.1050333,86.1651111 C68.9790068,87.0605454 70.879583,88.7686837 72.8355725,88.9127318 Z M51.3887116,65.395026 C51.3887116,65.395026 54.6697576,67.7989751 54.7786397,70.6760444 C54.7786397,70.6760444 57.2732068,68.7996229 58.6838136,68.980559 C58.6838136,68.980559 55.6788615,64.7585863 52.8080678,64.6194047 L51.3887116,65.395026 Z M59.1582285,34.3779606 L54.4306058,36.2234312 C56.2611864,39.1820629 58.6507601,44.4964654 57.5493008,45.5952217 C56.4410364,46.7114974 57.5862429,51.1799092 57.7894247,52.0714503 C57.9848293,52.9611421 56.8911473,53.7416299 56.0249511,54.5932658 C55.1558385,55.4437337 47.2560519,63.3772816 47.2560519,63.3772816 C47.2560519,63.3772816 57.9799684,56.8151108 59.4343225,55.8749048 C60.8682611,54.9221432 60.7467409,52.0441006 60.362737,50.6639638 C59.9855382,49.277014 60.2985743,47.5718929 60.6777174,46.831213 C61.0578326,46.075739 61.877365,44.3169893 61.6421018,42.286008 C61.4058665,40.2401353 59.1582285,34.3779606 59.1582285,34.3779606 L59.1582285,34.3779606 Z M117.861245,113.58876 C117.402385,113.169268 113.057794,112.661207 113.057794,112.661207 C113.057794,112.661207 108.564462,113.58876 107.825619,114.055943 C107.062472,114.542592 106.382931,117.206509 106.520978,118.097077 C106.66583,118.974992 106.579308,122.633619 106.579308,122.633619 C106.579308,122.633619 107.963666,121.255429 108.380724,120.573147 C108.807503,119.906438 109.138038,116.791884 109.769943,116.095002 C110.399904,115.404934 113.255143,114.758664 113.255143,114.758664 L118.714803,115.668698 C118.714803,115.668698 118.311356,114.013118 117.861245,113.58876 L117.861245,113.58876 Z M133.305979,64.2764144 C133.379864,66.1082588 131.917732,68.28942 131.628028,68.7118314 C130.053126,70.7529349 125.962269,76.0729826 125.382861,76.9022326 C124.831645,77.6993638 122.426517,83.8963531 122.191254,84.8861974 C121.900577,86.0745944 120.812728,87.1335428 120.35484,87.5433013 C120.251791,87.6571772 116.323285,92.6823155 115.687491,93.4317551 C115.733183,94.4391187 116.830754,104.151661 116.830754,104.151661 C116.830754,104.151661 115.985945,107.926111 115.576665,109.728659 C116.49633,109.952518 117.448076,110.163724 117.448076,110.163724 C118.778966,110.4489 120.071941,111.479623 120.337341,111.685962 L120.563855,111.878675 C120.563855,111.878675 121.18215,113.085565 121.501991,113.714315 C123.391873,114.399517 124.265847,116.304262 124.484583,117.44594 C124.500138,117.500445 124.786926,119.603742 124.947332,120.655878 C125.092184,120.769753 125.242869,120.87487 125.337169,120.921588 C126.259751,121.342053 126.807078,122.363043 127.012204,122.772801 C128.330455,125.791972 128.578357,126.949223 128.594883,127.483564 C128.594883,127.651945 128.600716,127.761927 128.580301,127.846604 C128.447115,128.623296 127.994087,129.761082 127.906593,129.99078 L127.857013,130.09979 C127.857013,130.09979 126.296693,132.639124 125.878663,133.31946 C125.988518,134.198348 126.587369,139.448318 126.587369,139.448318 C126.587369,139.448318 126.345301,145.638494 126.322941,146.122224 C126.937347,148.096072 128.026169,151.293357 128.526832,152.13526 C129.324005,153.492037 130.082291,156.645523 130.147426,158.560974 C130.162008,158.989225 130.146453,159.349346 130.093957,159.603376 C129.807169,160.914409 128.149633,164.20513 127.494396,165.21736 C127.219274,165.69233 126.387104,168.226798 125.642428,170.721361 C126.969429,171.333566 128.569607,172.432419 129.367752,174.071453 C130.520736,176.459927 131.730105,179.213387 131.93912,181.44516 L132.935586,189.679262 L130.839605,189.209159 C129.130544,188.794534 125.883524,186.592934 125.377028,184.840997 C125.146625,184.111997 123.070088,181.144411 122.223335,180.451423 C121.924881,180.216858 121.506852,179.962827 121.093683,179.737995 C120.314981,181.2505 119.163942,182.614091 119.141582,182.636477 C117.381969,184.68819 115.84887,185.731565 113.860799,186.23184 C109.361635,187.377412 105.959069,188.326378 105.195922,188.657299 C104.400693,189.018393 103.866004,189.647144 103.681293,189.944973 C103.686154,189.991691 103.6706,190.022837 103.682266,190.090968 C103.694904,190.614602 103.822257,191.594713 103.970998,192.498907 L104.503742,195.593995 L101.75933,194.068837 C100.09985,193.164643 97.9805368,190.265188 97.722914,187.891314 C97.6675007,187.427051 97.650974,186.986146 97.6276421,186.540376 C94.2639624,188.072347 91.7402304,187.709307 91.6060721,187.682055 L88.516542,187.189566 L90.8351478,185.077509 C92.0318789,183.995201 93.1275053,182.186813 93.8391277,180.812516 C92.3993561,180.637323 90.866257,180.485488 90.2333797,180.566272 C89.3807938,180.664575 89.1649739,180.901086 88.4659895,181.646633 L88.2696129,181.852972 C87.8097803,182.35714 86.2222402,184.994778 84.9574577,187.240177 L82.5834386,191.475971 L82.1440215,186.629919 C82.1313834,186.574441 82.1323556,186.513124 82.1313834,186.455699 C82.0993021,185.239076 82.6077427,182.556667 86.5741627,174.323538 L86.7248478,174.016949 C86.9017812,173.651962 87.0932971,173.249016 89.4439843,172.05186 C88.4679339,171.705366 87.35092,171.281981 86.0414181,170.770999 C84.4859592,170.173394 82.3627579,169.353877 81.8562616,169.297426 C81.1543608,169.260441 78.6928472,170.094557 76.8331017,170.912128 C76.8331017,170.912128 78.5392457,165.160909 80.7713291,164.246982 C81.5082277,163.92774 82.6339911,163.702908 83.7976687,163.529661 C82.7214856,162.853219 81.8115422,162.217655 81.4217053,161.910093 C80.3649655,161.113935 73.5851093,159.199458 72.003402,159.253962 C71.2402551,159.289001 69.3114861,160.458905 67.9932347,161.52856 L65.1029978,163.896594 L65.5414427,160.184435 C65.5706076,159.990749 66.1986241,155.109659 71.3228888,153.240926 C73.1126386,152.603416 75.0666838,152.460341 76.8447677,152.545991 C75.0627952,150.681152 73.0931954,148.332584 71.1420667,145.948003 L70.056162,144.625291 C69.2259359,143.682165 64.2406903,141.629479 62.5452401,141.308291 C61.4165603,141.093192 59.6170889,141.330677 59.0221259,141.446499 L54.4869912,142.342907 L57.6280459,138.94415 C58.3328632,138.179137 60.9508948,136.07 63.0818734,135.982404 C63.7293332,135.964884 64.9727281,136.109906 66.2861186,136.321111 C66.0955749,136.07876 65.9196137,135.879234 65.7718451,135.679708 C63.0565972,135.682628 55.8781547,135.123955 54.7766954,134.631466 C54.3421391,134.4261 52.9062561,133.256195 51.2292771,131.812794 C51.2234441,131.812794 51.2234441,131.812794 51.2234441,131.812794 C51.2146946,131.809874 51.2010844,131.812794 51.1903906,131.787489 C51.2069174,131.812794 51.2146946,131.809874 51.2292771,131.812794 C51.2214998,132.516489 51.2321936,133.175412 51.3080222,133.544292 C51.5218978,134.567228 54.5842074,138.420515 54.5842074,138.420515 C54.5842074,138.420515 50.3796077,136.346417 49.4716086,135.500621 C48.5937465,134.671371 46.8982964,130.605905 46.8982964,130.605905 L47.1821676,129.293899 L47.3678505,128.44129 C47.4115978,128.486061 47.1860563,128.285562 47.0246774,128.142487 C46.4705452,127.648052 45.9562716,127.185735 45.5217153,126.785709 C45.1386836,126.448948 44.960778,126.297114 44.9773047,126.297114 C44.8917545,126.529732 44.8237031,126.775976 44.7731507,127.050446 C44.2792925,129.498291 44.9238358,133.123827 47.0664804,135.248537 C49.744786,137.902721 52.9840291,140.096535 52.9840291,140.096535 C52.9840291,140.096535 54.0018825,145.192724 53.957163,145.108047 C54.017437,145.66964 53.7150947,146.280871 52.6447446,146.775307 C50.6148708,147.693127 45.7248971,150.460214 43.1350581,150.375537 C40.5627181,150.305459 31.0821965,149.788638 31.0821965,149.788638 C31.0821965,149.788638 41.1499038,147.695073 42.8472983,146.768494 C44.5301103,145.85846 47.3075765,141.961374 47.3075765,141.961374 C49.6067391,142.260177 51.3352427,142.760452 52.3774001,143.26754 C50.3747469,141.438713 47.3989597,139.544675 47.3989597,139.544675 C47.3989597,139.544675 43.3878202,138.132419 40.8883923,135.81597 C38.4035468,133.498547 37.4294407,125.602179 37.4294407,125.602179 C37.4294407,125.602179 35.1380554,128.79557 36.6594886,132.871743 C38.1848104,136.943049 44.0070873,140.700953 44.0070873,140.700953 C40.7085423,140.304821 35.7524616,136.354203 35.0369506,135.523007 C34.3117179,134.686944 31.6479946,132.185567 32.6726531,127.150696 C33.3949693,123.626384 35.8905086,120.285051 37.3215307,118.618765 C35.4297039,116.410351 33.7109219,114.026744 32.91861,111.93318 C31.3466245,107.841434 29.6745062,101.836185 29.4596584,95.850401 C29.4129947,94.4722108 29.9389342,92.0525916 29.9953196,90.7902239 C30.2811351,84.333364 37.8863567,69.2170705 38.8653236,67.4028427 C38.8225485,67.2686249 37.8717743,66.3078823 37.7424768,66.021538 C37.3749996,65.256623 37.0746016,64.4311688 37.0493254,63.5651281 C37.0007173,62.3016898 37.5295733,60.9516279 39.2619656,59.5309046 C40.7960369,58.3017264 44.8616175,55.8205947 46.9537096,54.578861 C46.5949819,53.8553111 46.2479201,52.9911197 46.2304212,52.2710737 C46.1837575,51.0514338 46.3606909,50.511156 47.0062063,49.8404563 L47.094673,49.7568499 C47.094673,49.7568499 47.5583942,49.2546281 48.0085051,48.7709963 C47.3007713,47.2711438 43.7621025,39.8128574 43.7621025,39.8128574 L46.71553,35.5459183 L57.6397118,31.414365 C57.6397118,31.414365 60.0049814,30.9333611 60.9586721,31.0531741 C61.3601749,29.9444902 61.8841701,28.58489 62.0951292,27.9842677 C61.943472,27.5055997 61.8375064,27.0295595 61.8219518,26.5573153 C61.7616777,25.0157083 62.3566408,23.5283141 63.1265929,22.5474242 C63.535873,22.0352748 63.7147508,21.4574276 63.7137786,21.2402848 C62.8184176,20.2545285 60.9479783,15.3264279 59.5441767,12.0202315 L59.1766996,11.184947 L59.7522194,10.4705461 C59.8299923,10.3899571 60.7107709,9.77171808 63.1197877,7.57916934 C65.8068429,5.1303512 70.7182042,4.52009326 70.915553,4.49955667 L71.2742807,4.45663422 L77.5670839,6.78116219 L77.6740217,7.7027782 C77.9219229,9.81775508 78.6160464,15.5115493 78.739511,16.330093 C78.7958964,16.6202332 78.8367272,17.0227893 78.8474209,17.4687545 C78.8901961,18.7964305 78.7715923,20.6327521 78.2748177,21.704548 L77.2802962,23.6325543 C76.7757442,24.5457027 75.8541348,26.2596807 75.7258095,26.6839414 C75.7053941,26.8025864 75.6976168,26.9896543 75.7053941,27.1881098 C75.7199765,27.7751059 75.8813554,28.5974455 76.0164859,28.9107502 C76.3907681,29.7254981 76.4685411,31.1766856 76.4899286,31.7614432 L76.5064554,32.0446729 C76.5064554,32.0446729 75.7627516,34.1908927 75.2426451,35.6995048 C77.2112727,36.0295502 81.0143695,36.6564515 81.0143695,36.6564515 L81.3692086,37.085676 C83.017995,39.0585514 86.3495934,42.9904812 87.0728817,43.7547149 C88.1587864,44.9215047 89.2116376,48.0703189 89.5062026,49.0211339 L89.5567551,49.1458134 L89.568421,49.2712715 C90.0525576,52.9949156 90.8516745,59.0909739 90.9547237,59.6563627 C90.9547237,59.6563627 92.1038189,67.1838506 92.6239255,69.6869788 C94.2221594,69.3094365 95.3440341,70.0804833 96.0507957,70.3682875 C97.6393081,69.5034148 99.5311349,70.9865265 100.52274,71.3661128 C102.296935,70.1562058 105.57312,68.2126268 108.100741,67.4856704 C110.900567,66.6720905 118.625364,61.7595627 119.597526,61.1386958 C121.019799,60.2266181 121.05188,58.5594557 121.026604,57.6755064 C121.01591,57.5450844 120.40442,55.0780656 120.40442,55.0780656 C120.352896,53.9887503 118.496067,49.0260977 116.635349,44.0273357 C115.926643,43.6349019 114.280773,42.7684719 113.731502,42.2479521 C113.200702,41.761303 112.050634,38.3110584 110.968618,36.9921421 C107.242322,38.6973604 104.704008,38.0635487 104.300561,37.9498674 C103.236043,37.684157 98.5511958,35.2676524 97.4332098,33.877588 C96.3307783,32.5267475 95.3906979,28.297475 95.3119528,26.3414378 C95.2934817,25.4547631 96.0196865,23.6344036 96.6146495,22.4489265 C96.6146495,22.4489265 99.273512,20.0441987 100.58107,19.1925628 C100.58107,19.1925628 104.369584,17.3646116 105.46035,17.1825075 L106.072811,17.0627918 C106.791239,16.8966498 107.67299,16.7114312 108.604321,17.3540026 C109.160397,17.7459498 115.006978,21.3026732 116.18621,22.2497897 L116.484664,22.488929 C116.484664,22.488929 118.641891,27.7527201 118.88882,28.3385482 C119.924172,29.2445915 122.813437,31.7907394 123.582417,32.7495354 C124.320288,33.6529508 124.653739,35.5972112 125.120377,38.6760452 L125.568544,41.2328994 C125.82325,42.2343259 126.848881,43.8121395 127.752019,45.2039559 L128.973054,47.1425711 C130.010351,48.9238041 130.725862,51.9597156 130.956264,52.9854746 C131.494842,53.7465937 132.09661,54.4879549 132.318263,54.6575035 C133.150433,55.2696107 134.154676,56.8463537 134.455074,57.3196686 L134.693254,57.6910791 L134.684505,58.1526171 C134.640757,60.3189841 133.271954,63.1933282 133.305979,64.2764144 L133.305979,64.2764144 Z" id="path198" fill="#231F20"></path>
                        <path d="M135.509148,64.1977719 C135.509148,64.2456582 135.464255,64.2995302 135.464255,64.3321528 L135.461262,64.4186473 L135.509148,64.1977719" id="path180" fill="#B49154"></path>
                        <path d="M51.2921489,131.865304 C51.2921489,131.865304 51.2921489,131.865304 51.3101063,131.865304 C51.2652129,131.856325 51.2412698,131.865304 51.1903906,131.787489 C51.2233124,131.865304 51.2652129,131.856325 51.2921489,131.865304" id="path182" fill="#231F20"></path>
                        <path d="M109.769943,116.095002 C109.138038,116.791884 108.807503,119.906438 108.380724,120.573147 C107.963666,121.255429 106.579308,122.633619 106.579308,122.633619 C106.579308,122.633619 106.66583,118.974992 106.520978,118.097077 C106.382931,117.206509 107.062472,114.542592 107.825619,114.055943 C108.564462,113.58876 113.057794,112.661207 113.057794,112.661207 C113.057794,112.661207 117.402385,113.169268 117.861245,113.58876 C118.311356,114.013118 118.714803,115.668698 118.714803,115.668698 L113.255143,114.758664 C113.255143,114.758664 110.399904,115.404934 109.769943,116.095002" id="path184" fill="#FFFFFF"></path>
                        <path d="M73.9953615,86.5145252 C71.2733086,86.5894691 68.5580607,86.2322687 68.1050333,86.1651111 C67.7919972,85.8487892 67.6092308,85.6288238 67.6092308,85.6288238 C68.4219581,91.0111626 73.5588609,92.1470015 73.5588609,92.1470015 L79.0690738,92.2501711 C80.7577188,90.9702841 85.8168487,89.8675373 85.8168487,89.8675373 C85.8168487,89.8675373 86.2543215,93.5310315 84.9564855,97.1487807 C83.6576774,100.76653 80.8646566,102.703393 80.8646566,102.703393 C80.8646566,102.703393 84.1097326,101.875117 85.5067291,100.900845 C86.8852545,99.9382532 89.6870247,95.2362499 89.6870247,95.2362499 C89.6870247,95.2362499 90.3986472,100.942697 89.7832687,103.81198 C89.1756676,106.708515 85.7954611,114.682747 85.7954611,114.682747 L82.7525948,117.845966 C84.5938692,118.397826 89.742438,119.536585 91.2531774,119.170625 C92.7746105,118.817317 100.722033,112.921077 100.722033,112.921077 C100.722033,112.921077 99.4018374,121.635016 99.1821288,124.090647 C98.9663089,126.553091 95.4849976,140.452762 95.133075,141.908816 C94.7850411,143.35319 95.7912285,145.85846 95.7912285,145.85846 L101.959595,166.963457 C101.959595,166.963457 99.9666633,156.947246 99.1383815,154.213251 C98.336348,151.482177 98.5677225,149.226071 98.5677225,149.226071 L100.359417,139.7734 C100.359417,139.7734 100.400247,138.038009 101.203253,137.707088 C102.013064,137.369353 104.823584,136.146891 105.392298,134.903016 C105.767553,134.044567 105.939625,132.233259 106.12142,130.1796 C106.207942,129.212142 106.22058,129.206302 106.213775,129.212142 C106.243912,129.328937 106.275021,129.44768 106.308075,129.552796 C106.368349,129.728963 106.441261,129.901237 106.503479,130.075457 C106.552087,130.201986 106.59389,130.329488 106.65222,130.453097 C106.752353,130.701288 106.886511,130.92612 107.010948,131.177231 C107.092609,131.298893 107.154828,131.440021 107.24135,131.567523 C107.397868,131.813768 107.585495,132.040546 107.775067,132.270244 C107.872283,132.382174 107.945195,132.497023 108.055049,132.607979 C108.36128,132.921381 108.70737,133.218237 109.118594,133.465455 C111.926197,135.263136 113.187091,133.218237 114.123283,131.892605 L114.385767,130.658463 L117.159344,127.896243 L114.822267,124.758329 C114.822267,124.758329 116.15899,121.613603 116.462304,120.939107 C116.766591,120.272398 119.452674,121.272949 119.452674,121.272949 C119.452674,121.272949 119.954309,122.477892 120.062219,122.803947 C120.165269,123.054084 121.384359,123.572852 121.982239,123.816177 L121.177289,123.833696 C121.177289,123.833696 120.43553,124.738863 120.580382,125.893195 C120.723289,127.041687 121.422274,127.978 122.225279,128.716733 C122.604422,129.07004 123.036062,129.071013 123.443398,128.934752 C123.223689,129.092426 122.993287,129.232581 122.853296,129.346457 C122.416795,129.698791 119.755016,126.481067 119.755016,126.481067 C119.755016,126.481067 119.19894,129.363976 118.674945,130.068644 C118.139283,130.74022 115.947059,131.370917 115.306404,131.732011 C115.306404,131.732011 114.559784,133.713646 113.743168,135.616443 C113.11904,138.140206 112.247011,141.296611 111.214575,143.833026 L111.214575,143.826213 C111.214575,143.826213 111.214575,143.833026 111.208742,143.833026 C111.097916,143.92257 103.4052,151.442271 102.450537,155.442527 C101.489069,159.463221 103.588938,159.266615 104.263618,159.354212 C104.263618,159.354212 103.241876,165.038273 103.879614,167.236954 C103.879614,167.236954 104.253897,165.368221 104.7322,163.303856 C104.440552,164.803708 104.067242,166.922578 104.067242,166.922578 C104.067242,166.922578 106.387792,163.834303 107.688544,160.877424 C107.688544,161.204452 107.692433,161.529533 107.674934,161.845855 C107.674934,162.001583 107.684656,162.138818 107.668129,162.27508 C107.656463,162.676079 107.634103,163.062478 107.600078,163.448877 C107.402729,165.451925 106.707633,167.406308 104.425969,169.373343 C104.405554,169.392809 104.378333,169.417142 104.366668,169.431741 C104.297644,169.471646 104.230565,169.531017 104.180012,169.574816 C103.63463,170.022533 103.022168,170.466357 102.30374,170.907261 C99.4426681,170.291163 98.6571614,171.688819 98.6571614,171.688819 C98.2682967,171.312153 97.6986099,170.622085 96.9996256,169.717891 C90.5046128,159.366865 83.877386,140.648395 83.877386,140.648395 C83.877386,140.648395 71.2888631,132.702389 69.6478541,131.519832 C68.1876671,130.470616 61.6226586,121.848168 60.08081,119.809108 C59.8679066,119.534638 59.7629131,119.373071 59.7629131,119.373071 L59.3283568,118.701495 C59.8844334,123.272103 60.6057774,126.340912 61.276569,128.413064 C61.276569,128.413064 61.276569,128.409171 61.2726804,128.409171 C57.1283547,127.981893 51.0358169,124.727184 47.9453146,123.021965 C47.7401885,122.90809 47.5457561,122.779614 47.3182703,122.62486 C47.2249427,122.553809 47.1180049,122.482758 47.0169001,122.402948 C46.8837139,122.305618 46.7514999,122.212181 46.6144251,122.106092 C46.4851276,122.004869 46.3616631,121.891966 46.2294491,121.790743 C46.1050124,121.68368 45.9796035,121.593164 45.850306,121.477341 C45.7005931,121.348866 45.5528245,121.216497 45.3982508,121.077316 C45.2815913,120.96928 45.1542381,120.862217 45.0298014,120.746394 C44.8616175,120.602346 44.7002386,120.447592 44.5301103,120.275318 C44.4124787,120.173122 44.2997079,120.068006 44.1840207,119.955103 C44.0031986,119.777963 43.8145992,119.596929 43.626972,119.412003 C43.5200342,119.315646 43.4247623,119.208583 43.3197689,119.109307 C43.1156149,118.915621 42.9124331,118.718041 42.7082791,118.505862 C42.6139794,118.414372 42.53329,118.326775 42.4448233,118.229445 C42.2299755,118.017266 42.010267,117.786595 41.7954192,117.562736 C41.7186184,117.492659 41.6495949,117.412848 41.5825158,117.344717 C41.3453083,117.101393 41.1197668,116.861961 40.8835315,116.611824 C40.8417285,116.563159 40.7931204,116.514494 40.7386794,116.459989 C40.4898059,116.204985 40.2419047,115.922729 39.9940034,115.661885 C39.9784489,115.647285 39.973588,115.628793 39.9560891,115.6103 C38.3092471,113.844737 36.8675312,112.197917 36.0693864,111.258684 C36.0528596,111.238245 36.0353607,111.224619 36.0207783,111.209046 C35.9118961,111.091277 35.8117635,110.977401 35.7291297,110.872285 C35.6931598,110.766195 35.6445517,110.657186 35.5959436,110.563749 C33.7828619,106.264691 32.4966918,101.381654 32.3615613,97.8232763 C32.1681012,92.4224449 36.6167134,82.0431935 37.1795951,80.6883624 C37.7385881,79.3422911 39.5711131,77.6497256 40.2700974,77.1212247 C40.9544993,76.5771511 47.3989597,73.9385398 47.3989597,73.9385398 C47.3989597,73.9385398 40.886448,85.3640867 40.8903366,93.7422372 C40.8767263,102.121361 43.7582138,111.204179 43.7582138,111.204179 C42.2299755,102.565185 43.4519829,94.4186794 43.8933443,92.2005329 C44.4192838,89.5852808 46.8739923,85.3348878 48.6549927,83.7406254 C50.423355,82.1483097 58.1967605,77.6983905 58.1967605,77.6983905 L58.2385635,80.249405 L61.5448857,89.736142 C61.5448857,89.736142 60.3248226,92.7416867 60.6388309,95.6829937 C60.946034,98.6359803 64.2562449,105.552237 64.2562449,105.552237 C61.9969409,99.5129219 64.8210709,87.460571 64.8210709,87.460571 C61.7733437,82.0597395 62.0795746,76.4379694 62.3508078,75.2009075 C62.6016255,73.9648188 63.9120996,69.8429012 64.8064884,69.3007741 C65.7096267,68.7567004 67.2650856,68.8482878 67.2650856,68.8482878 C73.0893067,70.2284246 78.5761878,75.2009075 78.8338107,75.4461786 C78.733678,75.3673415 78.3584236,75.2719582 78.4624449,78.2035323 C78.5489673,80.6786295 80.0801221,82.8432445 80.8763226,83.7990233 C80.6012008,83.9878432 80.1316466,84.3761891 79.2975318,85.1373083 C78.2417642,86.1096331 76.1243958,86.4444477 73.9953615,86.5145252" id="path186" fill="#FEF0C8"></path>
                        <path d="M80.3873252,58.3149632 C80.3873252,58.3149632 78.1532974,55.5372677 77.1947459,54.2469663 C76.2264728,52.9550103 75.5838739,49.3986762 75.5838739,49.3986762 C74.2345133,51.4904886 75.7938608,55.2091688 75.7938608,55.2091688 C75.7938608,55.2091688 72.6119753,57.4800681 72.3086608,57.4789975 C72.0043742,57.4964195 66.8383065,55.637712 66.8383065,55.637712 C66.8383065,55.637712 64.1901379,47.4650248 64.7637133,45.9123223 C65.3120125,44.360009 68.6805531,38.9357211 68.6805531,38.9357211 L79.5298785,40.0667909 C79.5298785,40.0667909 82.0050024,43.5588873 83.1570141,44.4291132 C83.8754416,44.9926528 84.5890084,45.9921327 85.1713333,47.0053361 C85.1946652,47.0403748 85.2092476,47.0821293 85.2345238,47.1163894 C85.2918813,47.3034573 85.3599327,47.5106725 85.4104851,47.7053321 C85.4620097,47.8763406 85.5145064,48.0634085 85.560198,48.2562189 C85.5835299,48.3543273 85.6194999,48.4652833 85.6379709,48.5801325 C85.6749131,48.7546448 85.7079666,48.9306172 85.7478252,49.1214809 C85.7662963,49.2439218 85.7876839,49.3724945 85.8110157,49.4941568 C85.8411528,49.664484 85.8732341,49.8484373 85.8868444,50.0225603 C85.9072598,50.1822786 85.9335081,50.3195136 85.9480905,50.4674549 C85.9675338,50.6308717 85.9850327,50.7837768 86.0044759,50.9521574 C86.0268357,51.1148929 86.0278078,51.2810349 86.0511397,51.4463982 C86.058917,51.5867478 86.0754437,51.7414049 86.0812767,51.8836037 C86.0978035,52.0726182 86.1123859,52.2649419 86.1182189,52.4501606 C86.130857,52.577468 86.130857,52.7071113 86.1337734,52.8238097 C86.155161,53.0234332 86.160994,53.231427 86.1590497,53.4370849 C86.1668269,53.53714 86.1687713,53.6473173 86.1687713,53.7446471 C86.179465,53.9644178 86.1755764,54.1895417 86.1765486,54.3974382 C86.1736321,54.4791952 86.1726599,54.5483967 86.1833537,54.6339496 C86.1833537,54.8716291 86.1843259,55.0992835 86.1784929,55.3282032 C86.1648826,55.3776468 86.1736321,55.4293289 86.1726599,55.4692341 C86.1707156,55.7281314 86.1639105,55.9676601 86.1561332,56.1999864 C86.160994,56.2197443 86.1561332,56.2478726 86.1590497,56.2684092 C86.1483559,56.5019034 86.1337734,56.7265407 86.1337734,56.9341452 C86.1269683,56.9467007 86.1269683,56.9698652 86.125024,56.993419 C86.1123859,57.428386 86.0939148,57.8039817 86.0657221,58.0952898 C86.0754437,58.1096947 86.06475,58.1165077 86.06475,58.1165077 C86.0394738,58.5769751 86.0103089,58.8446321 86.0103089,58.8446321 L86.5002784,72.4863789 C86.5119444,72.4883255 86.5148609,72.4883255 86.5148609,72.4883255 C85.7021336,73.1803405 85.0721728,73.9463262 84.8077448,74.2967135 C84.6978905,74.4212957 84.6619205,74.4972129 84.6619205,74.4972129 C84.6619205,74.4972129 84.6249784,74.5225187 84.6181732,74.5312784 L82.7282907,75.0792452 L80.3873252,58.3149632" id="path188" fill="#FEF0C8"></path>
                        <path d="M60.362737,50.6639638 C60.7467409,52.0441006 60.8682611,54.9221432 59.4343225,55.8749048 C57.9799684,56.8151108 47.2560519,63.3772816 47.2560519,63.3772816 C47.2560519,63.3772816 55.1558385,55.4437337 56.0249511,54.5932658 C56.8911473,53.7416299 57.9848293,52.9611421 57.7894247,52.0714503 C57.5862429,51.1799092 56.4410364,46.7114974 57.5493008,45.5952217 C58.6507601,44.4964654 56.2611864,39.1820629 54.4306058,36.2234312 L59.1582285,34.3779606 C59.1582285,34.3779606 61.4058665,40.2401353 61.6421018,42.286008 C61.877365,44.3169893 61.0578326,46.075739 60.6777174,46.831213 C60.2985743,47.5718929 59.9855382,49.277014 60.362737,50.6639638" id="path190" fill="#FEF0C8"></path>
                        <path d="M73.8028735,60.2820961 C74.4707486,60.1722108 76.2468882,59.030532 76.2468882,59.030532 L77.5009769,61.3321875 L79.0369925,67.0339627 C76.6172818,61.1349 70.4051681,59.9657742 70.3837805,59.8996873 C70.3283673,59.8297071 72.9483433,60.4075543 73.8028735,60.2820961" id="path192" fill="#FEEFAF"></path>
                        <path d="M58.6838136,68.980559 C57.2732068,68.7996229 54.7786397,70.6760444 54.7786397,70.6760444 C54.6697576,67.7989751 51.3887116,65.395026 51.3887116,65.395026 L52.8080678,64.6194047 C55.6788615,64.7585863 58.6838136,68.980559 58.6838136,68.980559" id="path194" fill="#FEF0C8"></path>
                        <path d="M124.743178,71.8225896 C123.244105,73.6037252 120.175962,79.7160376 119.808485,80.9735388 C119.446841,82.2290934 118.496067,83.3298936 118.193724,83.9158191 C117.880688,84.5036912 113.615815,89.2543594 112.981965,89.938588 C112.348116,90.6257365 111.77454,90.6870543 111.253462,90.1293545 C110.752798,89.5648416 109.693142,88.8601737 108.595571,88.2450493 C107.50675,87.6182453 106.482092,81.1876644 106.482092,81.1876644 C108.197957,78.4935751 115.180995,74.0514424 116.452583,72.7618223 C117.721254,71.4790154 118.896597,69.9657314 118.896597,69.9657314 C115.95678,70.6400324 109.418992,73.5151551 109.418992,73.5151551 C112.613516,71.0118322 117.789305,65.7717897 119.233938,64.4927786 C120.660099,63.2001413 123.231467,61.4705905 123.231467,61.4705905 L125.098017,61.0687157 C125.098017,61.0687157 127.186221,57.2843378 128.593911,57.3972404 C129.985075,57.5161775 130.6442,57.5238665 131.102089,58.6549363 C131.553172,59.7992429 130.501293,63.0511294 129.914107,64.8878403 C129.329838,66.7089785 126.243224,70.0363928 124.743178,71.8225896" id="path196" fill="#FEF0C8"></path>
                        <path d="M42.3116371,141.628506 C42.3116371,141.628506 37.2525072,144.559107 34.5353151,145.367918 C31.8045127,146.14169 30.2898846,146.888209 24.9303567,146.385014 C19.583467,145.900312 18.3196567,144.393646 15.6617664,142.419798 C15.6617664,142.419798 24.3606699,145.02337 25.7323902,144.807298 C25.7323902,144.807298 24.1574881,144.015033 22.3881537,142.690374 C20.6217358,141.379342 16.0496589,138.610309 8.51346085,139.569981 C8.51346085,139.569981 10.5579171,137.992264 10.6930475,137.949439 C13.9877038,136.72795 17.1802831,136.673445 19.8002591,137.783978 C22.4250958,138.897432 30.4697345,142.396438 36.3299257,138.058449 C36.3299257,138.058449 40.9243623,141.495164 42.3116371,141.628506" id="path200" fill="#231F20"></path>
                        <path d="M103.826146,167.068573 C103.826146,167.068573 108.483773,161.760205 108.483773,157.670406 C108.483773,153.580607 107.625354,153.438506 107.625354,153.438506 L111.136802,143.967342 C111.136802,143.967342 103.074665,151.608705 102.323183,155.876618 C101.677668,159.537192 104.184873,159.392171 104.184873,159.392171 C104.184873,159.392171 103.255487,165.635878 103.826146,167.068573" id="path202" fill="#231F20"></path>
                        <path d="M103.245765,155.544723 C103.245765,155.544723 104.114878,155.015249 104.755532,155.356877 C105.397159,155.696558 105.887129,156.526781 105.887129,156.526781 C105.887129,156.526781 105.8113,154.713526 104.905245,154.14804 C104.001135,153.580607 103.245765,155.544723 103.245765,155.544723" id="path204" fill="#FFFFFF"></path>
                        <polygon id="path206" fill="#231F20" points="124.1278 157.410536 120.208044 165.879203 121.87919 154.634689"></polygon>
                        <polyline id="path208" fill="#231F20" points="113.984264 157.133146 109.870075 167.720683 110.921954 157.444601 109.370384 154.055577 113.984264 157.133146"></polyline>
                        <path d="M113.607065,127.800859 C113.42041,128.480221 112.810865,129.930436 112.254788,130.17376 C111.709405,130.413192 109.846743,130.596172 109.846743,130.596172 C109.846743,130.596172 108.684038,129.08464 108.231011,128.553219 C107.768262,128.021798 107.963666,127.233427 108.373918,126.434349 C108.782226,125.646951 113.5779,120.725955 113.5779,120.725955 L112.073966,125.196313 C112.073966,125.196313 113.813164,127.135123 113.607065,127.800859" id="path210" fill="#231F20"></path>
                        <path d="M124.605131,128.052944 C124.30765,128.41501 123.890592,128.767344 123.443398,128.934752 C123.036062,129.071013 122.604422,129.07004 122.225279,128.716733 C121.422274,127.978 120.723289,127.041687 120.580382,125.893195 C120.43553,124.738863 121.177289,123.833696 121.177289,123.833696 L121.982239,123.816177 C122.046402,123.843429 122.076539,123.859975 122.116397,123.865815 C122.184449,123.92032 122.283609,123.984557 122.405129,124.086754 C122.987454,124.535444 124.047111,125.452291 124.146271,126.151119 C124.274596,127.107871 125.158291,127.357035 124.605131,128.052944" id="path212" fill="#231F20"></path>
                        <path d="M102.187081,94.1763282 C101.230474,90.5430062 96.389108,80.7029619 96.389108,80.7029619 C96.389108,80.7029619 104.497909,90.725013 104.945104,91.8335995 C105.409797,92.9324532 106.639582,101.769027 106.194332,103.426554 C105.728666,105.072401 103.151465,109.659555 103.151465,109.659555 C103.151465,109.659555 103.618103,105.563917 103.452835,103.826579 C103.291457,102.097029 103.128133,97.8174366 102.187081,94.1763282" id="path214" fill="#004E3A"></path>
                        <path d="M120.372339,35.5439717 L114.406182,31.90481 L111.264155,25.5714616 L102.356237,21.1391591 C102.356237,21.1391591 103.701709,19.7005272 107.041085,18.9667577 L113.947322,23.4758533 L116.464249,29.680629 L122.631643,34.5307684 C122.631643,34.5307684 122.853296,40.5211265 123.377291,42.3472285 C123.897398,44.1622349 127.071506,47.2722144 127.7841,49.7074064 C127.7841,49.7074064 123.506589,45.7138668 122.221391,44.3736352 C120.950775,43.0383675 120.372339,35.5439717 120.372339,35.5439717" id="path216" fill="#004E3A"></path>
                        <path d="M73.902034,31.8424216 C73.5238631,33.8601659 71.7438349,35.7656891 71.7438349,35.7656891 L69.4437001,35.8447209 C69.4437001,35.8447209 71.3248331,32.6952254 71.4473255,31.6177843 C71.5542633,30.5352821 70.2330955,27.818807 70.3410054,26.5965392 C70.4459989,25.3555841 73.5267795,21.5573854 73.7494046,18.9363908 C73.9564751,16.3221119 71.1828975,7.5111358 71.1828975,7.5111358 C71.1828975,7.5111358 74.4192241,7.71455511 75.2154246,8.45396972 C75.2154246,8.45396972 77.0936411,18.1926937 76.5249265,19.4473723 C75.9591283,20.7107133 72.736412,25.1160554 73.1058335,26.7976226 C73.4820601,28.4795791 74.2947873,29.829641 73.902034,31.8424216" id="path218" fill="#004E3A"></path>
                        <path d="M102.324156,76.5129134 C102.324156,76.5129134 102.781072,78.8897075 102.845234,80.7282677 C102.845234,80.7282677 101.133257,73.8159042 96.6039558,75.4520184 C96.6039558,75.4520184 95.2701498,74.2052235 92.9321007,75.3955671 L92.6287863,72.0941398 C92.6287863,72.0941398 94.832677,72.1914696 96.1557892,73.2523646 C96.1557892,73.2523646 98.6804933,72.2411078 100.95438,73.997911 C100.95438,73.997911 105.054958,70.7169229 107.976304,70.2489612 C107.976304,70.2489612 104.379306,72.4085151 102.324156,76.5129134" id="path220" fill="#004E3A"></path>
                        <path d="M86.06475,58.1290633 C86.06475,58.1290633 86.0754437,58.1096947 86.0657221,58.0952898 C86.0939148,57.8039817 86.1123859,57.428386 86.125024,56.993419 C86.1269683,56.9698652 86.1269683,56.9467007 86.1337734,56.9341452 C86.1337734,56.7265407 86.1532167,56.5049207 86.1590497,56.2684092 C86.1561332,56.2478726 86.160994,56.2197443 86.1561332,56.1999864 C86.1639105,55.9676601 86.1707156,55.7281314 86.1726599,55.4692341 C86.1736321,55.4293289 86.1648826,55.3776468 86.1784929,55.3282032 C86.1843259,55.0992835 86.179465,54.8716291 86.1833537,54.6339496 C86.1726599,54.5483967 86.1736321,54.4791952 86.1765486,54.3974382 C86.1755764,54.1895417 86.179465,53.9644178 86.1687713,53.7446471 C86.1687713,53.6473173 86.1590497,53.53714 86.1590497,53.4370849 C86.160994,53.231427 86.155161,53.0234332 86.1337734,52.8238097 C86.1366899,52.6991303 86.130857,52.577468 86.1182189,52.4501606 C86.1123859,52.2649419 86.0978035,52.0726182 86.0812767,51.8836037 C86.0754437,51.7414049 86.06475,51.5935609 86.0511397,51.4463982 C86.0278078,51.2810349 86.0268357,51.1148929 86.0044759,50.9521574 C85.9850327,50.7837768 85.9675338,50.6308717 85.9480905,50.4674549 C85.9335081,50.3195136 85.9072598,50.1822786 85.8868444,50.0225603 C85.8732341,49.8484373 85.8411528,49.6693504 85.8110157,49.4941568 C85.7857395,49.3686013 85.7662963,49.2439218 85.7478252,49.1214809 C85.7079666,48.9306172 85.6749131,48.7546448 85.6379709,48.5801325 C85.6194999,48.4652833 85.5893629,48.3661042 85.560198,48.2562189 C85.5145064,48.0634085 85.4620097,47.8763406 85.4104851,47.7053321 C85.3959027,47.6528713 85.3910418,47.6098516 85.3745151,47.5729636 C85.3336843,47.4163599 85.2782711,47.2604375 85.2345238,47.1163894 C85.554365,47.6847955 85.830459,48.2345143 86.0657221,48.7291444 C86.7219313,50.1268006 87.2857851,57.0410133 87.9167181,60.5897557 C88.5583449,64.147939 89.3107981,71.0624438 89.3107981,71.0624438 C88.2987777,71.1811861 87.309117,71.8128566 86.5002784,72.4863789 L86.0103089,58.8446321 C86.0103089,58.8446321 86.0394738,58.5769751 86.06475,58.1290633" id="path222" fill="#004E3A"></path>
                        <path d="M63.6671148,119.432442 C63.6671148,119.432442 72.1638087,128.235924 76.5122884,129.721177 C80.8597958,131.20351 87.381057,133.87424 88.961792,135.952231 C90.5425271,138.031196 92.2233948,148.813393 93.9032904,153.462838 C95.5841581,158.112284 98.3509305,165.731261 98.3509305,165.731261 C98.3509305,165.731261 92.6190646,157.718098 90.2479621,152.375664 C87.8749152,147.033231 84.7144173,139.613779 84.7144173,139.613779 C84.7144173,139.613779 75.4254115,134.270372 72.1638087,131.007877 C68.9041503,127.741488 63.6671148,119.432442 63.6671148,119.432442" id="path224" fill="#004E3A"></path>
                        <path d="M120.80884,132.263431 C121.574903,132.574887 122.008487,132.528168 122.008487,132.528168 C122.008487,132.528168 122.798855,137.452084 122.984538,140.290221 C123.16536,143.118626 122.62581,147.030311 122.62581,147.030311 C122.62581,147.030311 123.004953,148.16323 123.641719,150.174064 C124.273624,152.171272 124.460279,155.010382 124.460279,155.010382 C124.460279,155.010382 123.924618,154.33102 123.769072,154.049737 C123.769072,154.049737 120.107911,149.856769 119.53628,147.809923 C118.952011,145.756264 119.341848,140.604596 120.181795,137.781059 C120.33248,137.264237 120.486082,135.931792 120.486082,135.931792 L120.763148,134.527323 C120.763148,134.527323 119.418648,133.77983 118.641891,132.762733 C117.874855,131.760236 118.49315,130.487162 118.49315,130.487162 C118.49315,130.487162 119.610164,131.784569 120.80884,132.263431" id="path226" fill="#004E3A"></path>
                        <path d="M82.3024839,167.755722 L80.1666445,168.003913 C81.5986388,166.309401 83.5594891,166.243216 83.5594891,166.243216 L90.7952892,171.066882 L82.3024839,167.755722" id="path228" fill="#004E3A"></path>
                        <path d="M85.2646608,163.546207 C85.2646608,163.546207 82.3715074,160.52217 81.3789302,160.06764 C80.3649655,159.605323 73.3828996,157.243128 71.4278823,157.635367 C69.4641155,158.0315 67.2300877,160.086132 67.2300877,160.086132 C68.6086131,156.917073 71.3452485,155.497031 71.3452485,155.497031 C71.3452485,155.497031 80.2930255,157.318072 81.4596196,157.935143 C82.6339911,158.555134 85.2646608,163.546207 85.2646608,163.546207" id="path230" fill="#004E3A"></path>
                        <path d="M77.5719447,151.109403 C75.4604093,148.088286 70.5947396,142.899634 69.8947832,142.235844 C69.0363643,141.44066 63.9150161,140.634769 62.7542549,140.186078 C61.5847443,139.735441 58.9842116,140.165639 58.9842116,140.165639 C59.9310971,139.311083 61.0568605,138.604469 62.5287134,138.719318 C64.0122323,138.830274 68.2858554,139.004494 70.3128127,140.570531 C71.8634108,141.767688 75.8084432,148.167123 77.5719447,151.109403" id="path232" fill="#004E3A"></path>
                        <path d="M42.3495514,123.874575 C41.6923701,126.186158 40.8242296,129.959635 41.6564001,131.689185 C42.8978507,134.282052 49.1517674,138.985028 49.1517674,138.985028 C49.1517674,138.985028 48.3594555,140.005045 42.9561804,135.752705 C38.6242275,132.363681 39.6061109,124.670732 40.189408,121.733319 C40.9681095,122.531423 41.7020917,123.252637 42.3495514,123.874575" id="path234" fill="#004E3A"></path>
                        <path d="M39.7781835,121.307987 C37.8027508,122.123611 33.4406609,128.340066 33.4406609,128.340066 C34.1221463,125.10969 38.1770331,120.038807 38.3656325,119.798402 C38.8322701,120.319116 39.3096016,120.834964 39.7781835,121.307987" id="path236" fill="#004E3A"></path>
                        <path d="M49.8186703,130.596172 L49.527994,131.251201 L49.6436812,134.522456 L48.3740379,131.127592 L48.7852624,129.711444 C49.1410736,130.004406 49.4716086,130.302236 49.8186703,130.596172" id="path238" fill="#004E3A"></path>
                        <path d="M36.0207783,111.209046 C36.8247561,112.132706 38.2693885,113.791206 39.9560891,115.6103 C39.973588,115.628793 39.9784489,115.647285 39.9940034,115.661885 C40.2448212,115.928569 40.4830008,116.194279 40.7386794,116.459989 C40.7931204,116.514494 40.8417285,116.563159 40.8835315,116.611824 C41.1197668,116.861961 41.3453083,117.101393 41.5825158,117.344717 C41.6525114,117.420635 41.7186184,117.492659 41.7954192,117.562736 C42.010267,117.786595 42.2299755,118.017266 42.4448233,118.229445 C42.53329,118.326775 42.6139794,118.414372 42.7082791,118.505862 C42.924099,118.718041 43.1156149,118.915621 43.3197689,119.109307 C43.4189294,119.208583 43.5200342,119.315646 43.626972,119.412003 C43.8145992,119.596929 44.0031986,119.777963 44.1840207,119.955103 C44.2997079,120.068006 44.4124787,120.173122 44.5301103,120.275318 C44.7002386,120.447592 44.8616175,120.602346 45.0298014,120.746394 C45.1542381,120.862217 45.2815913,120.96928 45.3982508,121.077316 C45.5528245,121.216497 45.7005931,121.348866 45.850306,121.477341 C45.9796035,121.593164 46.1050124,121.68368 46.2294491,121.790743 C46.3616631,121.891966 46.4851276,122.004869 46.6144251,122.106092 C46.7514999,122.212181 46.8837139,122.305618 47.0169001,122.402948 C47.1180049,122.482758 47.2249427,122.553809 47.3182703,122.62486 C47.5457561,122.779614 47.7401885,122.90809 47.9453146,123.021965 C51.0358169,124.727184 57.1283547,127.981893 61.2726804,128.409171 C62.4256642,131.895525 63.4376846,132.502863 63.4376846,132.502863 C63.4376846,132.502863 63.4571279,132.589486 63.295749,132.665403 C62.2672019,132.789012 60.693272,132.772466 58.3873042,132.309176 C53.2445684,131.273587 42.0870677,121.270029 38.7544972,116.486268 C38.5688143,116.222505 38.3850757,115.944141 38.1993928,115.654098 C38.1546734,115.576235 38.1050931,115.499344 38.0448191,115.419534 C37.8951062,115.15577 37.7385881,114.890059 37.5567939,114.605856 C37.5237404,114.504633 37.4595777,114.405357 37.401248,114.302187 C37.2865329,114.093901 37.1795951,113.894375 37.0726573,113.68317 C36.9803019,113.524522 36.9171114,113.384367 36.8373942,113.232533 C36.7489274,113.070965 36.662405,112.898691 36.5846321,112.718631 C36.4300584,112.431508 36.2997887,112.141465 36.1539644,111.83585 C36.0995234,111.728787 36.0635534,111.637297 36.0091123,111.527314 C35.9089797,111.299563 35.808847,111.076677 35.718436,110.853792 C35.7262133,110.860605 35.7291297,110.865472 35.7291297,110.865472 C35.7339905,110.872285 35.7339905,110.872285 35.7330184,110.883964 C35.81468,110.981294 35.9118961,111.091277 36.0207783,111.209046" id="path240" fill="#004E3A"></path>
                        <path d="M111.600523,183.154272 C113.539986,182.580026 117.052407,179.663051 117.496684,178.316007 C117.940962,177.003027 116.646043,172.934641 116.646043,172.934641 C116.646043,172.934641 119.737517,176.777222 119.312683,178.60021 C118.890764,180.422224 116.643126,181.977554 114.085369,183.887165 C111.520806,185.788016 103.523803,186.888817 102.239578,187.929272 C100.980628,188.945396 101.734053,191.898382 101.734053,191.898382 C95.0815504,185.226423 109.643562,183.717811 111.600523,183.154272" id="path242" fill="#004E3A"></path>
                        <path d="M95.133075,177.328109 L94.3777053,179.33213 C94.3777053,179.33213 90.1069986,179.160829 89.4439843,179.181269 C88.7906916,179.199761 88.3143323,179.380795 87.5161875,180.224644 C86.719987,181.086013 83.8035017,186.626999 83.8035017,186.626999 C84.2127818,184.30179 85.7186604,180.470889 87.7893649,178.58853 C89.8474314,176.700332 95.133075,177.328109 95.133075,177.328109" id="path244" fill="#004E3A"></path>
                        <path d="M105.697557,159.246176 C105.697557,159.246176 107.066361,158.721568 107.208296,156.337961 C107.318151,154.412777 106.113642,153.806413 106.113642,153.806413 L111.168883,143.974155 C111.170828,143.972208 111.174716,143.967342 111.174716,143.967342 L107.662296,153.438506 C107.662296,153.438506 108.523631,153.580607 108.523631,157.670406 C108.523631,161.760205 103.865032,167.068573 103.865032,167.068573 L103.865032,167.068573 C104.215982,165.631985 105.180367,161.680395 105.397159,160.756735 C105.659643,159.623816 105.697557,159.246176 105.697557,159.246176" id="path246" fill="#004E3A"></path>
                    </g>
                </g>
            </g>
        </g>
    </g>
</svg>