<?xml version="1.0" encoding="UTF-8"?>
<svg width="200px" height="200px" viewBox="0 0 200 200" version="1.1" xmlns="http://www.w3.org/2000/svg" xmlns:xlink="http://www.w3.org/1999/xlink">
    <!-- Generator: Sketch 54.1 (76490) - https://sketchapp.com -->
    <title>idaho</title>
    <desc>Created with Sketch.</desc>
    <g id="idaho" stroke="none" stroke-width="1" fill="none" fill-rule="evenodd">
        <g id="idaho_BGL" transform="translate(0.000000, 0.000000)">
            <g id="idaho" transform="translate(12.000000, 0.000000)">
                <g id="g10" transform="translate(87.906281, 99.788879) scale(-1, 1) rotate(-180.000000) translate(-87.906281, -99.788879) translate(0.000000, 0.018689)" fill-rule="nonzero">
                    <g id="g12">
                        <polyline id="path14" fill="#FFFFFF" points="135.183366 2.53133039 42.5882503 2.53133039 42.5882503 37.8020655 63.3101411 37.8020655 63.3101411 161.463292 45.1362204 161.463292 42.5882503 161.463292 42.5882503 164.000893 42.5882503 194.206224 42.5882503 196.74233 45.1362204 196.74233 132.639894 196.74233 135.183366 196.74233 135.183366 194.206224 135.183366 164.000893 135.183366 161.463292 132.639894 161.463292 114.717884 161.463292 114.717884 37.8020655 132.639894 37.8020655 135.183366 37.8020655 135.183366 35.2666695 135.183366 5.07112817 135.183366 2.53133039 135.183366 2.53133039"></polyline>
                        <path d="M137.722714,199.279183 L40.0447786,199.279183 L40.0447786,158.934286 L60.7707929,158.934286 L60.7707929,40.3389187 L45.1328466,40.3389187 L40.0447786,40.3389187 L40.0447786,35.2666695 L40.0447786,5.07112817 L40.0447786,0 L45.1328466,0 L132.635396,0 L137.722714,0 L137.722714,5.07112817 L137.722714,35.2666695 L137.722714,40.3389187 L132.635396,40.3389187 L117.261731,40.3389187 L117.261731,158.934286 L132.635396,158.934286 L137.722714,158.934286 L137.722714,164.005377 L137.722714,194.208466 L137.722714,199.279183 L137.722714,199.279183 Z M132.635396,194.208466 L132.635396,164.005377 L112.173663,164.005377 L112.173663,35.2666695 L132.635396,35.2666695 L132.635396,5.07112817 L45.1328466,5.07112817 L45.1328466,35.2666695 L65.8581112,35.2666695 L65.8581112,164.005377 L45.1328466,164.005377 L45.1328466,194.208466 L132.635396,194.208466 L132.635396,194.208466 Z" id="path16" fill="#FFFFFF"></path>
                        <polyline id="path18" fill="#BA9458" points="130.338587 33.004203 130.338587 7.38904751 47.4030403 7.38904751 47.4030403 33.004203 68.0683263 33.004203 68.0683263 166.344932 47.4030403 166.344932 47.4030403 191.960461 130.382071 191.960461 130.382071 166.344932 109.951077 166.344932 109.951077 33.004203 130.338587 33.004203"></polyline>
                        <path d="M89.4181192,125.183563 C89.5080872,125.232514 89.6108007,125.247087 89.7045175,125.294543 C89.8113545,125.336768 89.8705835,125.398797 89.9781703,125.439901 C89.7866133,125.36442 89.5976804,125.279223 89.4181192,125.183563 L89.4181192,125.183563 Z M175.526914,75.6953067 C175.27013,79.3699885 173.06029,81.6676922 172.11525,82.6485789 C171.879459,82.8937072 171.751254,83.0513964 171.473853,83.2490684 C171.473853,83.2490684 169.665495,84.5214186 168.939003,85.032227 C169.994628,86.7963284 170.691881,88.8272309 170.691881,91.3603475 C170.691881,92.4727664 170.589167,93.6528198 170.388613,94.9102231 C170.38449,94.9162019 170.038113,96.8749859 170.038113,96.8749859 C169.686488,98.7388575 169.435327,100.247741 169.435327,101.453204 C169.435327,102.555161 169.647876,103.405636 170.18731,104.046482 C171.00377,105.013917 171.434867,106.224985 171.434867,107.456231 C171.434867,107.920331 171.375638,108.382935 171.251182,108.839188 C170.79347,110.513235 169.550411,111.860693 167.908119,112.44362 C159.95232,115.284267 155.467413,109.952728 153.779762,107.941256 C153.779762,107.941256 152.043753,106.173044 150.525168,104.630904 C151.877312,106.76494 153.111749,108.910559 154.186118,110.822634 L154.613466,111.576703 C157.126948,116.055525 157.874433,118.887204 159.114867,123.577151 L159.234825,124.022567 C159.747642,125.969393 160.273206,128.929616 160.273206,131.607343 C160.273206,131.769516 160.268707,131.927206 160.264209,132.082653 C160.170492,135.752103 158.166079,138.785939 154.758539,140.41365 C149.965866,142.712475 144.866177,139.284416 139.167826,129.91125 C137.499294,127.178219 136.405432,124.599515 135.404538,121.863495 C135.01655,122.045473 132.861066,123.058869 132.861066,123.058869 C132.152193,123.396294 131.373219,123.572667 130.586749,123.572667 C130.566506,123.572667 130.52752,123.564072 130.505777,123.564072 C130.317594,123.721761 130.18939,123.892529 129.979089,124.04125 C126.902557,126.2205 124.350463,125.862897 123.259601,125.70745 C120.903188,125.535187 117.317211,124.152231 115.620189,123.021128 C115.328542,122.826819 115.051141,122.494252 114.78686,122.310779 C114.78686,123.299887 114.734753,128.383682 114.734753,128.383682 L117.397808,135.677743 C117.607733,136.248338 117.706698,136.815571 117.706698,137.36711 C117.706698,139.250786 116.555857,140.938285 114.696142,141.878441 C114.696142,141.878441 114.559316,141.943834 114.466349,141.995027 C113.29414,142.996465 111.896261,143.534925 110.301578,143.168728 L106.352355,142.259212 C104.192372,141.573152 102.580445,140.599739 101.435226,139.284416 C100.49506,138.213101 100.027976,136.802493 100.14381,135.379179 C100.203789,134.63109 100.114196,133.921862 99.8536631,132.992542 C99.8491647,132.981705 98.6136035,129.577188 98.6136035,129.577188 L98.3834352,128.98903 C98.3834352,129.001361 98.3879336,129.005471 98.3879336,129.00435 C98.3879336,128.980061 97.7202957,127.208113 97.41253,126.397994 C97.0620295,126.461518 96.7546387,126.65209 96.3951414,126.681237 C94.1590605,126.849762 91.8078955,126.336712 89.7045175,125.294543 C86.0495655,123.821532 83.6466688,121.717016 81.9237807,119.476857 C81.7824559,119.684245 81.6842408,119.916295 81.5136763,120.103878 C78.9863239,122.907906 74.7289609,124.463125 70.0517469,121.49356 C69.5471761,122.157574 68.7610803,122.356367 67.2170036,122.294338 L62.4415746,122.103018 L62.065958,121.978959 C62.0535874,121.974475 57.4577195,119.98505 57.4577195,119.98505 C56.4744437,119.558691 55.7899368,118.889446 55.3288506,118.09689 C54.1997516,118.326698 53.0796494,118.534085 51.9513001,118.162656 C51.0872319,118.658891 50.245281,119.209309 49.2065249,119.385682 C44.9180479,120.125177 42.2553685,118.41451 40.1092557,117.037906 L39.5405826,116.673203 C39.1810853,116.451242 38.9033089,116.132127 38.5704272,115.876162 C39.2541843,120.273898 39.9803014,124.327482 40.7843909,127.593368 C40.8188786,127.748815 42.1953898,133.356871 42.1953898,133.356871 L44.5514281,143.835731 C44.6406464,144.238548 44.6837561,144.641366 44.6837561,145.035589 C44.6837561,146.69282 43.8976602,148.224872 42.4652939,149.218089 C40.6906742,150.447841 38.4122333,150.355918 36.6036881,149.182591 L29.4768316,144.562521 L24.1928207,141.002556 C24.094718,140.938285 23.9241161,140.814226 23.8296872,140.744349 L22.1405745,139.4365 C17.211675,135.638881 15.3995685,133.484667 15.3995685,129.487507 C15.3995685,127.865774 15.6990122,125.941742 16.2071442,123.478501 C16.2071442,123.478501 16.4509576,122.213251 16.6522986,121.152772 C16.5615059,121.122131 16.4634032,121.132968 16.3740724,121.096348 C16.0614335,122.20092 15.7033981,123.459818 15.7033981,123.459818 C15.0913155,125.618516 13.2059975,127.07957 10.961932,127.22717 C8.71711671,127.373649 6.64365308,126.019091 5.75480625,123.960537 L0.431974089,111.645458 C0.145700256,110.975839 0,110.263622 0,109.548416 C0,108.768938 0.171325781,107.98647 0.517638667,107.264164 C6.58359941,94.6139019 15.4932852,80.0971525 19.0420749,74.4468714 C19.5377239,73.6513256 20.2384251,73.0045009 21.0723539,72.568053 L22.7226303,71.7018834 C23.0601604,71.5228949 23.4409127,71.5348524 23.8040463,71.4309718 C23.6590852,70.944452 23.5089885,70.4515798 23.5089885,69.9422661 C23.5089885,68.8343312 23.8552906,67.7222859 24.5647636,66.7761506 C26.1637957,64.6365098 29.1136981,64.0188314 31.4434207,65.3356485 C36.0048008,67.9184633 40.7127913,69.9538499 46.7016644,71.9391645 C51.6041734,73.5650076 58.4747334,75.5357491 62.766959,76.2771126 C76.2254294,78.5994786 87.0920702,79.6139957 96.9630647,79.469385 C109.121497,79.2915176 117.748308,78.6402088 128.493117,75.7042748 C133.442484,74.3512116 136.059055,73.0878296 141.796393,70.3189266 L145.156324,68.6751473 C148.927485,66.8060443 151.903178,65.3266804 156.673734,64.0644193 C160.088771,63.1519144 164.941423,63.2942831 167.703067,64.3854028 C169.601018,65.1290083 172.067642,66.0990586 173.991834,69.2408854 C175.009972,70.8969958 175.55203,72.8923996 175.55203,74.9240495 C175.55203,75.1796405 175.543033,75.4393419 175.526914,75.6953067 L175.526914,75.6953067 Z" id="path20" fill="#FFFFFF"></path>
                        <path d="M35.5559727,128.929616 C32.1067477,114.958053 30.4945577,94.4285611 29.6525692,80.2978139 C28.5103874,79.5351511 26.8051929,77.0887263 25.1292756,76.4568484 L23.4789617,77.3237654 C17.2248328,87.2865849 10.0123192,99.67453 5.24592447,109.616424 L10.5680219,121.93225 C11.7226493,118.285968 13.7236512,110.108922 15.0312993,106.535879 C17.4342334,99.8665969 19.8540366,91.5202787 23.7227751,84.7826147 L24.1422886,85.0146645 C24.350977,93.559402 26.527679,108.760343 27.5571009,123.981463 C26.5320649,123.157518 23.6070912,117.14216 22.6413592,117.815889 C20.1791211,132.534421 18.2894172,129.801017 27.0445829,136.642561 C32.5336086,140.234662 35.0815412,142.255102 39.224195,144.681722 C38.5359394,140.064642 36.5268404,133.42899 35.5559727,128.929616" id="path22" fill="#231F20"></path>
                        <path d="M46.7998796,108.114266 C45.0593727,108.163217 43.6873599,106.449561 42.6527274,105.589744 C40.2966891,103.334639 38.0403654,99.1099129 39.0577541,95.8458956 C40.0837647,93.277654 41.763918,93.9214893 43.2603866,94.1987533 C46.2829381,95.5473324 48.0226953,101.114658 48.4924035,104.057319 C48.4545419,105.442517 49.4723055,107.771236 46.7998796,108.114266 L46.7998796,108.114266 Z M95.5355716,116.839487 C91.9792096,116.438911 89.3367731,112.661096 87.7379659,109.557384 C86.7247007,106.835563 85.7931565,103.750908 89.0544983,103.098105 C90.9404535,102.796179 93.4884236,105.017653 94.839069,107.341514 C95.9760402,109.982622 99.4994139,115.912409 95.5355716,116.839487 L95.5355716,116.839487 Z M122.879486,114.645663 C120.305275,114.410624 112.960883,107.304147 113.87181,104.057319 C114.760619,101.176688 118.859788,102.51742 119.958898,103.458697 C121.506723,104.867438 123.439537,108.204321 124.597126,111.794179 C124.935256,113.905421 124.166029,114.994299 122.879486,114.645663 Z M149.996605,129.285351 C146.47773,125.353583 141.800141,113.338562 140.983681,107.39196 C145.874569,111.838646 151.625027,123.472896 149.996605,129.285351 Z M154.027924,125.439901 C152.736132,120.563867 152.162961,118.247853 149.905888,114.233878 C147.653687,110.221397 144.796827,104.951887 141.466885,101.543633 C141.415528,100.433082 141.518991,99.6446363 141.843251,98.4959712 C142.146893,97.4115776 142.822778,96.405655 143.557142,95.7606986 C145.015749,94.479754 146.695903,95.012609 147.674305,95.4176685 C149.63261,96.2247981 150.41908,97.215774 151.877312,98.5815419 C154.710931,101.234233 156.096814,102.596264 157.789713,104.606989 C159.849981,107.062008 161.999468,108.968852 166.053653,107.523866 C162.774318,103.633202 164.351382,98.5535166 165.069627,94.1322399 C165.787872,89.7176892 165.651796,85.9589314 158.939055,84.7082541 C158.593427,83.5988246 159.144107,82.9994561 159.926079,82.6265323 C160.714049,82.2543559 161.761052,82.2068997 162.346594,82.0764884 C163.89442,81.7342057 164.839084,81.366887 165.694156,80.8796198 C166.544729,80.391979 167.246104,79.8430561 168.096303,79.1678324 C168.827668,78.405917 170.029116,77.2464155 170.156571,75.4057115 C170.246539,74.0657269 169.89229,72.8834315 169.392217,72.0703231 C168.36958,70.4063656 167.211242,69.9788858 165.685159,69.3772753 C164.154952,68.7745438 160.546859,68.564167 157.972648,69.2494798 C152.689274,70.6514939 149.905888,72.3274088 144.587276,74.8941558 C138.298885,77.928739 135.417658,79.3520523 129.829892,80.8796198 C118.116802,84.0819813 108.70352,84.6634136 96.976185,84.834555 C85.2499744,85.0045753 73.2456127,83.5405319 61.7923052,81.563438 C57.3291402,80.7933018 50.3821074,78.8300337 44.957034,77.033423 C39.5368339,75.2349438 34.2519983,73.1199653 28.754913,70.0121426 C34.9878245,75.9976066 42.7554409,80.0298917 50.9635259,82.9818936 C59.1674873,85.9335218 67.8122922,87.8026247 75.7800876,89.4535037 C88.3793631,92.3916798 100.746971,92.0378132 112.968755,90.031573 C125.195413,88.0186066 131.885662,85.1562858 142.869636,80.7092258 C146.045883,79.4219288 151.625027,75.91652 154.45977,74.4057676 C157.917917,72.5639427 161.683455,72.1024588 163.774462,74.0788054 C164.77948,75.0290511 164.705632,76.055152 164.364503,77.0666797 C164.026373,78.0819441 163.32987,78.9802495 162.419693,79.5366458 C160.743289,80.6471964 157.95203,81.0503875 155.455417,81.8339759 C152.95393,82.6142012 152.286667,83.7789341 151.769726,86.4043474 C152.594433,87.7163067 152.154339,87.2436127 153.339668,86.7413987 C154.51825,86.2335797 155.771804,85.6883935 156.891907,86.8434109 C157.874433,88.4520651 158.080235,90.2393341 157.977146,92.0400552 C157.874433,93.8381607 157.870309,95.7707877 157.195174,97.3114338 C156.857044,98.0718545 154.98121,96.1881784 154.10852,95.3313505 C153.176976,94.4162299 153.014659,94.2585407 151.796341,93.1932043 C149.734573,91.3992093 149.820793,91.1395078 147.464755,90.3738557 C145.498953,89.7330097 144.417462,89.6855535 142.270599,90.9687401 C140.820989,91.8378992 140.103494,92.6341923 139.265292,94.1344819 C138.41097,95.6751279 138.205918,97.1047936 137.542403,98.5878943 C135.867123,97.6507272 136.409931,97.6675424 134.631562,96.7019762 C132.75048,95.6751279 130.770058,95.4176685 128.800508,95.5899309 C127.589313,95.6919431 125.786953,96.5102829 124.987362,97.2135319 C124.19227,97.9186493 123.90962,98.5535166 123.028683,99.1674582 C121.524342,98.2870891 120.168823,97.8166371 118.591009,97.3005973 C117.013944,96.7853048 115.491235,96.4187335 113.785965,96.9583146 C112.156794,97.471365 111.02807,98.6857962 110.310574,99.6513623 C110.310574,99.6513623 108.433241,102.589538 109.40827,103.628718 C107.608909,101.702817 105.154656,100.00224 103.278072,98.754178 C101.674766,97.6843576 99.9436312,96.3525937 97.3607984,96.5741806 C96.5267196,96.8581707 96.1634736,97.5479676 95.9629199,98.3005412 C95.7616163,99.0587199 95.2323043,99.954036 95.5573139,100.41963 C94.6246451,99.063204 92.9324961,97.7419029 90.4951117,97.0562164 C88.0967135,96.3809927 85.6218424,95.9460395 83.9240703,97.3734632 L82.8646965,98.6943906 L82.3338851,100.173007 C80.568637,99.6558464 79.2389842,99.0164951 76.8068479,97.8166371 C75.1776765,97.0087602 72.6855615,94.7360924 72.1719939,95.930719 C71.9414508,96.4766525 72.0351675,97.2370732 72.087274,98.3259509 C72.1378811,99.4170705 72.4077852,101.326156 72.582848,102.55105 C72.8433805,104.343177 73.0105711,105.823288 73.0105711,107.829155 C73.0105711,109.616424 73.4285477,111.210131 71.5096042,111.135023 L69.9662773,110.745284 L68.8679173,110.172446 C67.5161474,109.401189 66.2007396,108.858245 65.695419,104.027425 C65.4303881,101.492066 65.4817449,101.756252 64.9003264,99.3273895 C64.391632,97.2094216 64.0962369,97.2135319 63.0451102,94.9416115 C62.7287226,94.2540566 61.4504266,92.9009935 60.0784138,92.3019987 C58.4878537,91.6077178 57.932301,91.4836589 56.2131615,91.3136386 C55.5886333,91.2516092 52.7846291,90.8020828 50.895675,91.9100177 C49.7841947,92.5684262 48.5223928,91.3050441 47.8041479,90.7124017 C47.0904014,90.1249907 46.2484504,89.3425234 45.2430574,88.8806659 C43.7128509,88.1733065 42.0881779,87.6961284 40.4087743,87.8915584 C38.7327445,88.0899778 36.8387296,88.6579579 35.6291842,90.290527 C33.9269137,92.5960779 33.543275,96.7019762 34.2607702,99.4402382 C34.9446398,102.062662 35.3553814,103.486723 36.7362036,106.024323 C37.8521822,108.074283 40.1606124,110.911942 42.3153472,112.265005 C44.4655836,113.622552 45.7438796,114.662479 48.2363694,114.233878 C49.5997602,113.997344 50.2842671,113.147242 50.5530467,112.435772 C50.8180775,111.729908 50.9803949,111.154828 51.8399646,111.240399 C52.8022479,111.335685 52.4213831,112.827753 53.5546057,113.206282 C54.2765993,113.451411 55.8330465,112.697716 56.4703202,111.753449 C55.4780476,109.390726 54.6184779,107.38075 53.8623714,104.933204 C52.3100477,99.9002273 53.5928421,97.4115776 53.9815791,96.6175265 C54.5678708,95.4176685 56.3799773,95.8458956 57.2432957,96.3335364 C59.1761093,97.4224141 59.3725395,98.8177021 59.7575278,100.173007 C60.2875895,102.022679 60.3434447,103.183675 60.5016385,106.351659 C60.6463371,109.287967 60.9334852,112.695474 59.9888207,115.429252 C61.0403222,116.017037 62.2072828,116.5966 63.4469675,116.945983 C64.6821539,117.295739 64.5708184,117.531899 65.9049696,117.210168 C66.2131102,116.509535 66.4350314,115.861589 66.371304,114.994299 C66.3154488,114.26975 66.2768375,112.953307 67.196386,112.996279 C68.8465499,113.068398 70.4059961,115.351902 72.0917724,116.711691 C73.771176,118.069238 75.5409225,118.795281 77.4951035,116.62911 C78.0720236,115.32425 78.1874826,114.016401 78.0975146,112.707805 C78.0120449,111.395846 77.7211482,110.082765 77.4906051,108.760343 C77.2087052,107.439416 77.1655955,105.905122 77.1487265,104.826334 C77.1356062,103.747919 77.3192909,103.200491 78.6062089,103.200491 C82.7915975,103.200491 81.9282791,108.114266 83.7242663,112.311714 C85.2837125,115.957249 87.3233631,118.833396 91.8247645,120.563867 C93.0475802,121.205086 94.5009391,121.572405 95.9205599,121.465161 C97.339431,121.356423 98.7204406,120.781343 99.7981828,119.530292 C100.707985,120.421498 101.277033,121.671802 101.768858,123.026733 C102.259559,124.382038 102.671163,125.835245 103.260453,127.120674 C103.914971,128.780147 104.504261,130.216539 104.898247,131.614069 C105.295231,133.007115 105.492036,134.369146 105.372828,135.873173 C105.91601,136.497951 106.860675,136.948972 107.9163,137.286397 C108.971925,137.624943 110.135512,137.849146 111.118787,138.01244 L111.439299,137.618217 L112.230268,137.217641 C110.776909,132.216801 108.4801,127.292936 106.625633,122.315263 C104.769292,117.335722 102.884837,112.292656 101.306272,107.051172 C101.268411,106.390521 100.892794,105.340132 100.862055,104.52366 C100.831691,103.706068 101.152577,103.115667 102.50847,103.3735 C106.81794,104.334583 109.37903,109.13252 112.401582,112.953307 C115.073258,116.328678 116.158123,117.121235 118.50179,118.682806 C119.531925,119.368866 122.281198,120.393846 123.481147,120.479043 C124.341467,120.538831 125.195413,120.947627 126.828708,119.795225 C128.226587,118.802007 127.743383,117.427645 128.458629,117.14216 C129.96297,116.537187 129.312951,118.341271 130.518898,118.341271 L132.056976,117.610744 L133.434987,116.971393 L129.312951,109.616424 L127.944687,106.024323 C127.718267,105.005322 126.952414,102.267808 128.325927,101.06795 C129.466646,100.075479 131.754084,100.305287 132.473079,100.531358 C134.105624,101.044408 136.520516,102.859703 136.999221,105.687646 C137.598259,109.203144 137.914271,112.865494 138.996512,116.357825 C140.308546,120.592266 141.442143,123.61377 143.642987,127.232775 C145.84533,130.858132 150.154799,136.776709 152.393504,135.70091 C153.714535,135.072022 154.834637,134.004817 154.882245,132.022865 C154.934352,129.982247 154.522748,127.32283 154.027924,125.439901 L154.027924,125.439901 Z" id="path24" fill="#231F20"></path>
                    </g>
                </g>
            </g>
        </g>
    </g>
</svg>