<?xml version="1.0" encoding="UTF-8"?>
<svg width="200px" height="200px" viewBox="0 0 200 200" version="1.1" xmlns="http://www.w3.org/2000/svg" xmlns:xlink="http://www.w3.org/1999/xlink">
    <!-- Generator: Sketch 54.1 (76490) - https://sketchapp.com -->
    <title>illinois</title>
    <desc>Created with Sketch.</desc>
    <g id="illinois" stroke="none" stroke-width="1" fill="none" fill-rule="evenodd">
        <g id="illinois_BGL">
            <g id="illinois" transform="translate(26.000000, 0.000000)">
                <g id="g10" transform="translate(73.818322, 99.596410) scale(-1, 1) rotate(-180.000000) translate(-73.818322, -99.596410) translate(0.000000, 0.032187)" fill-rule="nonzero">
                    <g id="g12">
                        <path d="M107.186484,45.9376583 L130.154777,45.9376583 L130.154777,7.65809112 L7.65436333,7.65809112 L7.65436333,45.9376583 L30.6251503,45.9376583 C34.8498915,45.9376583 38.279594,49.3664222 38.279594,53.5943817 L38.279594,145.467017 C38.279594,149.696317 34.8498915,153.12374 30.6251503,153.12374 L7.65436333,153.12374 L7.65436333,191.403334 L130.154777,191.403334 L130.154777,153.12374 L107.186484,153.12374 C102.956781,153.12374 99.5297605,149.696317 99.5297605,145.467017 L99.5297605,53.5943817 C99.5297605,49.3664222 102.956781,45.9376583 107.186484,45.9376583 Z M137.808952,145.467017 L137.808952,199.060057 L0,199.060057 L0,145.467017 L30.6251503,145.467017 L30.6251503,53.5943817 L0,53.5943817 L0,0 L137.808952,0 L137.808952,53.5943817 L107.186484,53.5943817 L107.186484,145.467017 L137.808952,145.467017 L137.808952,145.467017 Z" id="path14" fill="#192847"></path>
                        <path d="M107.186484,153.12374 L130.154777,153.12374 L130.154777,191.403334 L7.65436333,191.403334 L7.65436333,153.12374 L30.6251503,153.12374 C34.8498915,153.12374 38.279594,149.696317 38.279594,145.467017 L38.279594,53.5943817 C38.279594,49.3664222 34.8498915,45.9376583 30.6251503,45.9376583 L7.65436333,45.9376583 L7.65436333,7.65809112 L130.154777,7.65809112 L130.154777,45.9376583 L107.186484,45.9376583 C102.956781,45.9376583 99.5297605,49.3664222 99.5297605,53.5943817 L99.5297605,145.467017 C99.5297605,149.696317 102.956781,153.12374 107.186484,153.12374" id="path16" fill="#E73832"></path>
                        <path d="M143.723805,2.95544158 L142.742242,2.95544158 L142.742242,0.415689009 L142.284984,0.415689009 L142.284984,2.95544158 L141.303422,2.95544158 L141.303422,3.41267267 L143.723805,3.41267267 L143.723805,2.95544158 Z M147.515961,0.415689009 L147.058703,0.415689009 L147.058703,2.95544158 L147.046635,2.95544158 L146.020822,0.415689009 L145.741908,0.415689009 L144.742913,2.95544158 L144.730845,2.95544158 L144.730845,0.415689009 L144.273587,0.415689009 L144.273587,3.41267267 L145.021827,3.41267267 L145.884046,1.29803318 L146.775766,3.41267267 L147.515961,3.41267267 L147.515961,0.415689009 L147.515961,0.415689009 Z" id="path18" fill="#192847"></path>
                    </g>
                </g>
            </g>
        </g>
    </g>
</svg>