<?xml version="1.0" encoding="UTF-8"?>
<svg width="200px" height="200px" viewBox="0 0 200 200" version="1.1" xmlns="http://www.w3.org/2000/svg" xmlns:xlink="http://www.w3.org/1999/xlink">
    <!-- Generator: Sketch 54.1 (76490) - https://sketchapp.com -->
    <title>massachusetts</title>
    <desc>Created with Sketch.</desc>
    <g id="massachusetts" stroke="none" stroke-width="1" fill="none" fill-rule="evenodd">
        <g id="massachusetts_BGL">
            <g id="massachusetts" transform="translate(0.000000, 18.000000)">
                <g id="g10" transform="translate(99.889987, 81.944998) scale(-1, 1) rotate(-180.000000) translate(-99.889987, -81.944998) translate(0.000000, 0.316837)" fill-rule="nonzero">
                    <g id="g12">
                        <path d="M199.486464,105.075905 L180.486244,105.075905 L192.295265,163.24444 L47.7306919,163.24444 L38.4584809,119.206598 L15.6689985,119.206598 L9.59053881,89.8996677 L13.463278,89.8996677 L10.1055223,74.1878969 L6.42807465,74.1795361 L0,44.9852574 L31.7101422,44.9852574 L31.2254338,42.7269076 L31.2187011,42.6943884 C28.8130686,31.2185251 31.2554888,19.9295045 37.9200871,11.723212 C44.0598449,4.16322982 53.0481835,0 63.2286013,0 L115.168314,0 C124.670184,0 134.368313,4.32601089 142.475684,12.1812978 C149.811657,19.2883604 155.167873,28.6313744 157.174914,37.82935 L158.707587,44.9949384 L174.270623,44.9949384 C182.111327,44.9949384 189.376013,50.923211 191.169192,58.7841569 L193.585914,70.2600643 C194.055441,72.5667749 194.04928,74.8897671 193.588994,77.0644645 L199.486464,105.075905" id="path14" fill="#FFFFFF"></path>
                        <path d="M189.95203,79.0217802 L194.604176,101.115509 L167.478104,101.115509 C167.206596,101.115509 166.931569,101.104508 166.655661,101.088226 L168.318588,108.863804 L177.212317,108.863804 L187.44862,159.284044 L50.942573,159.284044 L41.670274,115.246202 L18.8906046,115.246202 L14.4550931,93.8600637 L18.3582394,93.8600637 L13.3089106,70.2349817 L9.61117688,70.2261809 L4.92576445,48.9456533 L33.6520124,48.9456533 L37.7177988,67.8816265 C38.3909341,66.3524736 39.0561486,64.8492833 39.7077658,63.3808565 L35.1046856,41.9361926 L35.0935085,41.8817151 C32.9336845,31.5788331 35.0836955,21.4961491 40.9928703,14.2199336 C46.3656754,7.60484029 54.2613848,3.96039594 63.2268411,3.96039594 L115.166554,3.96039594 C133.448622,3.96039594 149.644441,21.9018256 153.300326,38.6578648 L155.503186,48.9553343 L174.269303,48.9553343 C180.210777,48.9553343 185.936629,53.6602847 187.306486,59.665125 L189.703846,71.0495032 C190.286024,73.9124294 189.927828,76.7199101 188.724748,79.0217802 L189.95203,79.0217802" id="path16" fill="#231F20"></path>
                        <polyline id="path18" fill="#9A182F" points="122.522769 153.478104 111.477225 101.115509 117.411218 101.115509 127.23212 147.671723 173.2418 147.671723 167.720128 120.475685 158.927609 120.475685 154.786355 101.115509 160.723868 101.115509 163.623318 114.669744 172.466442 114.669744 180.34499 153.478104 122.522769 153.478104"></polyline>
                        <polyline id="path20" fill="#9A182F" points="55.6532439 153.478104 47.4825071 114.669744 56.6552241 114.669744 52.8805267 97.0829459 61.1005485 107.712209 63.8402624 120.475685 54.6380624 120.475685 60.3639149 147.671723 106.783276 147.671723 96.9628139 101.115509 102.896367 101.115509 113.942351 153.478104 55.6532439 153.478104"></polyline>
                        <polyline id="path22" fill="#9A182F" points="105.146752 42.9747844 106.408358 48.9553343 85.9599538 48.9553343 84.6983477 42.9747844 105.146752 42.9747844"></polyline>
                        <path d="M145.426179,48.9553343 L145.552032,49.552034 C144.93245,49.3513739 144.299666,49.2008789 143.659842,49.1001088 L141.955552,41.1336403 C139.501427,29.887392 127.846421,15.5730689 115.166554,15.5730689 L63.2268411,15.5730689 C50.5482936,15.5730689 43.800879,26.8203294 46.4585247,39.4992729 L50.8998887,60.1896575 L44.6895478,52.1966984 L43.7151144,54.383277 L40.7759286,40.690472 C38.9763687,32.1068859 40.6982168,23.7927827 45.5001089,17.8798675 C49.7487336,12.6486686 56.044443,9.76673243 63.2268411,9.76673243 L115.166554,9.76673243 C130.422439,9.76673243 144.518368,25.6458079 147.633,39.9190309 L149.566113,48.9553343 L145.426179,48.9553343" id="path24" fill="#9A182F"></path>
                        <path d="M120.669304,101.115509 L120.462043,87.9238702 L121.03322,90.6521429 C122.483165,97.4552231 129.350932,101.115509 135.077224,101.115509 L154.786355,101.115509 L158.927609,120.475685 L167.720128,120.475685 L173.2418,147.671723 L127.23212,147.671723 L117.411218,101.115509 L120.669304,101.115509" id="path26" fill="#FFFFFF"></path>
                        <path d="M141.868423,48.9553343 L106.408358,48.9553343 L105.146752,42.9747844 L84.6983477,42.9747844 L85.9599538,48.9553343 L79.4908671,48.9553343 L79.4886669,48.9456533 L51.1097897,48.9456533 L54.4809667,64.7986782 L50.8998887,60.1896575 L46.4585247,39.4992729 C43.800879,26.8203294 50.5482936,15.5730689 63.2268411,15.5730689 L115.166554,15.5730689 C127.846421,15.5730689 139.501427,29.887392 141.955552,41.1336403 L143.659842,49.1001088 C143.067543,49.0063794 142.469523,48.9553343 141.868423,48.9553343" id="path28" fill="#FFFFFF"></path>
                        <polyline id="path30" fill="#FFFFFF" points="61.1005485 107.712209 66.927171 115.246202 93.3619339 115.246202 88.9302508 93.8776654 85.231681 93.8613838 80.2688649 70.2429025 81.0992279 70.2429025 93.1586335 101.115509 96.9628139 101.115509 106.783276 147.671723 60.3639149 147.671723 54.6380624 120.475685 63.8402624 120.475685 61.1005485 107.712209"></polyline>
                        <polyline id="path32" fill="#B9B7B8" points="154.783715 101.115509 158.925409 120.475685 167.718368 120.475685 173.23916 147.671723 142.980414 134.226619 135.875024 101.115509 154.783715 101.115509"></polyline>
                        <path d="M141.868423,48.9553343 L124.681185,48.9553343 L123.216279,42.1294159 C121.988996,36.5061377 116.161493,29.3486901 109.822219,29.3486901 L73.8341016,29.3486901 C70.467765,29.3486901 67.9493932,30.9434976 66.5157299,33.3795811 L48.3938382,23.9291083 C51.2268414,18.8818477 56.3515938,15.5730689 63.2242008,15.5730689 L115.164354,15.5730689 C127.843781,15.5730689 139.498786,29.887392 141.952912,41.1336403 L143.656762,49.0996687 C143.065783,49.0063794 142.468203,48.9553343 141.868423,48.9553343" id="path34" fill="#B9B7B8"></path>
                        <polyline id="path36" fill="#B9B7B8" points="93.3619339 115.246202 88.9302508 93.8776654 85.231681 93.8613838 80.2688649 70.2429025 81.0992279 70.2429025 93.1586335 101.115509 96.9614937 101.115509 106.781075 147.671283 85.4402619 134.226619 81.3570937 115.246202 93.3619339 115.246202"></polyline>
                        <path d="M85.9599538,48.9553343 L67.0943878,48.9456533 L65.4525836,41.3122102 C64.8277212,38.3388329 65.2519236,35.5321883 66.5174901,33.3809453 L84.9166095,42.9747844 L84.6983477,42.9747844 L85.9599538,48.9553343" id="path38" fill="#B9B7B8"></path>
                        <path d="M191.655881,98.72431 L167.478104,98.72431 C164.34103,98.72431 160.856762,97.3826158 158.470403,94.9918568 L159.255882,98.72431 L135.077224,98.72431 C130.221779,98.72431 124.517049,95.5247501 123.373814,90.162814 L121.267764,80.0963676 C120.591856,77.0059387 121.190756,74.008799 122.910008,71.8723854 C123.978435,70.5447727 125.415178,69.6479631 127.069304,69.2506033 L119.753132,69.2506033 L118.877005,65.0970281 L117.712648,65.0970281 L118.240261,98.72431 L94.7920768,98.72431 L81.6052785,64.965895 L80.540372,64.965895 L81.1709551,67.8525836 L77.3227703,67.8525836 L83.2893269,96.243782 L86.981736,96.2600636 L90.4237601,112.854563 L68.1007684,112.854563 L51.1951582,90.9949372 L43.0956205,112.854563 L20.8369632,112.854563 L17.3934429,96.2512627 L21.3148069,96.2512627 L15.244268,67.847303 L11.5337731,67.8389422 L7.90068187,51.3364124 L31.7197792,51.3364124 L36.9380849,75.6396021 C39.220109,70.367875 45.2497238,56.8149601 45.2497238,56.8149601 L58.9878973,74.4972479 L54.063365,51.3364124 L94.1029679,51.3474135 L97.7293705,61.765895 L100.834321,61.765895 L99.7795355,51.3474135 L115.974475,51.3474135 L118.273264,51.3474135 L141.868423,51.3474135 C144.43256,51.3474135 146.994056,52.4915278 148.998896,54.303189 L148.374914,51.3474135 L174.269303,51.3474135 C179.059181,51.3474135 183.861822,55.3166103 184.982614,60.2358621 L187.361051,71.5269509 C187.952031,74.4352017 187.365892,77.2356416 185.752691,79.2105591 C184.914847,80.2354215 183.839819,80.9821762 182.609456,81.4134193 L188.012317,81.4134193 L191.655881,98.72431" id="path40" fill="#FFFFFF"></path>
                        <path d="M104.073925,71.7394922 L98.4690844,71.7394922 L104.535091,88.9482926 L104.93069,88.9482926 L104.073925,71.7394922 Z M115.810778,96.3331109 L96.4246401,96.3331109 L83.2382817,62.5742559 L80.0074787,62.5742559 L78.1601741,53.7381725 L92.403078,53.7381725 L96.0294805,64.1570941 L103.480305,64.1570941 L102.42552,53.7381725 L116.337951,53.7381725 L118.249942,62.7049489 L115.283605,62.7049489 L115.810778,96.3331109 L115.810778,96.3331109 Z" id="path42" fill="#9A182F"></path>
                        <path d="M147.605277,79.4530233 L135.539271,79.4530233 L137.253242,87.5643542 L144.044881,87.5643542 L143.252802,83.8054985 L153.671723,83.8054985 L156.308907,96.3331109 L135.077224,96.3331109 C131.055662,96.3331109 126.572054,93.6950472 125.714408,89.6734851 L123.604397,79.5850365 C122.681185,75.3650146 124.791196,71.4094592 129.077224,71.4094592 L140.616058,71.4094592 L138.703627,62.7049489 L132.175574,62.7049489 L133.099227,66.8589642 L121.692406,66.8589642 L118.923209,53.7381725 L141.868423,53.7381725 C145.560392,53.7381725 149.385695,56.9694155 150.24246,60.7287114 L152.617378,72.0026385 C153.407257,75.8930674 151.495266,79.4530233 147.605277,79.4530233" id="path44" fill="#9A182F"></path>
                        <path d="M85.0341013,98.6424618 L87.4855864,110.462483 L69.2748057,110.462483 L50.4501638,86.1227701 L41.4316821,110.462483 L22.7831017,110.462483 L20.3317487,98.6424618 L24.2711985,98.6424618 L17.1794055,65.4609445 L13.4571174,65.4521436 L10.8759513,53.7280515 L29.78737,53.7280515 L36.179185,83.4961475 C39.2433434,76.2297011 42.570296,68.6992282 45.8090198,61.4327817 L63.496148,84.1962575 L57.0169403,53.7280515 L75.6382819,53.7280515 L78.2006581,65.4609445 L74.3762358,65.4609445 L81.3460926,98.6257401 L85.0341013,98.6424618" id="path46" fill="#9A182F"></path>
                        <polyline id="path48" fill="#51232C" points="72.0668849 104.499007 48.2182606 73.7232105 50.4506038 86.12145 41.4316821 110.461603 35.5141465 104.492847 33.0725624 104.492847 23.4244219 59.5388324 17.7100546 59.5388324 10.8768314 53.7276114 29.787722 53.7276114 36.179361 83.4948274 35.5423093 104.32519 48.0087997 73.3368519 45.8090198 61.4319017 63.496148 84.1949374 75.0231004 104.32519 65.6576441 59.8583043 57.0169403 53.7276114 75.6035185 53.7276114 78.1676548 65.4596243 74.3762358 65.4596243 81.4222202 98.6332209 85.0323411 98.6411416 87.4847063 110.461603 80.6076988 104.499007 72.0668849 104.499007"></polyline>
                        <path d="M104.92541,88.9482926 L104.52937,88.9482926 L98.4633639,71.738172 L91.3975775,67.946753 L109.402418,67.946753 L110.385036,91.7883365 L104.92541,88.9482926 Z M115.805058,96.3335509 L115.278325,62.7040688 L118.245102,62.7040688 L116.33311,53.7364123 L102.419359,53.7364123 L108.971614,58.1161702 L109.443342,67.8209004 L103.474585,64.1548939 L96.0233199,64.1548939 L92.3964773,53.7364123 L78.1531334,53.7364123 L83.4094589,58.1773363 L87.6492827,58.1773363 L100.12277,91.9383915 L110.446202,91.9383915 L115.805058,96.3335509 L115.805058,96.3335509 Z" id="path50" fill="#51232C"></path>
                        <path d="M153.671723,83.8116591 L156.308907,96.3397116 L149.878984,92.0391616 L136.197576,92.0391616 C134.186575,92.0391616 131.944551,90.7203498 131.515948,88.7093487 L130.73575,84.9786557 C130.73575,84.9786557 129.950712,81.1744754 129.614078,79.6123192 C129.278325,78.0506031 129.73289,77.1410322 129.989876,76.7265107 L124.33311,74.0061588 C125.273924,72.4409223 126.893286,71.4147397 129.075904,71.4147397 L140.615178,71.4147397 L146.162373,74.0959277 C146.43872,73.5229905 146.6363,72.6926274 146.359512,71.4662248 L144.403077,62.3718356 C143.888225,60.0193604 142.623099,58.2600646 139.677004,58.2600646 L125.482505,58.2600646 L118.921009,53.743013 L141.868423,53.743013 C145.559952,53.743013 149.385695,56.974256 150.242901,60.7322317 L152.617378,72.008359 C152.990535,73.848623 152.759952,75.6153996 152.000876,76.9667748 L146.143011,74.1157297 C145.707367,75.0847066 144.818038,75.4803061 143.572274,75.4803061 C143.572274,75.4803061 134.240261,75.4996681 132.639381,75.4996681 C131.03762,75.4996681 130.602857,75.9150696 129.989876,76.7458727 L135.53795,79.4591839 L137.252802,87.5705149 L144.044001,87.5705149 L143.252802,83.8116591 L153.671723,83.8116591" id="path52" fill="#51232C"></path>
                        <path d="M180.034319,79.4530233 L167.967873,79.4530233 L169.682284,87.5643542 L176.473923,87.5643542 L175.682724,83.8054985 L186.100325,83.8054985 L188.738389,96.3331109 L167.506706,96.3331109 C163.484704,96.3331109 159.001096,93.6950472 158.14301,89.6734851 L156.033439,79.5850365 C155.110667,75.3650146 157.220678,71.4094592 161.506267,71.4094592 L173.0451,71.4094592 L171.133109,62.7049489 L164.605936,62.7049489 L165.528709,66.8589642 L154.121448,66.8589642 L151.352691,53.7381725 L174.297025,53.7381725 C177.990315,53.7381725 181.814737,56.9694155 182.671063,60.7287114 L185.04598,72.0026385 C185.836299,75.8930674 183.924308,79.4530233 180.034319,79.4530233" id="path54" fill="#9A182F"></path>
                        <path d="M186.100325,83.8116591 L188.738829,96.3397116 L182.308026,92.0391616 L168.627058,92.0391616 C166.615617,92.0391616 164.374033,90.7203498 163.94499,88.7093487 L163.164792,84.9786557 C163.164792,84.9786557 162.380194,81.1744754 162.04356,79.6123192 C161.707367,78.0506031 162.161932,77.1410322 162.418918,76.7265107 L156.762592,74.0061588 C157.703406,72.4409223 159.322328,71.4147397 161.504946,71.4147397 L173.04422,71.4147397 L178.591415,74.0959277 C178.868642,73.5229905 179.065782,72.6926274 178.788554,71.4662248 L176.831679,62.3718356 C176.316827,60.0193604 175.052581,58.2600646 172.106926,58.2600646 L157.911547,58.2600646 L151.350931,53.743013 L174.297025,53.743013 C177.989875,53.743013 181.815177,56.974256 182.671503,60.7322317 L185.04554,72.008359 C185.420017,73.848623 185.188994,75.6153996 184.430358,76.9667748 L178.571613,74.1157297 C178.136409,75.0847066 177.24708,75.4803061 176.001316,75.4803061 C176.001316,75.4803061 166.669743,75.4996681 165.067983,75.4996681 C163.467103,75.4996681 163.032339,75.9150696 162.419358,76.7458727 L167.966993,79.4591839 L169.681844,87.5705149 L176.473043,87.5705149 L175.682284,83.8116591 L186.100325,83.8116591" id="path56" fill="#51232C"></path>
                        <path d="M174.083604,106.667104 L174.424638,104.273705 L175.796695,106.667104 L176.74719,106.667104 L176.031239,103.32365 L175.417817,103.32365 L175.996035,106.021119 L174.492845,103.32365 L173.958191,103.32365 L173.602196,106.021119 L173.024858,103.32365 L172.411437,103.32365 L173.127388,106.667104 L174.083604,106.667104 Z M169.591195,106.109128 L169.710447,106.667104 L172.560172,106.667104 L172.44048,106.109128 L171.347851,106.109128 L170.751591,103.32365 L170.087565,103.32365 L170.683824,106.109128 L169.591195,106.109128 L169.591195,106.109128 Z" id="path58" fill="#231F20"></path>
                    </g>
                </g>
            </g>
        </g>
    </g>
</svg>