<?xml version="1.0" encoding="UTF-8"?>
<svg width="200px" height="200px" viewBox="0 0 200 200" version="1.1" xmlns="http://www.w3.org/2000/svg" xmlns:xlink="http://www.w3.org/1999/xlink">
    <!-- Generator: Sketch 54.1 (76490) - https://sketchapp.com -->
    <title>middle-tenn</title>
    <desc>Created with Sketch.</desc>
    <g id="middle-tenn" stroke="none" stroke-width="1" fill="none" fill-rule="evenodd">
        <g id="middle-tenn_BGL" transform="translate(-0.000000, 0.000000)">
            <g id="middle-tenn" transform="translate(0.000000, 37.000000)">
                <g id="g10" transform="translate(99.756689, 63.464724) scale(-1, 1) rotate(-180.000000) translate(-99.756689, -63.464724) translate(0.000000, 0.691003)">
                    <g id="g12">
                        <polyline id="path14" fill="#231F20" fill-rule="nonzero" points="16.2241358 64.30394 9.78063236 64.30394 0 30.1079311 50.5657408 30.142189 58.1163003 56.4624803 64.6654972 56.4624803 57.145692 30.1376148 107.709973 30.1490017 114.156688 52.6919695 121.580532 52.6919695 116.293914 34.1681743 109.655472 34.1681743 99.8890486 0.0262317268 152.343549 0.0262317268 162.108998 34.1833568 155.638926 34.1833568 160.917758 52.6919695 186.639411 52.6919695 198.810701 95.2893407 126.338683 95.3212628 134.951821 125.50462 93.3253505 125.50462 74.5544507 105.331384 67.3999983 125.50462 27.2882718 125.50462 17.589294 91.5773213 24.0328948 91.5773213 16.2241358 64.30394"></polyline>
                        <path d="M19.3278827,60.1889036 L12.8843792,60.1889036 L5.45925047,34.2225782 L47.4593662,34.2518726 L54.8984901,60.1889036 L48.1957166,60.1889036 C49.2826265,63.9557162 50.3607773,67.7238913 51.4374683,71.492553 L55.7086117,60.5740131 L69.9327476,60.5740131 L79.403891,70.4983924 L76.4572244,60.1889036 L70.0099253,60.1889036 L62.5992198,34.2472984 L104.606323,34.2586853 L111.053039,56.8084657 L126.981019,56.8084657 L119.397564,30.0578095 L112.756202,30.0578095 L105.34501,4.13815075 L149.241845,4.13815075 L156.653037,30.0737705 L150.184911,30.0737705 L157.940629,56.8084657 L183.535762,56.8084657 L193.361552,91.1816036 L114.733817,91.2101194 L116.008756,95.6713358 L122.162527,95.6713358 L129.494887,121.392698 L95.1166886,121.392698 L72.945205,97.5669075 L64.4902174,121.392698 L30.3904615,121.392698 L23.0433084,95.6914818 L29.4898289,95.6914818 L19.3278827,60.1889036" id="path16" fill="#FFFFFF" fill-rule="nonzero"></path>
                        <path d="M122.393184,26.0846709 L115.752795,26.0846709 L110.613136,8.11092924 L146.241359,8.11092924 C147.952308,14.1099753 149.66131,20.1110457 151.380045,26.1013132 L144.921651,26.1013132 L157.301213,69.4906065 L165.679801,69.4906065 L163.202916,60.7763488 L180.542088,60.7763488 L188.095372,87.2513847 L114.222868,87.2513847 L106.658878,60.7763488 L123.986372,60.7763488 L126.47299,69.4906065 L134.783452,69.4906065 L122.393184,26.0846709" id="path18" fill="#2A69BB"></path>
                        <path d="M22.3251576,56.2161543 L15.8816541,56.2161543 L10.7261311,38.1979552 L44.4647191,38.1979552 L49.6300718,56.2161543 L42.9159113,56.2161543 L49.2358139,78.2398034 L52.9961057,78.4177109 L58.4238428,64.547249 L68.2284168,64.547249 L82.083307,79.0610199 L85.4311414,77.1449129 L79.4503143,56.2161543 L73.0094386,56.2161543 C71.2891466,50.2132348 69.5738182,44.215376 67.8626747,38.2188798 L101.611676,38.2276389 L106.755228,56.225692 L100.60827,56.225692 L113.014109,99.6399002 L119.158148,99.6399002 C120.838926,105.565934 122.525544,111.482236 124.224814,117.419948 L96.8449611,117.419948 L71.3936722,90.0665671 L61.6837941,117.419948 L33.3884177,117.419948 L28.3109482,99.6652043 L34.7555222,99.6652043 L22.3251576,56.2161543" id="path20" fill="#2A69BB"></path>
                        <polyline id="path22" fill="#231F20" fill-rule="nonzero" points="159.680775 2.97710941 158.181018 1.22833087 158.218001 2.97710941 157.081261 2.97710941 155.814108 0 156.508999 0 157.541602 2.40875906 157.453037 0 157.85985 0 159.852064 2.40875906 158.826273 0 159.507539 0 160.784424 2.97710941 159.680775 2.97710941"></polyline>
                        <polyline id="path24" fill="#231F20" fill-rule="nonzero" points="156.697806 2.97710941 153.979558 2.97710941 153.744035 2.40875906 154.709485 2.40875906 153.687587 0 154.454497 0 155.478342 2.40875906 156.445738 2.40875906 156.697806 2.97710941"></polyline>
                    </g>
                </g>
            </g>
        </g>
    </g>
</svg>