<?xml version="1.0" encoding="UTF-8"?>
<svg width="200px" height="200px" viewBox="0 0 200 200" version="1.1" xmlns="http://www.w3.org/2000/svg" xmlns:xlink="http://www.w3.org/1999/xlink">
    <!-- Generator: Sketch 54.1 (76490) - https://sketchapp.com -->
    <title>mississippi-st</title>
    <desc>Created with Sketch.</desc>
    <g id="mississippi-st" stroke="none" stroke-width="1" fill="none" fill-rule="evenodd">
        <g id="mississippi-st_BGL">
            <g id="mississippi-st" transform="translate(0.000000, 39.000000)">
                <g id="g10" transform="translate(99.954398, 60.994074) scale(-1, 1) rotate(-180.000000) translate(-99.954398, -60.994074) translate(0.000000, 0.072962)" fill-rule="nonzero">
                    <g id="g12">
                        <path d="M118.224894,39.5925207 L118.224894,0 L171.263835,0 L171.263835,19.1722385 L164.628906,29.3216956 L164.628906,30.5451885 C167.773092,29.0607927 175.819421,24.7339711 175.819421,24.7339711 L175.819421,37.7794792 C188.805102,30.2154484 199.79279,22.5802092 199.79279,22.5802092 L188.596803,58.3664372 L196.285266,75.1788399 C183.620606,84.5632446 164.628906,92.2681235 164.628906,92.2681235 L171.270402,102.932601 L171.270402,121.643043 L122.904146,121.643043 L104.939715,93.7178271 C99.634106,93.8553556 94.8530756,93.7178271 94.8530756,93.7178271 L76.8871846,121.643043 L28.5205647,121.643043 L28.5205647,102.932601 L35.1635924,92.2681235 C35.1635924,92.2681235 16.1707611,84.5632446 3.50746548,75.1788399 L11.1956951,58.3664372 L0,22.5802092 C0,22.5802092 10.9853896,30.2154484 23.9700131,37.7794792 L23.9700131,24.7339711 C23.9700131,24.7339711 32.0179107,29.0607927 35.1635924,30.5451885 L35.1635924,29.3216956 L28.5275688,19.1722385 L28.5275688,0 L81.5671662,0 L81.5671662,39.5925207 L99.8945711,10.7039487 L118.224894,39.5925207" id="path14" fill="#D3D5D7"></path>
                        <path d="M187.548377,15.774628 L186.066936,15.774628 L186.066936,20.1007565 L185.905331,20.1007565 L184.542449,17.0720652 L183.499494,17.0720652 L182.117643,20.1547464 L181.919558,20.1547464 L181.919558,15.774628 L180.518372,15.774628 L180.518372,21.3104235 L182.925668,21.3104235 L184.040853,18.6002367 L185.206744,21.3104235 L187.548377,21.3104235 L187.548377,15.774628 Z M179.646507,20.1164062 L178.060005,20.1164062 L178.060005,15.774628 L176.566161,15.774628 L176.566161,20.1164062 L174.980388,20.1164062 L174.980388,21.3104235 L179.646507,21.3104235 L179.646507,20.1164062 L179.646507,20.1164062 Z" id="path16" fill="#D3D5D7"></path>
                        <path d="M39.2204277,28.1134512 L32.5852067,17.9641035 L32.5852067,4.05763784 L77.5095284,4.05763784 L77.5095284,43.1277691 C63.9565875,41.0699488 51.0113986,37.2534418 39.2204277,32.1711255 L39.2204277,28.1134512" id="path18" fill="#711F23"></path>
                        <path d="M122.281438,4.05763784 L167.204373,4.05763784 L167.204373,17.9641035 L160.572363,28.1134512 L160.572363,32.1711255 C148.779568,37.2534418 135.834379,41.0699488 122.281438,43.1277691 L122.281438,4.05763784" id="path20" fill="#711F23"></path>
                        <path d="M74.671772,117.585405 L32.578239,117.585405 L32.578239,104.093021 L39.2204277,93.4281782 L39.2204277,89.497125 C21.3134149,82.6221594 8.60651141,73.7834911 8.60651141,73.7834911 L15.532804,58.6396702 L7.32972166,32.4217776 C12.45782,35.8817684 23.8738161,42.4065653 23.8738161,42.4065653 L23.8738161,74.242041 C58.3646132,93.2213383 90.1085249,93.5952553 90.1085249,93.5952553 L74.671772,117.585405" id="path22" fill="#711F23"></path>
                        <path d="M83.6198794,43.9284987 L99.8945711,18.2781938 L116.169628,43.9284987 C110.812948,44.5223883 105.38039,44.8499761 99.8945711,44.8499761 C94.4098472,44.8499761 88.977654,44.5223883 83.6198794,43.9284987" id="path24" fill="#711F23"></path>
                        <path d="M192.461463,32.4217776 L184.258272,58.6396702 L191.185403,73.7834911 C191.185403,73.7834911 178.476238,82.6221594 160.572363,89.497125 L160.572363,93.4281782 L167.212764,104.093021 L167.212764,117.585405 L125.11883,117.585405 L109.680982,93.5952553 C109.680982,93.5952553 141.427812,93.2213383 175.917187,74.242041 L175.917187,42.4065653 C175.917187,42.4065653 187.33497,35.8817684 192.461463,32.4217776" id="path26" fill="#711F23"></path>
                        <path d="M28.0276874,71.7074309 L28.0276874,31.4940986 C48.5231178,42.4145908 73.666756,49.5387129 99.8945711,49.5387129 C126.12494,49.5387129 151.266389,42.4145908 171.761783,31.4940986 L171.761783,71.7074309 C151.266389,82.6276313 126.12494,89.7524829 99.8945711,89.7524829 C73.666756,89.7524829 48.5231178,82.6276313 28.0276874,71.7074309" id="path28" fill="#711F23"></path>
                        <path d="M110.779386,56.4797068 C107.622068,56.721932 104.431917,56.86931 101.270951,56.9087081 L101.270951,61.3413573 L102.559414,61.3187399 L103.365615,61.3070664 C103.371817,61.3070664 101.959323,65.3274949 101.959323,65.3274949 L101.564977,65.3351557 C98.9858616,65.3720002 96.3866825,65.34537 93.8301846,65.2490636 L93.4529844,65.2366605 L91.9711787,61.1823058 C91.9740971,61.1823058 92.8116712,61.2155023 92.8116712,61.2155023 L94.100864,61.2596428 L94.100864,56.828088 C91.0982193,56.72558 88.0725924,56.5267656 85.081986,56.2403999 L85.081986,60.6683067 L86.8100297,60.8288174 L87.1693549,60.8609196 C87.1730028,60.8623788 87.2941155,61.1983569 87.2941155,61.1983569 L94.9424509,82.7308689 C96.9656155,82.789966 99.0201526,82.8052875 101.072136,82.7826701 L108.387047,61.4267199 L108.512902,61.0725019 L108.88463,61.0480605 C109.469035,61.007568 110.103052,60.9634276 110.779386,60.9112616 L110.779386,56.4797068 Z M98.3284973,75.8307323 L97.8068375,77.3398977 C97.8101207,77.3413569 97.268397,75.8380282 97.268397,75.8380282 L95.1704491,70.0005454 L94.8932033,69.22827 L95.7143615,69.2508875 C97.0735954,69.2851784 98.4466916,69.2997703 99.790604,69.2935687 L100.587686,69.2921095 L100.32868,70.0410379 L98.3284973,75.8307323 Z M145.272409,71.0920183 L144.536613,71.3295012 L144.536613,65.0411292 L144.926946,64.9156391 C147.225167,64.1740066 149.540534,63.3630627 151.818327,62.5021416 L151.818327,58.5440934 C149.659093,59.3488357 147.465569,60.1243943 145.272409,60.831371 L144.536613,61.0695835 L144.536613,54.2956667 L144.926946,54.1712709 C147.137251,53.4580926 149.358136,52.6865468 151.523206,51.8748733 L152.282349,51.5866836 L152.282349,52.3972627 L152.282349,53.5518454 C154.046508,52.8798892 155.812855,52.1718181 157.554396,51.4323745 L157.554396,45.1191963 C150.849061,47.9405369 143.912445,50.2923836 136.913813,52.1130858 L136.913813,56.5067017 L138.406563,56.1101673 L139.11281,55.9222968 C139.116093,55.9222968 139.116093,56.6540798 139.116093,56.6540798 L139.116093,72.9382563 C139.118282,72.9382563 138.700954,73.0487898 138.700954,73.0487898 L136.913813,73.521202 L136.913813,77.9436369 C143.917917,76.1094372 150.858911,73.744093 157.554396,70.9015942 L157.554396,64.9502948 C155.808113,65.6839017 154.046508,66.3930672 152.282349,67.0599162 L152.282349,68.6431355 C152.282349,68.6409468 151.914998,68.7766513 151.914998,68.7766513 C149.707976,69.6061998 147.471041,70.3857712 145.272409,71.0920183 L145.272409,71.0920183 Z M132.990786,71.4932951 C131.569536,71.8238012 130.135884,72.1357027 128.706244,72.424622 L128.706244,75.4155932 L128.253166,75.5009557 C127.097489,75.7315075 125.917006,75.9503857 124.647877,76.1692639 L123.993795,76.2827158 L123.993795,59.2922922 C123.996714,59.2915626 124.457817,59.2076593 124.457817,59.2076593 L126.181119,58.8964874 L126.181119,54.4787948 C122.889919,55.0832636 119.547284,55.5815764 116.221794,55.9620597 L116.221794,60.3866834 L117.789327,60.1988129 L118.417143,60.1284071 C118.425168,60.1243943 118.425168,60.7562228 118.425168,60.7562228 L118.425168,77.1060628 L117.932692,77.1695375 C116.783581,77.3132676 115.579021,77.4500665 114.354398,77.5748271 L113.732054,77.637937 L113.732054,74.6458714 C112.284904,74.7848591 110.824986,74.9088901 109.374553,75.0026429 L109.374553,82.4481512 C117.296486,81.9111699 125.234105,80.7237554 132.990786,78.9176451 L132.990786,71.4932951 Z M59.5691732,71.0103037 C57.7506598,70.5090726 55.9350647,69.9702673 54.1453703,69.404467 L54.1453703,71.3138149 L53.410669,71.0719544 C51.2218865,70.3700849 48.9725478,69.5868656 46.7217499,68.7416307 L46.3562232,68.6051966 L46.3562232,62.7866833 L47.1168251,63.0745082 C50.4882796,64.3348821 53.5368888,65.3720002 56.4366607,66.2471484 L59.5691732,64.2013664 L59.5691732,55.8526206 L55.1248504,50.2402176 C51.7362504,49.1925204 48.3414489,48.0113075 45.0305506,46.7213851 C43.7070669,47.5531224 42.3832183,48.368079 41.0852703,49.1512984 L41.0852703,52.2692189 C42.816962,53.0057442 44.5836742,53.712721 46.3562232,54.3872307 L46.3562232,51.343364 L47.1168251,51.6279057 C49.2720462,52.4352016 51.5056987,53.2158673 53.7564966,53.9359768 L54.1453703,54.0658445 L54.1453703,61.5485621 L53.410669,61.3110792 C50.099406,60.2429534 46.9150923,59.0989497 43.9204731,57.9122649 L41.0852703,59.8223423 L41.0852703,66.6951192 L45.3388042,72.6354747 C48.6227074,73.9133588 52.0113074,75.094207 55.4159585,76.1499297 C56.7835827,75.2660264 58.1767427,74.3430898 59.5691732,73.4077501 L59.5691732,71.0103037 Z M86.6429527,74.8063821 C85.1877772,74.6790679 83.7278593,74.5331491 82.2858165,74.3671664 L82.2858165,77.3606912 L81.6580007,77.2862726 C80.5023236,77.1505681 79.282807,76.987139 78.0348362,76.8087532 L77.5522096,76.7412658 L77.5522096,59.7541253 C77.556952,59.7541253 78.1964413,59.8442302 78.1964413,59.8442302 L79.7486528,60.0528941 L79.7486528,55.6311888 C76.431553,55.1927027 73.098767,54.6363871 69.8163229,53.9750101 L69.8163229,58.388325 L71.5392595,58.7279511 L71.9897839,58.8147728 C71.994891,58.8147728 71.994891,59.2806187 71.994891,59.2806187 L71.994891,75.8106684 L71.3265828,75.6851782 C70.078612,75.4476953 68.9185573,75.210942 67.7844032,74.9661632 L67.3382564,74.8702216 L67.3382564,71.878156 C65.917007,71.5691729 64.4880969,71.2299116 63.0686715,70.8745992 L63.0686715,78.2920181 C70.8020046,80.2393049 78.727221,81.5682606 86.6429527,82.2464184 L86.6429527,74.8063821 L86.6429527,74.8063821 Z" id="path30" fill="#FFFFFF"></path>
                    </g>
                </g>
            </g>
        </g>
    </g>
</svg>