<?xml version="1.0" encoding="UTF-8"?>
<svg width="200px" height="200px" viewBox="0 0 200 200" version="1.1" xmlns="http://www.w3.org/2000/svg" xmlns:xlink="http://www.w3.org/1999/xlink">
    <!-- Generator: Sketch 54.1 (76490) - https://sketchapp.com -->
    <title>san-jose-st</title>
    <desc>Created with Sketch.</desc>
    <g id="san-jose-st" stroke="none" stroke-width="1" fill="none" fill-rule="evenodd">
        <g id="san-jose-st_BGL" transform="translate(-0.000000, 0.000000)">
            <g id="san-jose-st" transform="translate(3.000000, 0.000000)">
                <g id="g10" transform="translate(96.999998, 99.968501) scale(-1, 1) rotate(-180.000000) translate(-96.999998, -99.968501) translate(0.000000, 0.303583)" fill-rule="nonzero">
                    <g id="g12">
                        <path d="M171.093689,31.4958895 L130.983188,50.2895425 C115.700109,58.8853552 103.481543,52.2169131 103.481543,52.2169131 L29.6791951,8.64060465 L51.2531391,83.6698435 C80.1534729,85.6104455 87.926635,95.3609966 87.926635,95.3609966 L58.3270428,95.3609966 C44.5734732,91.193972 36.3121637,69.8771355 36.3121637,69.8771355 L26.5540784,59.4839175 C34.6508027,87.850615 53.1499326,116.432108 53.1499326,116.432108 C55.1727974,119.395707 57.642034,122.237303 60.2630368,124.671074 C60.2630368,124.671074 54.214014,127.075633 50.9457722,128.366695 C50.0708265,128.729842 48.5248354,129.302056 47.2103853,129.84964 C47.2103853,129.84964 47.2146201,129.853077 47.2146201,129.858232 L39.8117748,145.893973 L56.0984464,139.894604 C56.8493237,140.572211 57.6208599,141.233207 58.4037272,141.87301 L55.2827308,159.492507 L69.5916325,149.051175 C70.4918153,149.497376 71.4051605,149.917801 72.3339569,150.31417 L72.3305233,150.31417 L74.1932666,168.371276 L85.2518386,154.1822 C86.3494551,154.376374 87.4550834,154.545347 88.569868,154.678806 L95.6746171,171.785086 L102.303236,154.726347 C103.317301,154.61179 104.32221,154.47833 105.319679,154.313941 L117.222923,168.833515 L118.70854,150.431018 C119.322587,150.171546 119.930911,149.896608 120.532369,149.618807 L136.012882,160.447915 L132.396699,142.285416 C133.160681,141.675971 133.910357,141.052206 134.642864,140.407821 L152.639082,146.352776 L143.985194,130.009448 C144.517406,129.256233 145.029589,128.489844 145.525749,127.710281 L145.525749,127.710281 L164.416427,128.28765 L151.579235,115.152502 L151.579235,115.155938 C152.10458,113.611705 152.571554,112.04456 152.972144,110.454504 L170.891677,105.019329 L154.759919,96.7752074 C154.763353,96.493969 154.77022,96.2155946 154.77022,95.9377929 C154.77022,94.4680218 154.717571,93.0125703 154.612273,91.5720113 L169.646415,80.8952639 L152.157229,78.4878406 L149.6833,84.4952294 L146.480297,92.2708113 C146.480297,119.298333 124.590345,141.212014 97.5860035,141.212014 C84.4392132,141.212014 72.5067828,136.011681 63.7195559,127.559065 C71.7960218,133.726262 81.8777266,137.393243 92.8138325,137.393243 C119.345478,137.393243 140.85487,115.867912 140.85487,89.3106487 C140.85487,84.2884534 139.704604,77.9998262 138.208115,73.9490774 L137.44871,66.7921053 L171.093689,31.4958895 Z M8.01311543,135.954403 C14.1161035,149.799807 20.8208349,157.404126 20.8208349,157.404126 L37.4728445,133.85743 L8.01311543,135.954403 Z M41.986406,177.258065 L50.579404,149.715608 L23.1973062,160.801325 C33.2668788,172.087518 41.986406,177.258065 41.986406,177.258065 L41.986406,177.258065 Z M66.4727535,189.032845 L66.954606,160.186152 L43.8078314,178.554281 C56.6497154,186.541794 66.4727535,189.032845 66.4727535,189.032845 L66.4727535,189.032845 Z M93.4112838,193.180394 L85.2896085,165.494741 L68.6536797,189.925819 C83.2918091,193.723396 93.4112838,193.180394 93.4112838,193.180394 L93.4112838,193.180394 Z M121.208793,189.416039 L105.529702,165.20892 L96.5576318,193.378006 C111.670174,192.830422 121.208793,189.416039 121.208793,189.416039 L121.208793,189.416039 Z M145.401566,178.062257 L123.522487,159.276566 L122.868953,188.830651 C137.210646,184.035279 145.401566,178.062257 145.401566,178.062257 L145.401566,178.062257 Z M166.031376,159.242772 L139.50946,147.942832 L147.796521,176.322131 C160.024244,167.414149 166.031376,159.242772 166.031376,159.242772 L166.031376,159.242772 Z M180.21455,135.258467 L151.546043,132.257636 L167.792828,156.944751 C176.875919,144.836609 180.21455,135.258467 180.21455,135.258467 L180.21455,135.258467 Z M186.993104,108.441731 L158.634769,113.611705 L181.153647,132.737632 C186.468904,118.570321 186.993104,108.441731 186.993104,108.441731 L186.993104,108.441731 Z M185.047954,79.4925088 L159.843406,93.4914202 L187.302131,104.382963 C187.798863,89.256234 185.047954,79.4925088 185.047954,79.4925088 L185.047954,79.4925088 Z M174.894143,52.9912637 L154.835459,73.713662 L184.275388,76.1508702 C180.358762,61.5299123 174.894143,52.9912637 174.894143,52.9912637 L174.894143,52.9912637 Z M142.187117,73.1609226 C143.466144,76.8416511 144.390934,81.5568327 144.724569,85.9340701 L152.663689,67.4364906 L176.83586,45.3888925 C176.83586,45.3888925 227.187157,120.013744 154.502397,179.206686 C105.243567,219.323533 17.8854833,196.683559 0,132.662024 L42.9706556,129.410885 L44.226734,126.695876 L53.2172317,123.117103 C26.5795445,87.8551973 18.0996273,44.5712965 18.0996273,44.5712965 L39.791173,67.679925 L45.7150974,79.0262603 L22.9912313,0 L105.533708,47.3620861 C105.815266,47.5064283 115.999407,52.7022354 129.007135,45.3888925 L129.138758,45.3132847 L184.786998,22.115416 L141.954203,69.2716997 C142.160793,71.1750705 142.135041,72.6946741 142.187117,73.1609226 L142.187117,73.1609226 Z" id="path14" fill="#FFFFFF"></path>
                        <path d="M70.9296029,101.249818 L87.6239034,101.249818 C83.3118386,107.375774 76.1939273,121.795111 99.1111067,127.874671 C96.6125699,128.215479 95.0073487,128.190849 95.0073487,128.190849 C61.8041636,128.190849 53.1664712,99.3275457 53.1664712,99.3275457 C55.6482405,101.902796 70.9296029,101.249818 70.9296029,101.249818" id="path16" fill="#FCD006"></path>
                        <path d="M93.0713546,91.193972 C93.0753605,91.2014182 93.0833723,91.204855 93.0942455,91.2134468 C91.783744,90.1411897 90.40457,89.1462589 88.9756084,88.2252176 C86.6018267,80.7182727 78.1934435,61.4325385 49.5330058,32.6488522 L103.786564,62.275108 C107.241366,63.8370978 110.415183,64.6705027 113.260516,65.0239122 C113.463673,65.0485421 113.571832,65.070308 113.66454,65.078327 C106.936918,70.1515004 99.4075432,78.2644538 93.0713546,91.193972" id="path18" fill="#FCD006"></path>
                        <path d="M152.972144,110.454504 C154.080061,106.071538 154.691247,101.486952 154.759919,96.7752074 L170.891677,105.019329 L152.972144,110.454504" id="path20" fill="#FAB41D"></path>
                        <path d="M145.525749,127.710281 L145.525749,127.710281 C148.012268,123.807884 150.051271,119.602483 151.579235,115.152502 L151.579235,115.152502 L164.416427,128.28765 L145.525749,127.710281" id="path22" fill="#FAB41D"></path>
                        <path d="M134.642864,140.407821 C138.149171,137.325655 141.288651,133.831082 143.985194,130.009448 L152.639082,146.352776 L134.642864,140.407821" id="path24" fill="#FAB41D"></path>
                        <path d="M136.012882,160.447915 L120.532369,149.618807 C124.787779,147.640401 128.763348,145.173408 132.394982,142.285416 L136.012882,160.447915" id="path26" fill="#FAB41D"></path>
                        <path d="M117.22464,168.833515 L105.319679,154.308786 C109.992275,153.539533 114.476021,152.230142 118.70854,150.431018 L117.22464,168.833515" id="path28" fill="#FAB41D"></path>
                        <path d="M102.303236,154.726347 L95.6746171,171.785086 L88.569868,154.678806 C90.8967234,154.956608 93.255626,155.099804 95.6528708,155.099804 C97.9041863,155.099804 100.118304,154.974937 102.303236,154.726347" id="path30" fill="#FAB41D"></path>
                        <path d="M85.2518386,154.1822 L74.1932666,168.371276 L72.3305233,150.31417 L72.3316678,150.31417 C76.4228358,152.073771 80.7492074,153.383162 85.2518386,154.1822" id="path32" fill="#FAB41D"></path>
                        <path d="M56.0959856,139.894604 L39.8117748,145.893973 L47.212846,129.858232 C49.7891545,133.533805 52.7730347,136.896637 56.0959856,139.894604" id="path34" fill="#FAB41D"></path>
                        <path d="M69.5916325,149.051175 L55.28027,159.492507 L58.405444,141.87301 C61.8362108,144.663627 65.5828715,147.076206 69.5916325,149.051175" id="path36" fill="#FAB41D"></path>
                        <path d="M152.157229,78.4878406 L169.646415,80.8952639 L154.612273,91.5720113 C154.280356,87.0510045 153.445412,82.6720488 152.157229,78.4878406" id="path38" fill="#FAB41D"></path>
                        <path d="M49.1598849,32.4425343 L49.5305451,32.6488522 C78.1934435,61.4325385 86.6018267,80.7182727 88.9744639,88.2252176 C75.9117975,79.8298803 59.0131962,77.8090882 59.0131962,77.8090882 L49.1598849,32.4425343" id="path40" fill="#FAB41D"></path>
                        <path d="M117.441531,88.4090822 L127.482032,86.8602665 C131.307666,120.013744 108.672044,126.577309 99.1111067,127.874671 C76.1950718,121.795111 83.3106941,107.375774 87.6221866,101.249818 L101.297756,101.249818 C99.3508884,97.2849877 96.448328,93.9679789 93.0713546,91.193972 C99.4052542,78.2644538 106.938634,70.1515004 113.66454,65.078327 C123.210026,66.1225175 128.971082,61.7733467 128.971082,61.7733467 L120.844257,77.9614495 C125.980392,75.8472931 137.450427,66.7921053 137.450427,66.7921053 L138.209831,73.9490774 C125.152315,84.515277 114.513791,86.6420347 114.513791,86.6420347 C115.267472,88.4950002 117.441531,88.4090822 117.441531,88.4090822" id="path42" fill="#FAB41D"></path>
                        <path d="M152.972144,110.454504 C152.571554,112.04456 152.106297,113.611705 151.579235,115.152502 C150.051271,119.602483 148.012268,123.807884 145.525749,127.710281 C145.029589,128.489844 144.517406,129.256233 143.986911,130.009448 C141.290368,133.831082 138.149171,137.325655 134.642864,140.407821 C133.910357,141.052206 133.160681,141.675971 132.396699,142.285416 C128.763348,145.173408 124.784345,147.640401 120.532369,149.618807 C119.929195,149.896608 119.322587,150.171546 118.70854,150.431018 C114.476021,152.230142 109.992275,153.539533 105.319679,154.308786 C104.32221,154.47833 103.317301,154.61179 102.303236,154.726347 C100.120593,154.974937 97.9041863,155.099804 95.6528708,155.099804 C93.255626,155.099804 90.8915729,154.956608 88.569868,154.678806 C87.4550834,154.545347 86.347166,154.376374 85.2518386,154.1822 C80.7469183,153.383162 76.4228358,152.073771 72.3316678,150.31417 C71.4051605,149.914937 70.4918153,149.497376 69.5893434,149.051175 C65.5828715,147.076206 61.8379277,144.663627 58.4037272,141.87301 C57.6191431,141.233207 56.8468629,140.572211 56.0959856,139.894604 C52.7730347,136.896637 49.7891545,133.533805 47.2146201,129.858232 C47.212846,129.853077 47.2103853,129.84964 47.2088401,129.84964 C48.5272961,129.302056 50.0708265,128.733279 50.9457722,128.366695 C60.9818097,142.201789 77.2697975,151.197407 95.6528708,151.197407 C126.148068,151.197407 150.869046,126.451868 150.869046,95.9332106 C150.869046,92.0096205 150.459872,88.1874137 149.6833,84.4952294 L152.158946,78.4878406 C153.445412,82.6720488 154.280356,87.0510045 154.607695,91.5720113 C154.714138,93.0125703 154.766787,94.4680218 154.766787,95.9332106 C154.766787,96.2155946 154.763353,96.493969 154.759919,96.7752074 C154.691247,101.486952 154.080061,106.071538 152.972144,110.454504" id="path44" fill="#588ED2"></path>
                        <polygon id="path46" fill="#588ED2" points="19.9628856 144.142391 32.9561355 137.179594 20.3037877 154.170744"></polygon>
                        <polygon id="path48" fill="#588ED2" points="40.4978137 174.340861 37.0861035 164.905916 47.3031504 154.279001"></polygon>
                        <polygon id="path50" fill="#588ED2" points="64.2208657 186.65807 58.2892729 178.567456 65.0975854 165.486722"></polygon>
                        <polygon id="path52" fill="#588ED2" points="90.5533606 191.580601 82.4843342 185.627054 85.0893135 171.108052"></polygon>
                        <polygon id="path54" fill="#588ED2" points="108.585632 185.303429 106.938634 170.644095 118.014947 188.700628"></polygon>
                        <polygon id="path56" fill="#588ED2" points="132.127159 177.687655 126.409023 164.089122 142.131607 178.281062"></polygon>
                        <polygon id="path58" fill="#588ED2" points="153.265147 162.893143 143.712221 151.65621 162.981742 160.44276"></polygon>
                        <polygon id="path60" fill="#588ED2" points="169.083872 142.504221 156.656427 134.572841 177.649058 137.296442"></polygon>
                        <polygon id="path62" fill="#588ED2" points="185.10232 111.1155 178.3375 118.520488 164.189807 114.398141"></polygon>
                        <polygon id="path64" fill="#588ED2" points="165.356096 92.451812 184.118013 82.6336721 180.082355 91.8171641"></polygon>
                        <polygon id="path66" fill="#588ED2" points="159.812503 71.1206558 174.915317 56.2619913 173.717553 66.2279102"></polygon>
                        <path d="M120.844257,77.9614495 L128.971082,61.7733467 C128.971082,61.7733467 123.21346,66.1225175 113.667401,65.078327 C113.571832,65.070308 113.463673,65.0485421 113.260516,65.0239122 C110.415183,64.6705027 107.241366,63.8370978 103.786564,62.275108 L49.5330058,32.6488522 L49.1598849,32.4425343 L59.0131962,77.8090882 C59.0131962,77.8090882 75.9135143,79.8298803 88.9756084,88.2252176 C90.40457,89.1462589 91.783744,90.1411897 93.0942455,91.2134468 C93.0833723,91.21001 93.0753605,91.2014182 93.0713546,91.193972 C96.448328,93.9679789 99.3508884,97.2849877 101.297756,101.249818 L87.6239034,101.249818 L70.9296029,101.249818 C70.9296029,101.249818 55.6482405,101.902796 53.168932,99.3275457 C53.168932,99.3275457 61.8024468,128.190849 95.0056318,128.190849 C95.0056318,128.190849 96.6125699,128.215479 99.1133958,127.874671 C108.672044,126.577309 131.310528,120.013744 127.482032,86.8602665 L117.441531,88.4090822 C117.441531,88.4090822 115.267472,88.4950002 114.513791,86.6420347 C114.513791,86.6420347 125.152315,84.515277 138.208115,73.9490774 C139.704604,77.9998262 140.85487,84.2884534 140.85487,89.3106487 C140.85487,115.867912 119.345478,137.393243 92.8138325,137.393243 C81.8777266,137.393243 71.7960218,133.726262 63.7195559,127.559065 C72.5067828,136.011681 84.4392132,141.212014 97.5860035,141.212014 C124.590345,141.212014 146.480297,119.298333 146.480297,92.2708113 L149.6833,84.4952294 C150.458728,88.1874137 150.869046,92.0096205 150.869046,95.9332106 C150.869046,126.451868 126.148068,151.197407 95.6528708,151.197407 C77.2680807,151.197407 60.9818097,142.201789 50.9457722,128.366695 C54.214014,127.075633 60.2630368,124.671074 60.2630368,124.671074 C57.642034,122.237303 55.1727974,119.395707 53.1499326,116.432108 C53.1499326,116.432108 34.6508027,87.850615 26.5540784,59.4839175 L36.3121637,69.8771355 C36.3121637,69.8771355 44.5734732,91.193972 58.3270428,95.3609966 L87.926635,95.3609966 C87.926635,95.3609966 80.1534729,85.6104455 51.2531391,83.6698435 L29.6791951,8.64060465 L103.481543,52.2169131 C103.481543,52.2169131 115.700109,58.8853552 130.983188,50.2895425 L171.093689,31.4958895 L137.44871,66.7921053 C137.44871,66.7921053 125.980392,75.8518754 120.844257,77.9614495" id="path68" fill="#1E5AAF"></path>
                        <path d="M20.3037877,154.170744 L32.9561355,137.182458 L19.9628856,144.142391 L20.3037877,154.170744 Z M20.8208349,157.404126 C20.8208349,157.404126 14.1161035,149.799807 8.01311543,135.954403 L37.4728445,133.85743 L20.8208349,157.404126 L20.8208349,157.404126 Z" id="path70" fill="#1E5AAF"></path>
                        <path d="M40.4978137,174.340861 L47.3031504,154.279001 L37.0861035,164.905916 L40.4978137,174.340861 Z M41.986406,177.258065 C41.986406,177.258065 33.2691107,172.087518 23.1973062,160.801325 L50.579404,149.715608 L41.986406,177.258065 L41.986406,177.258065 Z" id="path72" fill="#1E5AAF"></path>
                        <path d="M58.2892729,178.567456 L64.2208657,186.65807 L65.0958686,165.486722 L58.2892729,178.567456 Z M66.4710367,189.02769 C66.4710367,189.02769 56.6472546,186.541794 43.8060573,178.554281 L66.9523169,160.186152 L66.4710367,189.02769 L66.4710367,189.02769 Z" id="path74" fill="#1E5AAF"></path>
                        <path d="M82.4843342,185.627054 L90.5556497,191.580601 L85.0916026,171.108052 L82.4843342,185.627054 Z M93.4112838,193.180394 C93.4112838,193.180394 83.2918091,193.723396 68.6536797,189.925819 L85.2896085,165.494741 L93.4112838,193.180394 L93.4112838,193.180394 Z" id="path76" fill="#1E5AAF"></path>
                        <path d="M108.585632,185.303429 L118.014947,188.700628 L106.938634,170.644095 L108.585632,185.303429 Z M121.208793,189.416039 C121.208793,189.416039 111.670174,192.830422 96.5576318,193.378006 L105.529702,165.20892 L121.208793,189.416039 L121.208793,189.416039 Z" id="path78" fill="#1E5AAF"></path>
                        <path d="M132.127159,177.687655 L142.131607,178.281062 L126.409023,164.089122 L132.127159,177.687655 Z M145.401566,178.062257 C145.401566,178.062257 137.210646,184.035279 122.868953,188.830651 L123.519053,159.276566 L145.401566,178.062257 L145.401566,178.062257 Z" id="path80" fill="#1E5AAF"></path>
                        <path d="M153.265147,162.893143 L162.981742,160.44276 L143.712221,151.65621 L153.265147,162.893143 Z M166.031376,159.242772 C166.031376,159.242772 160.027677,167.414149 147.796521,176.319267 L139.50946,147.942832 L166.031376,159.242772 L166.031376,159.242772 Z" id="path82" fill="#1E5AAF"></path>
                        <path d="M169.083872,142.504221 L177.649058,137.296442 L156.656427,134.572841 L169.083872,142.504221 Z M180.21455,135.258467 C180.21455,135.258467 176.872485,144.836609 167.792828,156.944751 L151.546043,132.257636 L180.21455,135.258467 L180.21455,135.258467 Z" id="path84" fill="#1E5AAF"></path>
                        <path d="M185.10232,111.1155 L164.189807,114.398141 L178.3375,118.520488 L185.10232,111.1155 Z M186.994821,108.441731 C186.994821,108.441731 186.468904,118.570321 181.153647,132.737632 L158.633052,113.611705 L186.994821,108.441731 L186.994821,108.441731 Z" id="path86" fill="#1E5AAF"></path>
                        <path d="M165.356096,92.451812 L180.082355,91.8171641 L184.118013,82.6336721 L165.356096,92.451812 Z M187.302131,104.382963 L159.843406,93.4914202 L185.051388,79.4925088 C185.051388,79.4925088 187.798863,89.256234 187.302131,104.382963 L187.302131,104.382963 Z" id="path88" fill="#1E5AAF"></path>
                        <path d="M174.915317,56.2619913 L159.812503,71.1206558 L173.715836,66.2279102 L174.915317,56.2619913 Z M174.894143,52.9912637 C174.894143,52.9912637 180.355329,61.5299123 184.275388,76.1508702 L154.835459,73.713662 L174.894143,52.9912637 L174.894143,52.9912637 Z" id="path90" fill="#1E5AAF"></path>
                        <polyline id="path92" fill="#1E5AAF" points="182.128226 38.2019637 181.051783 40.9417179 180.135004 40.9417179 180.135004 37.3353944 180.713571 37.3353944 180.713571 40.366468 180.7336 40.366468 181.91763 37.3353944 182.31078 37.3353944 183.503394 40.366468 183.51999 40.366468 183.51999 37.3353944 184.098556 37.3353944 184.098556 40.9417179 183.204096 40.9417179 182.128226 38.2019637"></polyline>
                        <polyline id="path94" fill="#1E5AAF" points="176.556591 40.366468 177.690261 40.366468 177.690261 37.3353944 178.272261 37.3353944 178.272261 40.366468 179.408792 40.366468 179.408792 40.9417179 176.556591 40.9417179 176.556591 40.366468"></polyline>
                    </g>
                </g>
            </g>
        </g>
    </g>
</svg>