<?xml version="1.0" encoding="UTF-8"?>
<svg width="200px" height="200px" viewBox="0 0 200 200" version="1.1" xmlns="http://www.w3.org/2000/svg" xmlns:xlink="http://www.w3.org/1999/xlink">
    <!-- Generator: Sketch 54.1 (76490) - https://sketchapp.com -->
    <title>temple</title>
    <desc>Created with Sketch.</desc>
    <g id="temple" stroke="none" stroke-width="1" fill="none" fill-rule="evenodd">
        <g id="temple_BGL" transform="translate(0.000000, 0.000000)">
            <g id="temple" transform="translate(4.000000, 0.000000)">
                <g id="g10" transform="translate(95.223186, 99.854382) scale(-1, 1) rotate(-180.000000) translate(-95.223186, -99.854382) translate(0.000000, 0.000005)" fill-rule="nonzero">
                    <g id="g12">
                        <polyline id="path14" fill="#FFFFFF" points="14.4357243 185.584462 14.4357243 127.715745 26.8923564 127.715745 26.8923564 172.534827 147.488757 172.534827 147.488757 127.715745 159.952143 127.715745 159.952143 185.584462 14.4357243 185.584462"></polyline>
                        <polyline id="path16" fill="#FFFFFF" points="46.0545832 53.9550919 46.0545832 41.2376385 80.3081348 41.2376385 80.3081348 158.718088 41.4282865 158.718088 41.4282865 127.695774 53.8814862 127.695774 53.8814862 145.867939 67.8491774 145.867939 67.8491774 53.9550919 46.0545832 53.9550919"></polyline>
                        <polyline id="path18" fill="#FFFFFF" points="46.0545832 14.1243572 128.244151 14.1243572 128.244151 26.8446287 46.0545832 26.8446287 46.0545832 14.1243572"></polyline>
                        <polyline id="path20" fill="#FFFFFF" points="94.079622 41.2376385 128.334945 41.2376385 128.334945 53.9550919 106.540351 53.9550919 106.540351 145.867939 120.503835 145.867939 120.503835 127.695774 132.960356 127.695774 132.960356 158.718088 94.079622 158.718088 94.079622 41.2376385"></polyline>
                        <path d="M14.4357243,185.584462 L159.952143,185.584462 L159.952143,127.715745 L147.488757,127.715745 L147.488757,172.534827 L26.8923564,172.534827 L26.8923564,127.715745 L14.4357243,127.715745 L14.4357243,185.584462 Z M132.960356,127.695774 L120.503835,127.695774 L120.503835,145.867939 L106.540351,145.867939 L106.540351,53.9550919 L128.334945,53.9550919 L128.334945,41.2376385 L94.079622,41.2376385 L94.079622,158.718088 L132.960356,158.718088 L132.960356,127.695774 Z M128.244151,14.1243572 L46.0545832,14.1243572 L46.0545832,26.8446287 L128.244151,26.8446287 L128.244151,14.1243572 Z M53.8814862,145.867939 L53.8814862,127.695774 L41.4282865,127.695774 L41.4282865,158.718088 L80.3081348,158.718088 L80.3081348,41.2376385 L46.0545832,41.2376385 L46.0545832,53.9550919 L67.8491774,53.9550919 L67.8491774,145.867939 L53.8814862,145.867939 Z M0,0 L174.386871,0 L174.386871,199.708753 L0,199.708753 L0,0 L0,0 Z" id="path22" fill="#B20D35"></path>
                        <path d="M183.744874,1.31318934 C181.095234,1.31318934 178.950055,3.46456964 178.950055,6.12389139 C178.950055,8.77453691 181.095234,10.9259106 183.744874,10.9259106 C186.391857,10.9259106 188.541465,8.77453691 188.541465,6.12389139 C188.541465,3.46456964 186.391857,1.31318934 183.744874,1.31318934 Z M183.744874,12.2391066 C180.373088,12.2391066 177.637746,9.49570741 177.637746,6.12389139 C177.637746,2.73907212 180.373088,0 183.744874,0 C187.115996,0 189.852002,2.73907212 189.852002,6.12389139 C189.852002,9.49570741 187.115996,12.2391066 183.744874,12.2391066 L183.744874,12.2391066 Z" id="path24" fill="#B20D35"></path>
                        <path d="M184.183565,6.77571857 L182.545948,6.77571857 L182.545948,8.30127155 L184.183565,8.30127155 C184.604762,8.30127155 184.944686,7.9614782 184.944686,7.53936047 C184.944686,7.11635514 184.604762,6.77571857 184.183565,6.77571857 Z M186.255223,7.53936047 C186.255223,8.6835141 185.328015,9.61271455 184.183565,9.61271455 L181.238069,9.61444536 L181.238069,2.62204279 L182.545948,2.62204279 L182.545948,5.46511879 L183.487107,5.46511879 L184.808938,2.62204279 L186.255223,2.62204279 L184.87803,5.58214812 C185.678348,5.86990624 186.255223,6.64395518 186.255223,7.53936047 L186.255223,7.53936047 Z" id="path26" fill="#B20D35"></path>
                    </g>
                </g>
            </g>
        </g>
    </g>
</svg>