<?xml version="1.0" encoding="UTF-8"?>
<svg width="200px" height="200px" viewBox="0 0 200 200" version="1.1" xmlns="http://www.w3.org/2000/svg" xmlns:xlink="http://www.w3.org/1999/xlink">
    <!-- Generator: Sketch 54.1 (76490) - https://sketchapp.com -->
    <title>western-mich</title>
    <desc>Created with Sketch.</desc>
    <g id="western-mich" stroke="none" stroke-width="1" fill="none" fill-rule="evenodd">
        <g id="western-mich_BGL">
            <g id="western-mich" transform="translate(0.000000, 24.000000)">
                <g id="g10" transform="translate(99.950022, 75.726139) scale(-1, 1) rotate(-180.000000) translate(-99.950022, -75.726139) translate(0.000000, 0.063972)" fill-rule="nonzero">
                    <g id="g12">
                        <path d="M99.7775087,4.32423777 L94.0759597,25.7417285 L88.3746105,4.32423777 L36.970114,4.32423777 L29.9100442,38.3528226 C27.0474756,36.6094943 24.1733127,34.9217383 21.1952019,33.3549217 L21.0924532,33.3001491 L20.976911,33.3041471 C20.0021984,33.3417283 16.3191,34.4395793 12.631424,35.5596193 C11.725397,35.8340821 11.0408793,36.0425778 10.7930432,36.1069456 L10.5602596,36.1683149 L10.4877159,36.3982 C10.175532,37.4024978 9.76229861,38.5597192 9.3239378,39.65797 L9.19166394,39.9892044 L10.5223985,40.8603688 L10.225507,42.4081948 L8.00083938,42.6230874 L7.89207377,42.8331823 C7.25277343,44.0649664 6.64213876,44.9978999 6.07696137,45.6071953 L5.8925136,45.8070953 L5.99082444,46.0595691 C6.01191389,46.1155411 6.49331318,47.3547215 7.05857054,48.4389793 C5.66512729,50.6920527 4.80665655,53.969214 4.76965505,54.1125424 L4.71678149,54.3184394 L4.84601687,54.4865554 C6.52205881,56.6564703 10.4437579,61.7379295 13.1702146,63.8312828 L13.2842975,63.9190389 L13.4286853,63.9206381 C13.4286853,63.9206381 15.1447672,63.9494237 16.3590001,63.9820074 C18.8264463,66.1433267 21.0638675,67.9928019 23.3679155,69.8838563 L16.207136,104.398398 L4.97063456,104.398398 L4.97063456,146.913739 L68.542527,146.913739 L68.542527,129.047873 L73.912242,146.913739 L114.23448,146.913739 L119.609392,129.088652 L119.609392,146.913739 L183.180605,146.913739 L183.180605,104.398398 L171.944024,104.398398 L163.830281,65.2909529 C165.033279,64.3704132 166.283054,63.3903033 167.584803,62.3350309 C171.482454,59.8960505 174.941725,58.6664653 178.253669,59.2659655 C172.339226,55.1748112 165.047072,54.4537718 163.520835,54.4307832 C164.746623,53.1112431 166.035778,51.5852061 167.389701,49.9858058 C169.437477,47.5624176 171.758317,44.8155911 174.361415,42.189904 C177.541825,39.0606687 181.082854,35.7615183 186.280255,32.8881551 L187.332129,32.3066459 L186.15032,32.0807588 C176.201295,30.1835075 166.810191,29.2611687 157.441675,29.2611687 C157.075458,29.2611687 156.720836,29.2715635 156.357817,29.2743621 L151.181206,4.32423777 L99.7775087,4.32423777 Z M159.877857,24.9575206 C177.85167,25.1666161 199.900045,30.3020482 199.900045,30.3020482 C199.900045,30.3020482 180.197897,39.902048 171.709141,51.5752111 C179.993399,54.4551711 188.112539,63.2391788 188.112539,63.2391788 C188.112539,63.2391788 175.193399,61.534831 168.609491,67.03668 L175.463864,100.07416 L187.505243,100.07416 L187.505243,151.238377 L0.646864552,151.238377 L0.646864552,100.07416 L12.6881956,100.07416 L18.6040575,71.5620172 C17.1200396,70.3332316 15.8904944,69.2957504 14.7004694,68.270663 L11.7851271,68.2180892 L10.5360517,67.2611677 C7.74464748,65.1178395 4.36235871,60.934931 1.42053969,57.1260356 L0,55.2821575 L0.583380295,53.029284 C0.692231867,52.6086943 1.26116539,50.5043466 2.2442778,48.327635 C2.10004992,47.9824076 1.99868861,47.7269353 1.95933228,47.6257859 L0.883308324,44.855771 L2.90846569,42.6642668 C2.9840479,42.5833073 3.39290346,42.1149415 4.05109435,40.8463758 L4.67672152,39.6381799 L5.30774599,38.0537722 C5.7051073,37.0604688 6.07852059,36.0155913 6.36017975,35.1112435 L7.14462751,32.5933025 L9.70334808,31.922438 C9.9005095,31.8702641 10.4083156,31.7155414 11.0906344,31.5072456 L11.3755719,31.4214885 C17.5189801,29.5562212 19.5471859,29.0320832 20.808995,28.9833076 L22.092953,28.9335325 L23.2097945,29.5280352 C24.4057965,30.1577204 25.6239874,30.8251866 26.9041473,31.5532226 L33.4510736,0.000234258865 L91.6971491,0.000234258865 L94.0759597,8.93217369 L96.4541705,0.000234258865 L154.699446,0.000234258865 L159.877857,24.9575206 L159.877857,24.9575206 Z" id="path14" fill="#A4A5A6"></path>
                        <path d="M68.8947509,102.467963 L79.8524718,138.925734 L108.298848,138.925734 L108.478758,138.327633 L121.349922,95.6555698 C122.65347,95.3199376 123.960017,95.0260846 125.263365,94.7953999 L110.898348,142.423984 L77.2507727,142.423984 L64.9581193,101.524435 C66.4119923,101.780707 67.7003481,102.078958 68.8947509,102.467963" id="path16" fill="#AEA057"></path>
                        <path d="M28.0187899,73.7125419 C27.2327829,76.9577192 27.3303341,79.5824068 27.3349319,79.6949505 L27.3439274,79.9024468 L27.5102442,80.0263848 C28.0183901,80.4043958 28.5901042,80.7806077 29.1868059,81.1550205 L22.7072458,112.385804 L19.861089,108.887953 L19.8614688,108.887953 L19.9083253,108.660467 L27.2851567,73.106245 C27.5310338,73.3095434 27.7675155,73.5034464 28.0187899,73.7125419" id="path18" fill="#AEA057"></path>
                        <polyline id="path20" fill="#AEA057" points="60.5547211 138.925734 60.5547211 112.385804 64.0525721 108.887953 64.0525721 142.423984 9.46080936 142.423984 9.46080936 108.887953 12.9586803 112.385804 12.9586803 138.925734 60.5547211 138.925734"></polyline>
                        <path d="M57.9832069,100.435979 L56.3284344,108.887953 L52.0785594,112.385804 L54.5967003,99.5234358 C55.679159,99.8800575 56.8065953,100.187104 57.9832069,100.435979" id="path22" fill="#AEA057"></path>
                        <path d="M132.011591,108.887953 L132.011991,108.887953 L129.119437,94.3450251 C129.546024,94.3228362 129.97281,94.2982485 130.397198,94.2982485 C131.162815,94.2982485 131.927633,94.283256 132.675659,94.2934509 L136.27366,112.385804 L132.011591,108.887953" id="path24" fill="#AEA057"></path>
                        <path d="M144.679657,12.3120437 L147.527033,8.81419268 L147.527632,8.81419268 L151.794499,29.3783101 C150.600696,29.4228878 149.420886,29.4788598 148.255668,29.5474255 L144.679657,12.3120437" id="path26" fill="#AEA057"></path>
                        <path d="M128.146124,89.4512721 L128.056768,89.001497 C129.086454,88.7114421 130.271661,88.3908024 131.062865,88.217489 C131.17401,88.1931012 131.305144,88.1525215 131.445074,88.1049453 L132.146324,91.6311821 C130.81259,90.7192381 129.494649,89.9726114 128.146124,89.4512721" id="path28" fill="#AEA057"></path>
                        <path d="M159.418487,83.0122918 C159.386703,82.9623168 159.35132,82.9171394 159.319336,82.867764 L156.734829,70.4131916 C157.709141,69.7531217 158.755218,69.0242861 159.857067,68.2348809 L168.29205,108.887553 L165.444074,112.385804 L159.336528,82.9509225 C159.362715,82.9727116 159.3927,82.989903 159.418487,83.0122918" id="path30" fill="#AEA057"></path>
                        <polyline id="path32" fill="#AEA057" points="127.597398 138.925734 175.193399 138.925734 175.193399 112.385804 178.69125 108.887953 178.69185 108.887953 178.69185 142.423984 124.099547 142.423984 124.099547 108.887953 127.597398 112.385804 127.597398 138.925734"></polyline>
                        <path d="M35.9938022,45.3489244 C35.8086948,44.7602188 35.148225,42.7154412 34.4431775,41.2315832 L34.3896043,41.116041 L34.2814584,41.0484747 C34.1793095,40.9847066 34.0779602,40.9225377 33.9758112,40.8587696 L40.6244867,8.81457249 L43.4702638,12.3120437 L36.550124,45.665766 C36.3652165,45.5596191 36.1773104,45.45767 35.9938022,45.3489244" id="path34" fill="#AEA057"></path>
                        <path d="M87.4848554,32.034382 L82.2340809,12.3120437 L84.9231363,8.81419268 L84.923736,8.81419268 L91.2149902,32.4473755 C89.9772091,32.3254365 88.7350303,32.1907038 87.4848554,32.034382" id="path36" fill="#AEA057"></path>
                        <path d="M96.8203874,32.8853565 L103.228383,8.81457249 L105.917039,12.3120437 L100.398398,33.0420781 C99.2085932,33.0048967 98.0161895,32.954322 96.8203874,32.8853565" id="path38" fill="#AEA057"></path>
                        <path d="M108.298848,138.925734 L79.8524718,138.925734 L68.8947509,102.467963 C70.9988988,103.153621 72.8153905,104.124535 74.7330316,105.676159 L75.7037462,106.461966 L75.430283,105.243176 C75.412292,105.166014 75.0774594,103.729932 73.8600681,102.247274 C76.244276,102.816989 78.3632164,102.872961 80.4893533,102.872961 L81.4422768,102.872561 C84.5669144,102.872561 87.1928014,103.016889 90.165515,104.838778 L90.7382286,105.190202 L90.8237858,104.523736 C91.2567693,101.15562 90.2584685,99.0788581 89.2201877,97.869063 C92.2382786,98.6708621 97.4038956,99.732931 102.5951,99.732931 C103.716539,99.732931 104.797199,99.6815567 105.809093,99.581007 C108.981906,99.2641654 112.410992,98.2442754 116.041177,97.1638157 C117.7939,96.6416767 119.569013,96.1141405 121.349922,95.6555698 L108.478758,138.327633 L108.298848,138.925734" id="path40" fill="#643721"></path>
                        <path d="M127.597398,138.925734 L127.597398,112.385804 L136.27366,112.385804 L132.675659,94.2934509 C133.924434,94.3102425 135.127233,94.397199 136.210491,94.7410271 C134.803395,93.5866044 133.466264,92.5337308 132.146324,91.6311821 L131.445074,88.1049453 C132.178308,87.8554701 133.294949,87.3043456 134.755619,86.5793082 C138.989502,84.4807575 146.076758,80.9667146 152.128532,80.9671144 C154.925134,80.9675142 157.55302,81.4594682 159.336528,82.9509225 L165.444074,112.385804 L175.193399,112.385804 L175.193399,138.925734 L127.597398,138.925734" id="path42" fill="#643721"></path>
                        <path d="M57.1534219,25.348725 L56.5573199,25.1666161 C56.5573199,25.1666161 68.5147409,35.7063459 69.7563201,39.9092444 C71.1654155,44.6728625 67.7757104,47.4254861 66.4811578,48.2744616 C64.9683142,48.0325825 63.4344812,47.9098439 61.920838,47.9098439 C56.8709631,47.9098439 52.3090442,49.2793591 48.4205885,50.5793091 C43.6691643,49.1622177 39.9682149,47.627585 36.550124,45.665766 L43.4702638,12.3120437 L82.2340809,12.3120437 L87.4848554,32.034382 C77.9434263,30.8417783 68.0109928,28.6432776 57.1534219,25.348725" id="path44" fill="#643721"></path>
                        <path d="M130.675059,31.2059962 C122.463365,32.1441271 113.971611,33.1140422 104.579508,33.1140422 C103.188203,33.1140422 101.7947,33.0850566 100.398398,33.0420781 L105.917039,12.3120437 L144.679657,12.3120437 L148.255668,29.5474255 C142.103944,29.908445 136.320436,30.5609188 130.675059,31.2059962" id="path46" fill="#643721"></path>
                        <path d="M148.630081,75.4640661 C150.048372,74.65627 152.868762,73.0316823 156.734829,70.4131916 L159.319336,82.867764 C156.202495,78.0923519 151.048072,76.0343809 148.630081,75.4640661" id="path48" fill="#643721"></path>
                        <path d="M38.0779601,85.7994981 C38.5365308,86.0181888 38.9853064,86.2332812 39.4192894,86.4413771 C38.8215882,87.2393781 36.9415283,90.0737609 38.1103439,92.7920017 C39.3337322,95.6361795 43.4528725,97.2963494 50.3526224,97.7283334 C51.6657658,98.430982 53.0868552,99.0260845 54.5967003,99.5234358 L52.0785594,112.385804 L60.5547211,112.385804 L60.5547211,138.925734 L12.9586803,138.925734 L12.9586803,112.385804 L22.7072458,112.385804 L29.1868059,81.1550205 C31.7841072,82.7850054 35.0868557,84.3702128 38.0779601,85.7994981" id="path50" fill="#643721"></path>
                        <path d="M147.527632,8.81419268 L147.527033,8.81419268 L144.679657,12.3120437 L105.917039,12.3120437 L103.228383,8.81457249 L96.8203874,32.8853565 C98.0161895,32.954322 99.2085932,33.0048967 100.398398,33.0420781 C101.7947,33.0850566 103.188203,33.1140422 104.579508,33.1140422 C113.971611,33.1140422 122.463365,32.1441271 130.675059,31.2059962 C136.320436,30.5609188 142.103944,29.908445 148.255668,29.5474255 C149.420886,29.4788598 150.600696,29.4228878 151.794499,29.3783101 L147.527632,8.81419268 Z M84.923736,8.81419268 L84.9231363,8.81419268 L82.2340809,12.3120437 L43.4702638,12.3120437 L40.6244867,8.81457249 L33.9758112,40.8587696 C34.0779602,40.9225377 34.1793095,40.9847066 34.2814584,41.0484747 L34.3896043,41.116041 L34.4431775,41.2315832 C35.148225,42.7154412 35.8086948,44.7602188 35.9938022,45.3489244 C36.1773104,45.45767 36.3652165,45.5596191 36.550124,45.665766 C39.9682149,47.627585 43.6691643,49.1622177 48.4205885,50.5793091 C52.3090442,49.2793591 56.8709631,47.9098439 61.920838,47.9098439 C63.4344812,47.9098439 64.9683142,48.0325825 66.4811578,48.2744616 C67.7757104,47.4254861 71.1654155,44.6728625 69.7563201,39.9092444 C68.5147409,35.7063459 56.5573199,25.1666161 56.5573199,25.1666161 L57.1534219,25.348725 C68.0109928,28.6432776 77.9434263,30.8417783 87.4848554,32.034382 C88.7350303,32.1907038 89.9772091,32.3254365 91.2149902,32.4473755 L84.923736,8.81419268 Z M20.4101944,39.1632174 C18.8104343,39.5062459 15.7999196,40.0053963 13.4460167,40.5183398 C13.3145224,41.1950015 13.0335629,42.8075951 13.0335629,42.8075951 C15.1424284,42.8153912 17.3314938,42.4399789 19.8796597,42.1533223 C21.8874557,44.8199889 26.4923532,49.2585695 29.0546719,49.7569203 C29.0546719,49.7569203 26.3700143,46.7418279 25.4684651,45.0360808 C26.9177405,45.8834571 30.6112936,49.0330822 30.6112936,49.0330822 C30.1147419,46.8207884 29.1400293,44.0551713 29.1400293,44.0551713 C27.252573,42.5821079 22.1805092,39.763917 20.4101944,39.1632174 Z M34.6388797,53.7117428 C33.5922031,54.4389791 31.9376304,54.0297838 29.1432277,53.2219877 C29.1432277,53.2219877 32.8669657,55.8216878 36.0777602,56.6482744 C36.0777602,56.6482744 37.7893044,55.8920526 38.4217881,55.1894039 C38.4217881,55.1894039 35.3469257,51.1952011 34.8157912,49.6849563 C34.8157912,49.6849563 35.6847567,52.9835069 34.6388797,53.7117428 Z M87.2213871,37.0192894 C88.0859548,37.5422279 89.3025465,40.2468756 88.4713621,43.0588695 C87.6385785,45.8694641 84.4143907,51.4276849 77.6655653,54.9449262 C80.2914523,57.1468252 81.1296332,60.8671649 81.1296332,60.8671649 C92.7530212,57.2125923 100.795999,45.6647665 101.976409,41.6221879 C102.253671,40.7150415 101.979208,39.0568706 99.8756597,38.6336822 C97.4326812,38.322038 89.6713621,37.3329326 87.2213871,37.0192894 Z M11.8600097,49.1108433 L10.89939,46.81759 C10.3373311,46.8069953 9.04587684,46.9421278 9.04587684,46.9421278 C9.24771591,47.7147414 9.81063444,48.9809083 10.0848773,49.4946514 C8.83128414,51.6567703 8.40431763,54.0887543 8.40431763,54.0887543 C9.97829061,56.7080446 13.8397998,60.6386791 13.8397998,60.6386791 C15.2399596,61.1760105 17.1547822,61.2079945 17.1547822,61.2079945 C27.1164411,70.6174895 36.8083949,77.990003 37.1128427,78.2210875 C37.1148417,78.2228866 37.1256363,78.2318821 37.1258362,78.232082 C37.1258362,78.232082 33.3173405,76.5251355 31.4696644,75.3005478 C31.0042971,77.0036962 31.1622181,78.7632164 31.1622181,78.7632164 C31.5498243,79.1672144 32.2276854,79.629983 33.0576703,80.1177391 C36.1231375,82.0321819 40.3962009,83.8136911 40.3962009,83.8136911 C39.9624178,82.8471743 39.5802089,80.7434263 39.2407786,79.5098431 C44.2108934,82.5959 54.3464254,88.7532212 60.6384792,90.6726614 C60.6778596,90.399398 60.8523723,89.9712121 60.8523723,89.9712121 C58.75702,88.4487734 56.4689641,87.5064446 54.405196,85.9850053 C56.7138417,86.7292332 61.8060954,87.9694131 65.3501233,88.8167894 C64.4725621,90.4459748 63.3415277,92.5235359 65.146825,94.5197378 C71.6399782,102.342426 83.7643157,98.611092 88.3452252,101.473261 C87.9438259,95.9800076 72.7032466,98.5673139 72.4855554,93.2657648 C71.1995984,92.0215869 68.1527219,89.757519 66.7154406,88.9743106 C80.6534712,92.2762596 93.0498727,87.3111422 105.503646,81.5154402 C133.903245,68.3002482 137.444075,48.6744616 167.209191,34.7750116 C167.043674,34.8275853 166.884554,34.8815583 166.720835,34.9345319 C166.97171,34.8349816 167.11184,34.7826078 167.11184,34.7826078 C167.11184,34.7826078 135.851271,31.5508238 122.240677,49.7763106 C113.090452,62.0305832 94.7824064,73.8234864 80.3474243,74.1990986 C80.3474243,74.1990986 79.1458251,77.5252354 78.0373794,79.0478741 C78.0373794,79.0478741 76.2132914,79.152022 74.6126918,78.9675143 C76.5327317,76.804196 78.8769595,63.2589689 71.0778593,59.3059455 C70.6714625,59.047075 70.2412776,58.818989 69.8016974,58.6054958 C69.7273346,58.5693139 69.6541712,58.5321325 69.5788089,58.4973499 C69.1430268,58.2954508 68.6960503,58.1141415 68.2380793,57.9554208 C68.2170897,57.9480245 68.1972996,57.9376297 68.1761102,57.9304333 C68.1823071,57.9336317 68.1879043,57.9378296 68.1943011,57.941028 C64.190703,56.5661155 59.5126422,56.8173899 56.9041465,58.5481245 C54.8819576,60.1303333 54.033382,62.262867 54.5963005,64.9889039 C54.8125923,66.9805081 56.4039966,68.7430268 58.5499236,70.4073945 C58.5499236,70.4073945 54.9243365,71.3177393 53.6677648,71.7797084 C51.6319827,70.6932516 46.5479249,68.0711627 44.5063457,66.9479244 C44.5063457,66.9479244 45.3707135,66.0279844 45.199799,64.7520224 C41.8984497,62.9565202 39.2967506,61.3607181 35.7875054,59.312942 C37.0086947,61.4470749 38.2478751,62.7404282 38.2478751,62.7404282 C38.2214883,64.0041963 37.7113434,64.6492737 37.7113434,64.6492737 C37.7113434,64.6492737 35.0158912,63.5618175 31.7221381,61.3347311 C31.5688148,62.680858 31.1478253,63.5774097 31.1478253,63.5774097 C29.1916035,63.1600184 25.2891548,61.4846561 23.8314837,60.7124423 C25.1276356,60.6740615 26.7884051,61.2479745 27.2743621,60.1275347 C27.1912037,56.1947012 25.2741623,52.5982995 21.990804,50.1363306 C22.5501244,51.0384795 23.0018985,51.9246364 23.2135926,52.9605184 C21.8964512,51.471463 18.0116937,49.6131922 16.185267,49.987405 C15.4757018,50.1889043 14.8567113,50.5953011 14.5168812,51.241378 C13.4656868,54.065366 18.2353419,58.1035468 18.2353419,58.1035468 C17.0762215,58.0379796 15.5276358,58.0361805 14.1461266,57.7869051 L10.3629383,53.4848562 L11.8600097,49.1108433 Z M46.3130423,94.4747603 C44.4647665,92.7920017 42.9389295,90.7198378 41.8946516,88.1943006 L41.813892,88.2390783 C41.813892,88.2390783 38.2426777,93.1696129 46.3130423,94.4747603 L46.3130423,94.4747603 Z M19.8614688,108.887953 L19.861089,108.887953 L22.7072458,112.385804 L12.9586803,112.385804 L9.46080936,108.887953 L9.46080936,142.423984 L64.0525721,142.423984 L64.0525721,108.887953 L60.5547211,112.385804 L52.0785594,112.385804 L56.3284344,108.887953 L57.9832069,100.435979 C56.8065953,100.187104 55.679159,99.8800575 54.5967003,99.5234358 C53.0868552,99.0260845 51.6657658,98.430982 50.3526224,97.7283334 C43.4528725,97.2963494 39.3337322,95.6361795 38.1103439,92.7920017 C36.9415283,90.0737609 38.8215882,87.2393781 39.4192894,86.4413771 C38.9853064,86.2332812 38.5365308,86.0181888 38.0779601,85.7994981 C35.0868557,84.3702128 31.7841072,82.7850054 29.1868059,81.1550205 C28.5901042,80.7806077 28.0183901,80.4043958 27.5102442,80.0263848 L27.3439274,79.9024468 L27.3349319,79.6949505 C27.3303341,79.5824068 27.2327829,76.9577192 28.0187899,73.7125419 C27.7675155,73.5034464 27.5310338,73.3095434 27.2851567,73.106245 L19.9083253,108.660467 L19.8614688,108.887953 Z M60.6286841,92.8817568 C60.6286841,92.8817568 57.4684643,92.273461 53.1983995,90.5041457 C53.1983995,90.5041457 54.6076948,94.0281836 56.8573699,95.3641156 C57.0206882,95.461267 57.2019976,95.5510221 57.3769101,95.6433759 C57.2589691,95.581207 57.1326323,95.5222365 57.0198886,95.4578687 C54.3350311,95.0766593 49.1368304,91.5216369 47.9270353,90.183506 C50.5333321,94.4467743 55.7623174,97.3389281 60.745026,98.1927012 C63.1730119,98.7808071 63.0120924,98.3856047 65.4776595,98.8861544 C65.4776595,98.8861544 60.6452758,96.2844554 60.6286841,92.8817568 Z M77.2507727,142.423984 L110.898348,142.423984 L125.263365,94.7953999 C123.960017,95.0260846 122.65347,95.3199376 121.349922,95.6555698 C119.569013,96.1141405 117.7939,96.6416767 116.041177,97.1638157 C112.410992,98.2442754 108.981906,99.2641654 105.809093,99.581007 C104.797199,99.6815567 103.716539,99.732931 102.5951,99.732931 C97.4038956,99.732931 92.2382786,98.6708621 89.2201877,97.869063 C90.2584685,99.0788581 91.2567693,101.15562 90.8237858,104.523736 L90.7382286,105.190202 L90.165515,104.838778 C87.1928014,103.016889 84.5669144,102.872561 81.4422768,102.872561 L80.4893533,102.872961 C78.3632164,102.872961 76.244276,102.816989 73.8600681,102.247274 C75.0774594,103.729932 75.412292,105.166014 75.430283,105.243176 L75.7037462,106.461966 L74.7330316,105.676159 C72.8153905,104.124535 70.9988988,103.153621 68.8947509,102.467963 C67.7003481,102.078958 66.4119923,101.780707 64.9581193,101.524435 L77.2507727,142.423984 Z M124.099547,142.423984 L178.69185,142.423984 L178.69185,108.887953 L178.69125,108.887953 L175.193399,112.385804 L165.444074,112.385804 L168.29205,108.887553 L159.857067,68.2348809 C158.755218,69.0242861 157.709141,69.7531217 156.734829,70.4131916 C152.868762,73.0316823 150.048372,74.65627 148.630081,75.4640661 C151.048072,76.0343809 156.202495,78.0923519 159.319336,82.867764 C159.35132,82.9171394 159.386703,82.9623168 159.418487,83.0122918 C159.3927,82.989903 159.362715,82.9727116 159.336528,82.9509225 C157.55302,81.4594682 154.925134,80.9675142 152.128532,80.9671144 C146.076758,80.9667146 138.989502,84.4807575 134.755619,86.5793082 C133.294949,87.3043456 132.178308,87.8554701 131.445074,88.1049453 C131.305144,88.1525215 131.17401,88.1931012 131.062865,88.217489 C130.271661,88.3908024 129.086454,88.7114421 128.056768,89.001497 L128.146124,89.4512721 C129.494649,89.9726114 130.81259,90.7192381 132.146324,91.6311821 C133.466264,92.5337308 134.803395,93.5866044 136.210491,94.7410271 C135.127233,94.397199 133.924434,94.3102425 132.675659,94.2934509 C131.927633,94.283256 131.162815,94.2982485 130.397198,94.2982485 C129.97281,94.2982485 129.546024,94.3228362 129.119437,94.3450251 L132.011991,108.887953 L132.011591,108.887953 L136.27366,112.385804 L127.597398,112.385804 L124.099547,108.887953 L124.099547,142.423984 Z M170.085953,58.0275848 C165.260366,56.8729621 161.350521,58.7908031 157.000496,60.7144413 C152.65247,62.6334817 145.286353,64.9609179 139.050071,63.3823073 C139.591201,63.3417276 140.128732,63.2813577 140.663865,63.2059954 C141.931031,63.0950509 143.583205,62.7624172 145.657368,62.0033968 C149.514839,60.7042464 153.074659,58.6448761 156.098347,56.2920526 C164.293449,50.3624175 167.567012,42.1943018 174.741625,37.4988496 C167.078457,39.0210885 160.577707,42.2312833 154.299646,46.2382797 C152.195898,47.5852062 150.35302,49.2249863 148.41319,50.8861556 C151.157817,48.7762107 159.459266,45.387705 162.326033,44.7924027 C157.592,47.5312332 150.093749,57.9452259 139.909242,60.4933518 C139.597598,60.7926022 139.318737,61.0556706 139.057668,61.3001484 C138.745824,61.5744113 138.102545,62.1497236 137.334729,62.8919525 L137.336528,62.892952 C136.589302,63.5936016 135.883455,64.2978495 134.83258,65.4918524 C138.5921,66.8417774 146.55352,66.2776595 151.781106,64.6318824 C145.768512,70.3596184 135.721336,73.1510227 126.667063,72.5257353 C125.49445,73.5000481 124.522136,74.29625 123.5942,75.0312825 C123.575609,75.0286838 123.556019,75.0276843 123.537228,75.0250856 C123.537228,75.0250856 122.387803,75.9624169 121.141026,76.7965998 C121.141026,76.7965998 121.179207,76.808194 121.246973,76.8267847 C120.350622,77.4888536 119.389902,78.1749106 118.226684,78.982107 C118.23488,79.0302829 118.243275,79.0786587 118.249272,79.1262349 C122.163515,80.6580689 126.247873,81.3415272 130.251271,80.9115422 C130.27306,80.9383288 122.807393,84.9207375 110.794,82.8347805 C106.795799,84.7222368 103.657569,86.3308324 99.2627661,87.7203376 C102.289853,89.1886035 108.450772,90.527534 111.873061,90.8551701 C109.210992,91.65537 100.931332,93.6861546 91.3821067,89.9182386 C90.1493231,90.2026964 87.4158899,90.8205874 85.1812073,91.2485734 C85.0622667,91.271362 84.9451253,91.293351 84.8295831,91.3149402 C84.7188385,91.33553 84.6074941,91.3565195 84.5001478,91.3761097 C84.2722618,91.4172891 84.0521718,91.4558698 83.8432763,91.4908523 C83.7787086,91.5016469 83.719738,91.5106424 83.6573692,91.5208373 C83.5010474,91.5462246 83.3521219,91.5692131 83.2111923,91.5896029 C83.1446256,91.599398 83.0788585,91.6087933 83.0160899,91.617389 C82.8335811,91.6421766 82.6600679,91.6639657 82.5131414,91.6775589 C89.1846055,94.4769592 93.9490231,95.8730611 101.940027,96.2594679 C110.967713,96.6944504 117.7945,91.1038458 127.241376,92.3608173 C121.127433,88.9153401 114.357618,89.55542 107.819687,87.0012972 C108.801197,87.1746105 109.758118,87.3047454 110.702846,87.4150903 C114.217288,87.9488234 119.015889,88.2468744 124.620886,87.4744606 C129.3929,86.8163896 133.87406,84.589703 138.334629,82.5081439 C140.322635,81.6505727 142.127533,80.8307826 143.770911,80.1687136 C145.478057,79.5290335 147.197198,79.0036962 148.945324,78.7016472 C140.540126,75.6463749 133.597998,81.1963998 124.73343,77.4734613 C124.730432,77.4550705 124.728033,77.4356802 124.725234,77.4168896 C125.057068,77.4442759 125.419087,77.4572694 125.782106,77.4694633 C125.852271,77.4734613 125.923835,77.4766597 125.995399,77.480058 C126.044774,77.4814573 126.089552,77.4850555 126.139527,77.486055 C130.592301,77.6793584 137.75392,77.0714623 146.55352,73.0468747 C148.010991,72.3802081 149.364714,71.6511726 150.655868,70.8895535 C152.459566,69.8726619 154.208092,68.738629 155.839676,67.4514726 C155.844674,67.4472747 155.849671,67.4432767 155.854669,67.4388789 C160.701445,63.9042463 164.846573,60.2308831 170.085953,58.0275848 L170.085953,58.0275848 Z M157.441675,29.2611687 C166.810191,29.2611687 176.201295,30.1835075 186.15032,32.0807588 L187.332129,32.3066459 L186.280255,32.8881551 C181.082854,35.7615183 177.541825,39.0606687 174.361415,42.189904 C171.758317,44.8155911 169.437477,47.5624176 167.389701,49.9858058 C166.035778,51.5852061 164.746623,53.1112431 163.520835,54.4307832 C165.047072,54.4537718 172.339226,55.1748112 178.253669,59.2659655 C174.941725,58.6664653 171.482454,59.8960505 167.584803,62.3350309 C166.283054,63.3903033 165.033279,64.3704132 163.830281,65.2909529 L171.944024,104.398398 L183.180605,104.398398 L183.180605,146.913739 L119.609392,146.913739 L119.609392,129.088652 L114.23448,146.913739 L73.912242,146.913739 L68.542527,129.047873 L68.542527,146.913739 L4.97063456,146.913739 L4.97063456,104.398398 L16.207136,104.398398 L23.3679155,69.8838563 C21.0638675,67.9928019 18.8264463,66.1433267 16.3590001,63.9820074 C15.1447672,63.9494237 13.4286853,63.9206381 13.4286853,63.9206381 L13.2842975,63.9190389 L13.1702146,63.8312828 C10.4437579,61.7379295 6.52205881,56.6564703 4.84601687,54.4865554 L4.71678149,54.3184394 L4.76965505,54.1125424 C4.80665655,53.969214 5.66512729,50.6920527 7.05857054,48.4389793 C6.49331318,47.3547215 6.01191389,46.1155411 5.99082444,46.0595691 L5.8925136,45.8070953 L6.07696137,45.6071953 C6.64213876,44.9978999 7.25277343,44.0649664 7.89207377,42.8331823 L8.00083938,42.6230874 L10.225507,42.4081948 L10.5223985,40.8603688 L9.19166394,39.9892044 L9.3239378,39.65797 C9.76229861,38.5597192 10.175532,37.4024978 10.4877159,36.3982 L10.5602596,36.1683149 L10.7930432,36.1069456 C11.0408793,36.0425778 11.725397,35.8340821 12.631424,35.5596193 C16.3191,34.4395793 20.0021984,33.3417283 20.976911,33.3041471 L21.0924532,33.3001491 L21.1952019,33.3549217 C24.1733127,34.9217383 27.0474756,36.6094943 29.9100442,38.3528226 L36.970114,4.32423777 L88.3746105,4.32423777 L94.0759597,25.7417285 L99.7775087,4.32423777 L151.181206,4.32423777 L156.357817,29.2743621 C156.720836,29.2715635 157.075458,29.2611687 157.441675,29.2611687 L157.441675,29.2611687 Z" id="path52" fill="#231F20"></path>
                        <path d="M59.3407781,96.8338307 C59.1746299,96.667164 59.0032976,96.5037148 58.8407781,96.3338307 C59.0032976,96.5037148 59.1743707,96.667164 59.3407781,96.8338307" id="path54" fill="#231F20"></path>
                        <path d="M60.4000485,97.2568192 C60.2346381,97.090527 60.0642026,96.9242349 59.9000485,96.7568192 C60.0642026,96.9242349 60.2346381,97.090527 60.4000485,97.2568192" id="path56" fill="#231F20"></path>
                        <path d="M63.5056956,98.3695168 C63.3388567,98.2081835 63.1730509,98.0561835 63.0056956,97.8948501 C63.1730509,98.0561835 63.3388567,98.2081835 63.5056956,98.3695168" id="path58" fill="#231F20"></path>
                        <path d="M64.5205881,98.7828561 C64.3548191,98.6110295 64.1869555,98.4515868 64.0205881,98.2828561 C64.1869555,98.4515868 64.3548191,98.6110295 64.5205881,98.7828561" id="path60" fill="#231F20"></path>
                        <path d="M58.3540715,96.391252 C58.1868538,96.2249318 58.0153847,96.0617301 57.8540715,95.891252 C58.0153847,96.0622499 58.1868538,96.2249318 58.3540715,96.391252" id="path62" fill="#231F20"></path>
                        <path d="M66.7154406,88.9743106 C66.8301073,88.9943106 66.9514406,89.007644 67.0661073,89.0263106 C66.8434406,88.9943106 66.7154406,88.9743106 66.7154406,88.9743106" id="path64" fill="#231F20"></path>
                        <path d="M10.89939,46.8193634 L9.04587684,47.3169981 C9.04587684,47.3169981 10.3373311,46.7770285 10.89939,46.8193634" id="path66" fill="#AEA057"></path>
                        <path d="M9.04587684,46.9421278 L10.0848773,49.4946514 C9.81063444,48.9809083 9.24771591,47.7147414 9.04587684,46.9421278" id="path68" fill="#AEA057"></path>
                        <path d="M23.8572708,58.2840565 C24.0983502,58.2824573 24.1861063,58.0195888 24.050774,57.5836068 C23.3049469,55.419289 21.7717136,52.863367 19.1618186,52.1811081 C18.6199895,52.1199387 17.5907442,52.0035969 17.5189801,52.5879047 C17.345147,54.649274 19.73903,55.1864054 21.1220385,56.2362805 C21.1898046,56.3016478 21.2685652,56.375211 21.3365312,56.4399786 C20.8143923,56.7274349 19.8357816,56.4055958 19.2222684,56.3836068 C20.4743623,57.5546212 22.0141924,58.2768601 23.8572708,58.2840565 L23.8572708,58.2840565 Z M41.2417781,74.0873545 C41.2417781,74.0873545 41.253972,74.0977493 41.2743618,74.1149407 C44.0331823,76.3410276 50.275461,79.7553203 51.9222376,80.413991 C52.5243365,80.6614672 55.351323,80.0181889 55.351323,80.0181889 C55.351323,80.0181889 55.979209,75.2287837 51.723337,72.9119422 C50.1781097,72.0709627 48.8261857,71.2407778 45.6313832,70.7250357 C40.3192394,69.8656654 35.6319831,72.3690137 35.6319831,72.3690137 C38.9923029,72.5992985 41.2417781,74.0873545 41.2417781,74.0873545 Z M18.2353419,58.1035468 C18.2353419,58.1035468 13.4656868,54.065366 14.5168812,51.241378 C14.8567113,50.5953011 15.4757018,50.1889043 16.185267,49.987405 C18.0116937,49.6131922 21.8964512,51.471463 23.2135926,52.9605184 C23.0018985,51.9246364 22.5501244,51.0384795 21.990804,50.1363306 C25.2741623,52.5982995 27.1912037,56.1947012 27.2743621,60.1275347 C26.7884051,61.2479745 25.1276356,60.6740615 23.8314837,60.7124423 C25.2891548,61.4846561 29.1916035,63.1600184 31.1478253,63.5774097 C31.1478253,63.5774097 31.5688148,62.680858 31.7221381,61.3347311 C35.0158912,63.5618175 37.7113434,64.6492737 37.7113434,64.6492737 C37.7113434,64.6492737 38.2214883,64.0041963 38.2478751,62.7404282 C38.2478751,62.7404282 37.0086947,61.4470749 35.7875054,59.312942 C39.2967506,61.3607181 41.8984497,62.9565202 45.199799,64.7520224 C45.3707135,66.0279844 44.5063457,66.9479244 44.5063457,66.9479244 C46.5479249,68.0711627 51.6319827,70.6932516 53.6677648,71.7797084 C54.9243365,71.3177393 58.5499236,70.4073945 58.5499236,70.4073945 C56.4039966,68.7430268 54.8125923,66.9805081 54.5963005,64.9889039 C54.033382,62.262867 54.8819576,60.1303333 56.9041465,58.5481245 C59.5126422,56.8173899 64.190703,56.5661155 68.1943011,57.941028 C74.91634,61.6237866 75.8552705,73.044276 71.9702131,78.5637162 C72.8837563,78.7870045 74.6126918,78.9675143 74.6126918,78.9675143 C76.2132914,79.152022 78.0373794,79.0478741 78.0373794,79.0478741 C79.1458251,77.5252354 80.3474243,74.1990986 80.3474243,74.1990986 C94.7824064,73.8234864 113.090452,62.0305832 122.240677,49.7763106 C135.851271,31.5508238 167.11184,34.7826078 167.11184,34.7826078 C167.11184,34.7826078 166.97171,34.8349816 166.720835,34.9345319 C134.805594,45.2589694 137.777308,61.6185892 105.222586,79.1108426 C82.93593,91.0848553 67.7455255,89.1244356 66.7680143,88.9821067 C66.7508229,88.9793081 66.732632,88.9773091 66.7154406,88.9743106 C68.1527219,89.757519 71.1995984,92.0215869 72.4855554,93.2657648 C72.7032466,98.5673139 87.9438259,95.9800076 88.3452252,101.473261 C83.7643157,98.611092 71.6399782,102.342426 65.146825,94.5197378 C63.3415277,92.5235359 64.4725621,90.4459748 65.3501233,88.8167894 C61.8060954,87.9694131 56.7138417,86.7292332 54.405196,85.9850053 C56.4689641,87.5064446 58.75702,88.4487734 60.8523723,89.9712121 C60.8523723,89.9712121 60.6778596,90.399398 60.6384792,90.6726614 C54.3464254,88.7532212 44.2108934,82.5959 39.2407786,79.5098431 C39.5802089,80.7434263 39.9624178,82.8471743 40.3962009,83.8136911 C38.2758611,82.7402278 33.0264859,78.2116922 33.0264859,78.2116922 L31.1622181,78.7632164 C31.1622181,78.7632164 31.0042971,77.0036962 31.4696644,75.3005478 C33.3173405,76.5251355 37.1258362,78.232082 37.1258362,78.232082 C37.1256363,78.2318821 37.1148417,78.2228866 37.1128427,78.2210875 C37.1178402,78.2248856 37.1272355,78.232082 37.1272355,78.232082 L19.9279955,61.5522223 L17.1547822,61.2079945 L14.1461266,57.7869051 C15.5276358,58.0361805 17.0762215,58.0379796 18.2353419,58.1035468 L18.2353419,58.1035468 Z" id="path70" fill="#AEA057"></path>
                        <path d="M69.5788089,58.4973499 C69.1432267,58.2962504 68.6958504,58.1145413 68.2380793,57.9554208 C68.6960503,58.1141415 69.1430268,58.2954508 69.5788089,58.4973499" id="path72" fill="#AEA057"></path>
                        <path d="M71.0778593,59.3059455 C70.6714625,59.047075 70.2414775,58.8183893 69.8016974,58.6054958 C70.2412776,58.818989 70.6714625,59.047075 71.0778593,59.3059455" id="path74" fill="#AEA057"></path>
                        <path d="M31.1622181,78.7632164 C31.6787598,79.2077941 32.3350317,79.6663648 33.0576703,80.1177391 C32.2276854,79.629983 31.5498243,79.1672144 31.1622181,78.7632164" id="path76" fill="#AEA057"></path>
                        <path d="M139.262165,61.1214378 C139.262165,61.1214378 139.184604,61.1884043 139.057668,61.3001484 C139.318737,61.0556706 139.597598,60.7926022 139.909242,60.4933518 C150.093749,57.9452259 157.592,47.5312332 162.326033,44.7924027 C159.459266,45.387705 151.157817,48.7762107 148.41319,50.8861556 C150.35302,49.2249863 152.195898,47.5852062 154.299646,46.2382797 C160.577707,42.2312833 167.078457,39.0210885 174.741625,37.4988496 C166.965913,40.1367306 156.238077,60.7576197 139.262165,61.1214378" id="path78" fill="#643721"></path>
                        <path d="M156.238077,65.0270848 C144.907543,73.3429267 133.370312,76.3668147 123.5942,75.0312825 C124.522136,74.29625 125.49445,73.5000481 126.667063,72.5257353 C135.721336,73.1510227 145.768512,70.3596184 151.781106,64.6318824 C146.55352,66.2776595 138.5921,66.8417774 134.83258,65.4918524 C135.883455,64.2978495 136.589302,63.5936016 137.336528,62.892952 C137.355519,62.9023473 138.394199,63.4044962 140.663865,63.2059954 C140.128732,63.2813577 139.591201,63.3417276 139.050071,63.3823073 C145.286353,64.9609179 152.65247,62.6334817 157.000496,60.7144413 C161.350521,58.7908031 165.260366,56.8729621 170.085953,58.0275848 C164.466962,59.2999485 159.265163,62.8061953 156.238077,65.0270848" id="path80" fill="#643721"></path>
                        <path d="M155.09245,57.0080945 C155.441076,56.7756108 155.766313,56.5323324 156.098347,56.2920526 C153.074659,58.6448761 149.514839,60.7042464 145.657368,62.0033968 C148.164714,61.0860554 151.284554,59.547025 155.09245,57.0080945" id="path82" fill="#643721"></path>
                        <path d="M83.5160899,91.5896029 C83.3454956,91.6549362 83.1769505,91.7176029 83.0160899,91.7749362 C83.1769505,91.7176029 83.3454956,91.6549362 83.5160899,91.5896029" id="path84" fill="#643721"></path>
                        <path d="M85.0001478,91.3149402 C84.8323687,91.4522736 84.6630726,91.5922736 84.5001478,91.7229402 C84.6630726,91.5922736 84.8320653,91.4522736 85.0001478,91.3149402" id="path86" fill="#643721"></path>
                        <path d="M125.995399,77.480058 C126.158367,77.496058 126.330351,77.5053914 126.495399,77.520058 C126.322029,77.5133914 126.166689,77.4893914 125.995399,77.480058" id="path88" fill="#643721"></path>
                        <path d="M124.725234,77.4168896 C124.728033,77.4356802 124.730432,77.4550705 124.73343,77.4734613 C133.597998,81.1963998 140.540126,75.6463749 148.945324,78.7016472 C142.299847,78.1595183 136.837378,81.4650654 133.458068,83.0966496 C129.359517,85.073661 119.829282,87.9954001 106.976309,84.8159899 C106.348623,85.0794581 105.286754,85.6121918 104.399797,85.9080438 C104.399797,85.9080438 106.731232,86.8119918 110.702846,87.4150903 C109.758118,87.3047454 108.801197,87.1746105 107.819687,87.0012972 C114.357618,89.55542 121.127433,88.9153401 127.241376,92.3608173 C118.082156,89.2793581 110.809792,94.9749102 101.783706,94.5405274 C95.0756598,94.2170891 90.6408773,93.179408 85.4418769,91.199398 C85.3525216,91.2167893 85.2693632,91.2317818 85.1812073,91.2485734 C87.4158899,90.8205874 90.1493231,90.2026964 91.3821067,89.9182386 C100.931332,93.6861546 109.210992,91.65537 111.873061,90.8551701 C108.450772,90.527534 102.289853,89.1886035 99.2627661,87.7203376 C103.657569,86.3308324 106.795799,84.7222368 110.794,82.8347805 C122.807393,84.9207375 130.27306,80.9383288 130.251271,80.9115422 C126.247873,81.3415272 122.163515,80.6580689 118.249272,79.1262349 C118.243275,79.0786587 118.23488,79.0302829 118.226684,78.982107 C119.389902,78.1749106 120.350622,77.4888536 121.246973,76.8267847 C121.650572,76.9375293 123.235979,77.3307327 125.782106,77.4694633 C125.419087,77.4572694 125.057068,77.4442759 124.725234,77.4168896" id="path90" fill="#643721"></path>
                        <path d="M155.839676,67.4514726 C154.208092,68.738629 152.459566,69.8726619 150.655868,70.8895535 C152.51234,69.7947009 154.226083,68.626485 155.854669,67.4388789 C155.849671,67.4432767 155.844674,67.4472747 155.839676,67.4514726" id="path92" fill="#643721"></path>
                        <path d="M138.334629,82.5081439 C140.143725,81.6637661 141.950421,80.8507726 143.770911,80.1687136 C142.127533,80.8307826 140.322635,81.6505727 138.334629,82.5081439" id="path94" fill="#643721"></path>
                        <path d="M84.1573692,91.4908523 C83.9831757,91.5628523 83.8251112,91.6228523 83.6573692,91.6908523 C83.8251112,91.6228523 83.9837133,91.5628523 84.1573692,91.4908523" id="path96" fill="#643721"></path>
                        <path d="M21.3365312,56.4399786 C21.2685652,56.375211 21.1898046,56.3016478 21.1220385,56.2362805 C19.73903,55.1864054 17.345147,54.649274 17.5189801,52.5879047 C17.5907442,52.0035969 18.6199895,52.1199387 19.1618186,52.1811081 C21.7717136,52.863367 23.3049469,55.419289 24.050774,57.5836068 C24.1861063,58.0195888 24.0983502,58.2824573 23.8572708,58.2840565 C22.0141924,58.2768601 20.4743623,57.5546212 19.2222684,56.3836068 C19.8357816,56.4055958 20.8143923,56.7274349 21.3365312,56.4399786" id="path98" fill="#231F20"></path>
                        <path d="M30.6112936,49.0330822 C30.6112936,49.0330822 26.9177405,45.8834571 25.4684651,45.0360808 C26.3700143,46.7418279 29.0546719,49.7569203 29.0546719,49.7569203 C26.4923532,49.2585695 21.8874557,44.8199889 19.8796597,42.1533223 C17.3314938,42.4399789 15.1424284,42.8153912 13.0335629,42.8075951 C13.0335629,42.8075951 13.3145224,41.1950015 13.4460167,40.5183398 C15.7999196,40.0053963 18.8104343,39.5062459 20.4101944,39.1632174 C22.1805092,39.763917 27.252573,42.5821079 29.1400293,44.0551713 C29.1400293,44.0551713 30.1147419,46.8207884 30.6112936,49.0330822" id="path100" fill="#FFFFFF"></path>
                        <path d="M34.8157912,49.6849563 C35.3469257,51.1952011 38.4217881,55.1894039 38.4217881,55.1894039 C37.7893044,55.8920526 36.0777602,56.6482744 36.0777602,56.6482744 C32.8669657,55.8216878 29.1432277,53.2219877 29.1432277,53.2219877 C31.9376304,54.0297838 33.5922031,54.4389791 34.6388797,53.7117428 C35.6847567,52.9835069 34.8157912,49.6849563 34.8157912,49.6849563" id="path102" fill="#AEA057"></path>
                        <path d="M101.976409,41.6221879 C100.795999,45.6647665 92.7530212,57.2125923 81.1296332,60.8671649 C81.1296332,60.8671649 80.2914523,57.1468252 77.6655653,54.9449262 C84.4143907,51.4276849 87.6385785,45.8694641 88.4713621,43.0588695 C89.3025465,40.2468756 88.0859548,37.5422279 87.2213871,37.0192894 C89.6713621,37.3329326 97.4326812,38.322038 99.8756597,38.6336822 C101.979208,39.0568706 102.253671,40.7150415 101.976409,41.6221879" id="path104" fill="#AEA057"></path>
                        <path d="M46.2766605,74.9621171 C47.1108434,75.4980491 47.9950013,76.0515723 48.933532,76.6134913 C49.4156909,76.9039461 49.8810582,77.1764099 50.359419,77.4484738 C50.6656659,76.9697132 50.8037968,76.4153904 50.7312331,75.7845059 C50.5037469,74.1727118 49.0218878,72.9321321 47.2809583,72.9001481 C46.2382797,72.9069447 45.4084946,73.3527218 44.903747,74.0675644 C45.323737,74.346225 45.7735121,74.6390786 46.2766605,74.9621171 L46.2766605,74.9621171 Z M45.6313832,70.7250357 C48.8261857,71.2407778 50.1781097,72.0709627 51.723337,72.9119422 C55.979209,75.2287837 55.351323,80.0181889 55.351323,80.0181889 C55.351323,80.0181889 52.5243365,80.6614672 51.9222376,80.413991 C50.275461,79.7553203 44.0331823,76.3410276 41.2743618,74.1149407 C41.253972,74.0977493 41.2417781,74.0873545 41.2417781,74.0873545 C41.2417781,74.0873545 38.9923029,72.5992985 35.6319831,72.3690137 C35.6319831,72.3690137 40.3192394,69.8656654 45.6313832,70.7250357 L45.6313832,70.7250357 Z" id="path106" fill="#231F20"></path>
                        <path d="M48.933532,76.6134913 C49.3130831,76.3760101 49.496965,76.0989486 49.4130394,75.7811076 C49.4983795,76.0989486 49.3130831,76.3776093 48.933532,76.6134913" id="path108" fill="#231F20"></path>
                        <path d="M105.222586,79.1108426 C137.777308,61.6185892 134.805594,45.2589694 166.720835,34.9345319 C166.884554,34.8815583 167.043674,34.8275853 167.209191,34.7750116 C137.444075,48.6744616 133.903245,68.3002482 105.503646,81.5154402 C93.0498727,87.3111422 80.6534712,92.2762596 66.7154406,88.9743106 C66.7154406,88.9743106 66.734631,88.9773091 66.7680143,88.9821067 C67.7455255,89.1244356 82.93593,91.0848553 105.222586,79.1108426" id="path110" fill="#FFFFFF"></path>
                        <path d="M17.1547822,61.2079945 C17.1547822,61.2079945 15.2399596,61.1760105 13.8397998,60.6386791 C13.8397998,60.6386791 9.97829061,56.7080446 8.40431763,54.0887543 C8.40431763,54.0887543 8.83128414,51.6567703 10.0848773,49.4946514 L9.04587684,46.9421278 L10.89939,46.81759 L11.8600097,49.1108433 L10.3629383,53.4848562 L14.1461266,57.7869051 L17.1547822,61.2079945" id="path112" fill="#FFFFFF"></path>
                        <path d="M37.1272355,78.232082 C37.1272355,78.232082 37.1178402,78.2248856 37.1128427,78.2210875 C36.8083949,77.990003 27.1164411,70.6174895 17.1547822,61.2079945 L19.9279955,61.5522223 L37.1272355,78.232082" id="path114" fill="#FFFFFF"></path>
                        <path d="M40.3962009,83.8136911 C40.3962009,83.8136911 36.1231375,82.0321819 33.0576703,80.1177391 C32.3350317,79.6663648 31.6787598,79.2077941 31.1622181,78.7632164 L33.0264859,78.2116922 C33.0264859,78.2116922 38.2758611,82.7402278 40.3962009,83.8136911" id="path116" fill="#FFFFFF"></path>
                        <path d="M64.3546211,98.4119915 C64.2438765,98.3676137 64.1317325,98.3264343 64.0205881,98.2828561 C63.7471248,98.1757097 63.4740614,98.0687632 63.1991988,97.9660145 C63.1346311,97.9418266 63.0704632,97.919038 63.0056956,97.8948501 C62.0319825,97.5342304 61.0620674,97.1934009 60.1387291,96.8457747 C60.0597686,96.8161895 59.9784093,96.7866043 59.9000485,96.7568192 C59.6699635,96.6690631 59.449074,96.5789081 59.2263853,96.489153 C59.0980495,96.4373789 58.9661155,96.3866043 58.8407781,96.3338307 C58.6464753,96.2524714 58.4633669,96.1675138 58.2772599,96.0835558 C58.1357307,96.0195878 57.9906032,95.9570191 57.8540715,95.891252 C57.6881545,95.811292 57.5344313,95.7265343 57.3769101,95.6433759 C57.2019976,95.5510221 57.0206882,95.461267 56.8573699,95.3641156 C54.6076948,94.0281836 53.1983995,90.5041457 53.1983995,90.5041457 C57.4684643,92.273461 60.6286841,92.8817568 60.6286841,92.8817568 C60.6452758,96.2844554 65.4776595,98.8861544 65.4776595,98.8861544 C65.108644,98.7214368 64.7332318,98.5641155 64.3546211,98.4119915" id="path118" fill="#643721"></path>
                        <path d="M58.2772599,96.0835558 C58.4633669,96.1675138 58.6464753,96.2524714 58.8407781,96.3338307 C58.9661155,96.3866043 59.0982494,96.4373789 59.2263853,96.489153 C59.449074,96.5789081 59.6699635,96.6690631 59.9000485,96.7568192 C59.9784093,96.7866043 60.0597686,96.8161895 60.1387291,96.8457747 C61.0620674,97.1934009 62.0319825,97.5342304 63.0056956,97.8948501 C63.0704632,97.919038 63.1346311,97.9418266 63.1991988,97.9660145 C63.4740614,98.0687632 63.7471248,98.1757097 64.0205881,98.2828561 C64.1317325,98.3264343 64.2438765,98.3676137 64.3546211,98.4119915 C64.7332318,98.5641155 65.108644,98.7214368 65.4776595,98.8861544 C63.0120924,98.3856047 63.1730119,98.7808071 60.745026,98.1927012 C55.7623174,97.3389281 50.5333321,94.4467743 47.9270353,90.183506 C49.1368304,91.5216369 54.3350311,95.0766593 57.0198886,95.4578687 C57.1326323,95.5222365 57.2589691,95.581207 57.3769101,95.6433759 C57.5344313,95.7265343 57.6881545,95.811292 57.8540715,95.891252 C57.9906032,95.9568192 58.1357307,96.0195878 58.2772599,96.0835558" id="path120" fill="#FFFFFF"></path>
                        <path d="M47.2809583,72.9001481 C49.0218878,72.9321321 50.5037469,74.1727118 50.7312331,75.7845059 C50.8037968,76.4153904 50.6656659,76.9697132 50.359419,77.4484738 C49.8810582,77.1764099 49.4156909,76.9039461 48.933532,76.6134913 C49.0944515,76.3776093 49.1730123,76.0989486 49.1368304,75.7811076 C49.0286844,74.9937013 48.3018479,74.3874044 47.4472752,74.3716123 C46.9295341,74.3752105 46.5183397,74.6012975 46.2766605,74.9621171 C45.7735121,74.6390786 45.323737,74.346225 44.903747,74.0675644 C45.4084946,73.3527218 46.2382797,72.9069447 47.2809583,72.9001481" id="path122" fill="#A4A5A6"></path>
                        <path d="M47.4472752,74.3716123 C48.3018479,74.3874044 49.0286844,74.9937013 49.1368304,75.7811076 C49.1724126,76.0989486 49.0944515,76.3760101 48.933532,76.6134913 C47.9950013,76.0515723 47.1108434,75.4980491 46.2766605,74.9621171 C46.5183397,74.6012975 46.9295341,74.3752105 47.4472752,74.3716123" id="path124" fill="#FFFFFF"></path>
                        <path d="M106.976309,84.8159899 C119.829282,87.9954001 129.359517,85.073661 133.458068,83.0966496 C136.837378,81.4650654 142.299847,78.1595183 148.945324,78.7016472 C147.197198,79.0036962 145.478057,79.5290335 143.770911,80.1687136 C141.950421,80.8507726 140.143725,81.6637661 138.334629,82.5081439 C133.87406,84.589703 129.3929,86.8163896 124.620886,87.4744606 C119.015889,88.2468744 114.217288,87.9488234 110.702846,87.4150903 C106.731232,86.8119918 104.399797,85.9080438 104.399797,85.9080438 C105.286754,85.6121918 106.348623,85.0794581 106.976309,84.8159899" id="path126" fill="#FFFFFF"></path>
                        <path d="M155.854669,67.4388789 C154.226083,68.626485 152.51234,69.7947009 150.655868,70.8895535 C149.364714,71.6511726 148.010991,72.3802081 146.55352,73.0468747 C137.75392,77.0714623 130.592301,77.6793584 126.139527,77.486055 C126.091951,77.4838561 126.042376,77.4824568 125.995399,77.480058 C125.923835,77.4766597 125.852271,77.4734613 125.782106,77.4694633 C123.235979,77.3307327 121.650572,76.9375293 121.246973,76.8267847 C121.179207,76.808194 121.141026,76.7965998 121.141026,76.7965998 C122.387803,75.9624169 123.537228,75.0250856 123.537228,75.0250856 C123.556019,75.0276843 123.575609,75.0286838 123.5942,75.0312825 C133.370312,76.3668147 144.907543,73.3429267 156.238077,65.0270848 C159.265163,62.8061953 164.466962,59.2999485 170.085953,58.0275848 C164.846573,60.2308831 160.701445,63.9042463 155.854669,67.4388789" id="path128" fill="#FFFFFF"></path>
                        <path d="M137.336528,62.892952 L137.334729,62.8919525 C138.102545,62.1497236 138.745824,61.5744113 139.057668,61.3001484 C139.184604,61.1884043 139.262165,61.1214378 139.262165,61.1214378 C156.238077,60.7576197 166.965913,40.1367306 174.741625,37.4988496 C167.567012,42.1943018 164.293449,50.3624175 156.098347,56.2920526 C155.766313,56.5323324 155.441076,56.7756108 155.09245,57.0080945 C151.284554,59.547025 148.164714,61.0860554 145.657368,62.0033968 C143.583205,62.7624172 141.931031,63.0950509 140.663865,63.2059954 C138.394199,63.4044962 137.355519,62.9023473 137.336528,62.892952" id="path130" fill="#FFFFFF"></path>
                        <path d="M68.1943011,57.941028 C68.1879043,57.9378296 68.1823071,57.9336317 68.1761102,57.9304333 C68.1972996,57.9376297 68.2170897,57.9480245 68.2380793,57.9554208 C68.6958504,58.1145413 69.1432267,58.2962504 69.5788089,58.4973499 C69.6541712,58.5321325 69.7273346,58.5693139 69.8016974,58.6054958 C70.2414775,58.8183893 70.6714625,59.047075 71.0778593,59.3059455 C78.8769595,63.2589689 76.5327317,76.804196 74.6126918,78.9675143 C74.6126918,78.9675143 72.8837563,78.7870045 71.9702131,78.5637162 C75.8552705,73.044276 74.91634,61.6237866 68.1943011,57.941028" id="path132" fill="#FFFFFF"></path>
                        <path d="M41.813892,88.2390783 L41.8946516,88.1943006 C42.9389295,90.7198378 44.4647665,92.7920017 46.3130423,94.4747603 C38.2426777,93.1696129 41.813892,88.2390783 41.813892,88.2390783" id="path134" fill="#AEA057"></path>
                        <path d="M101.783706,94.5405274 C110.809792,94.9749102 118.082156,89.2793581 127.241376,92.3608173 C117.7945,91.1038458 110.967713,96.6944504 101.940027,96.2594679 C93.9490231,95.8730611 89.1846055,94.4769592 82.5131414,91.6775589 C82.6600679,91.6639657 82.8335811,91.6421766 83.0160899,91.617389 C83.0788585,91.6087933 83.1446256,91.599398 83.2111923,91.5896029 C83.3521219,91.5692131 83.5010474,91.5462246 83.6573692,91.5208373 C83.719738,91.5106424 83.7785087,91.5016469 83.8432763,91.4908523 C84.0521718,91.4558698 84.2722618,91.4172891 84.5001478,91.3761097 C84.6074941,91.3565195 84.7190384,91.33553 84.8295831,91.3149402 C84.9451253,91.293351 85.0622667,91.271362 85.1812073,91.2485734 C85.2693632,91.2317818 85.3525216,91.2167893 85.4418769,91.199398 C90.6408773,93.179408 95.0756598,94.2170891 101.783706,94.5405274" id="path136" fill="#FFFFFF"></path>
                        <path d="M188.312839,46.8953512 C188.389401,46.8653661 188.449371,46.8193891 188.492749,46.7578199 C188.535727,46.6962507 188.557317,46.6266855 188.557317,46.5487245 C188.557317,46.4279848 188.512539,46.3306335 188.422984,46.2572702 C188.333429,46.1839069 188.165513,46.1471253 187.919036,46.1471253 L187.404093,46.1471253 L187.404093,46.9409284 L187.886652,46.9409284 C188.093948,46.9409284 188.236077,46.925736 188.312839,46.8953512 L188.312839,46.8953512 Z M186.979705,47.2971502 L186.979705,44.6666655 L187.404093,44.6666655 L187.404093,45.7843067 L187.653569,45.7843067 C187.802494,45.7843067 187.916037,45.7539219 187.993598,45.6935521 C188.105942,45.6115931 188.253868,45.4072952 188.437576,45.0812582 L188.67086,44.6666655 L189.189201,44.6666655 L188.868361,45.1816081 C188.715038,45.4258859 188.585303,45.5995991 188.479556,45.7033472 C188.423583,45.7573202 188.349021,45.803697 188.256267,45.8426775 C188.482954,45.8598689 188.664863,45.9398289 188.801994,46.0823577 C188.939126,46.2248864 189.007691,46.3922027 189.007691,46.5845066 C189.007691,46.7204386 188.966712,46.8489743 188.884753,46.9699139 C188.802394,47.0908534 188.692449,47.1758109 188.554118,47.2243866 C188.415987,47.2729623 188.192499,47.2971502 187.883653,47.2971502 L186.979705,47.2971502 L186.979705,47.2971502 Z" id="path138" fill="#231F20"></path>
                        <path d="M189.816087,47.039679 C189.998596,46.7124426 190.08975,46.371613 190.08975,46.0175901 C190.08975,45.6655661 190.000195,45.3281348 189.820885,45.0050963 C189.641574,44.6822578 189.3901,44.4305836 189.066062,44.2502738 C188.742024,44.0699639 188.403993,43.9796091 188.051969,43.9796091 C187.699945,43.9796091 187.361914,44.0699639 187.037876,44.2502738 C186.714038,44.4305836 186.461764,44.6822578 186.281455,45.0050963 C186.101145,45.3281348 186.01119,45.6655661 186.01119,46.0175901 C186.01119,46.371613 186.102744,46.7124426 186.286252,47.039679 C186.46976,47.3669154 186.724433,47.6185895 187.049271,47.7943017 C187.374508,47.9704136 187.708741,48.0585695 188.051969,48.0585695 C188.393399,48.0585695 188.726832,47.9704136 189.053069,47.7943017 C189.379106,47.6185895 189.633578,47.3669154 189.816087,47.039679 Z M186.85017,48.147525 C186.459166,47.9370303 186.154118,47.6359808 185.935028,47.2437769 C185.715737,46.8517729 185.605992,46.4431772 185.605992,46.0175901 C185.605992,45.5962008 185.713938,45.1914032 185.93003,44.8025976 C186.145922,44.413792 186.447971,44.1121428 186.835578,43.8970504 C187.223184,43.6823577 187.628581,43.5748115 188.051969,43.5748115 C188.475358,43.5748115 188.880955,43.6823577 189.268361,43.8970504 C189.656167,44.1121428 189.957616,44.413792 190.172309,44.8025976 C190.387202,45.1914032 190.494748,45.5962008 190.494748,46.0175901 C190.494748,46.4431772 190.385602,46.8517729 190.167511,47.2437769 C189.949421,47.6359808 189.644773,47.9370303 189.253968,48.147525 C188.862964,48.3582197 188.462364,48.4633671 188.051969,48.4633671 C187.641774,48.4633671 187.240975,48.3582197 186.85017,48.147525 L186.85017,48.147525 Z" id="path140" fill="#231F20"></path>
                    </g>
                </g>
            </g>
        </g>
    </g>
</svg>