<?xml version="1.0" encoding="UTF-8"?>
<svg width="200px" height="200px" viewBox="0 0 200 200" version="1.1" xmlns="http://www.w3.org/2000/svg" xmlns:xlink="http://www.w3.org/1999/xlink">
    <!-- Generator: Sketch 54.1 (76490) - https://sketchapp.com -->
    <title>baylor</title>
    <desc>Created with Sketch.</desc>
    <g id="baylor" stroke="none" stroke-width="1" fill="none" fill-rule="evenodd">
        <g id="baylor_BGD" transform="translate(-0.000000, 0.000000)">
            <g id="baylor" transform="translate(14.000000, 0.000000)">
                <g id="g10" transform="translate(86.444227, 99.988822) scale(-1, 1) rotate(-180.000000) translate(-86.444227, -99.988822) translate(0.000000, 0.100682)" fill-rule="nonzero">
                    <g id="g12">
                        <path d="M37.9879436,92.9389239 L37.9879436,126.047648 L89.2731287,126.047648 L96.0213554,119.280981 L96.0213554,99.7060378 L89.2731287,92.9389239 L80.3641308,92.9389239 L80.3641308,96.8404897 L88.2054588,96.8404897 L88.2054588,122.013196 L44.5728744,122.013196 L44.5728744,96.8404897 L52.2265906,96.8404897 L52.2265906,92.9389239 L37.9879436,92.9389239 Z M37.9879436,172.526841 L88.5726516,172.526841 L93.9205934,165.760622 L93.9205934,160.468005 L88.5726516,153.700891 L37.9879436,153.700891 L37.9879436,172.526841 Z M172.68545,122.013196 L129.053981,122.013196 L129.053981,96.8404897 L136.894417,96.8404897 L136.894417,33.4791938 L130.803836,27.3706928 L86.4544891,27.3706928 L80.3641308,33.4791938 L80.3641308,64.2521237 L101.8516,64.2521237 L124.909566,87.2997741 L124.909566,131.309616 L116.273844,139.968677 L122.807689,148.62796 L122.807689,176.468228 L101.157146,199.709167 L0,199.709167 L0,171.774492 L10.225694,171.774492 L10.225694,92.1861274 L0,92.1861274 L0,64.2521237 L52.2234674,64.2521237 L52.219452,21.4501113 L73.6089885,0 L73.6170194,0 L143.643536,0 L143.649559,0 L165.038873,21.4501113 L165.03285,96.8404897 L172.68545,96.8404897 L172.68545,122.013196 L172.68545,122.013196 Z" id="path14" fill="#FFFFFF"></path>
                        <path d="M75.8627847,93.4624138 L75.8627847,101.355255 L83.7029973,101.355255 L83.7029973,117.498878 L49.075336,117.498878 L49.075336,101.355255 L56.7270444,101.355255 L56.7259289,93.4624138 C63.0549849,93.4624138 70.0202703,93.4624138 75.8627847,93.4624138" id="path16" fill="#FAB93D"></path>
                        <polyline id="path18" fill="#FAB93D" points="168.184104 117.498878 133.555327 117.498878 133.555327 101.355255 141.396655 101.355255 141.396655 31.6096189 132.669246 22.8563753 84.5901939 22.8563753 75.8627847 31.6096189 75.8627847 63.7286338 56.7239212 63.7286338 56.7207981 23.3208048 75.4741761 4.51429519 75.4813147 4.51429519 141.778125 4.51429519 141.785264 4.51429519 160.537527 23.3208048 160.531503 101.355255 168.184104 101.355255 168.184104 117.498878"></polyline>
                        <path d="M90.4378391,177.041383 L33.4874898,177.041383 L33.4874898,149.18635 L90.4378391,149.18635 L98.4228318,158.598206 L98.4228318,167.630645 L90.4378391,177.041383 Z M91.1374239,130.562413 L33.4874898,130.562413 L33.4874898,88.4246063 L91.1374239,88.4246063 L100.523817,97.835568 L100.523817,121.151004 L91.1374239,130.562413 Z M4.50145766,87.6718099 L14.7270624,87.6718099 L14.7270624,176.28881 L4.50145766,176.28881 L4.50145766,195.19485 L99.2845971,195.19485 L118.305227,174.605812 L118.305227,150.497759 L109.907979,139.968677 L120.407105,129.440042 L120.407105,89.1742707 L99.9915436,68.7664412 L4.50145766,68.7664412 L4.50145766,87.6718099 L4.50145766,87.6718099 Z" id="path20" fill="#FAB93D"></path>
                    </g>
                </g>
            </g>
        </g>
    </g>
</svg>