<?xml version="1.0" encoding="UTF-8"?>
<svg width="200px" height="200px" viewBox="0 0 200 200" version="1.1" xmlns="http://www.w3.org/2000/svg" xmlns:xlink="http://www.w3.org/1999/xlink">
    <!-- Generator: Sketch 54.1 (76490) - https://sketchapp.com -->
    <title>fla-atlantic</title>
    <desc>Created with Sketch.</desc>
    <g id="fla-atlantic" stroke="none" stroke-width="1" fill="none" fill-rule="evenodd">
        <g id="fla-atlantic_BGD">
            <g id="fla-atlantic" transform="translate(0.000000, 36.000000)">
                <g id="g10" transform="translate(99.999998, 64.116404) scale(-1, 1) rotate(-180.000000) translate(-99.999998, -64.116404) translate(0.000000, 0.359792)" fill-rule="nonzero">
                    <g id="g12">
                        <path d="M186.034387,116.924865 C177.686768,113.582537 165.713752,113.289415 162.616398,113.289415 L141.485711,113.289415 L143.66243,106.607405 L146.607404,106.607405 L153.984652,85.621691 L142.335975,88.2253946 L136.894706,106.607405 L139.806875,106.607405 L137.753965,113.289415 L116.43968,113.289415 L118.115341,106.607405 L121.707933,106.607405 L126.113753,88.5862412 C127.364547,83.4693101 132.437034,82.2994688 144.798938,79.4486753 L146.787827,78.9899451 C154.400525,82.5703683 156.87407,85.9767174 156.87407,85.9767174 C158.082007,82.6894159 157.577245,79.3587282 156.427509,76.7671938 L163.9037,75.0444426 C172.996821,72.9470881 173.271953,76.4841251 171.642324,80.1761885 L164.512165,96.3185161 C163.924864,97.665606 164.719573,98.4402092 165.973541,98.4402092 C167.217985,98.4402092 167.964017,97.6915319 168.266662,96.9163997 C168.321689,96.7788336 168.441266,96.8735426 168.441266,96.8735426 C169.820102,99.1433838 166.404758,100.972484 166.404758,100.972484 C171.394705,100.594177 175.020631,102.607934 175.237562,102.879892 C175.42116,103.115341 175.091001,103.116929 175.091001,103.116929 C170.394705,103.164019 168.835446,104.13968 168.835446,104.13968 C177.683593,105.825923 181.080948,109.31587 181.194175,109.624865 C181.294704,109.906346 180.998408,109.814283 180.998408,109.814283 C176.399996,109.010579 171.086239,109.311108 171.086239,109.311108 C180.817985,110.921161 186.202112,116.487828 186.241794,116.749203 C186.281477,117.008992 186.034387,116.924865 186.034387,116.924865" id="path14" fill="#FFFFFF"></path>
                        <path d="M24.0966132,79.7481462 L19.6021159,70.5010564 C19.6021159,70.5010564 27.3497348,74.3486754 42.7397344,77.9275113 C41.9326445,80.3153419 41.712327,83.1619027 42.7430677,85.9767174 C42.7430677,85.9767174 44.8956073,83.021691 51.3405278,79.7238075 C51.6648135,79.7846541 51.9829088,79.8460297 52.3129617,79.9074054 L54.9730145,87.2529079 L47.1730147,86.132273 L49.1726443,91.5994686 L63.3264534,92.2185162 L68.9550247,99.9772462 L52.0347606,99.3560822 L54.0312156,106.607405 L64.6682524,106.607405 L63.8825381,103.560315 L77.0666647,103.560315 L78.6074054,113.289415 L38.314126,113.289415 C38.314126,113.289415 23.6836502,113.459256 14.2298938,117.241267 C14.2298938,117.241267 13.9851848,117.325394 14.025079,117.065606 C14.0616928,116.803701 19.4458725,111.237563 29.1811104,109.62804 C29.1811104,109.62804 23.8642851,109.326452 19.2687826,110.130685 C19.2687826,110.130685 18.9659784,110.222749 19.0699466,109.941267 C19.1860842,109.632272 22.5830682,106.142325 31.4285706,104.457669 C31.4285706,104.457669 29.8722744,103.48095 25.1758724,103.433331 C25.1758724,103.433331 24.8426978,103.431743 25.0289412,103.196294 C25.2430682,102.924336 28.8692585,100.911109 33.8593113,101.288886 L33.4555018,99.4005266 L30.2606342,99.4005266 L33.3211632,92.3158707 L29.2301051,81.5444424 L24.0966132,79.7481462" id="path16" fill="#FFFFFF"></path>
                        <path d="M88.8243364,99.4005266 L95.4015849,110.604759 L101.406347,99.4005266 L88.8243364,99.4005266 Z M124.517986,88.7465586 L119.855023,89.0872994 L104.142855,116.828039 L86.537564,116.828039 L68.6888872,88.7497332 L63.8735434,88.1317438 L61.6444429,81.3047599 C64.9407391,81.8566117 72.0523792,82.8809503 80.9021144,83.1788339 L85.1280402,90.6989395 L104.289415,90.6989395 L108.441267,82.8656064 C116.470897,82.4481461 124.511637,81.8042308 127.049732,81.594707 L124.517986,88.7465586 L124.517986,88.7465586 Z" id="path18" fill="#FFFFFF"></path>
                        <path d="M78.3783049,21.8878301 L81.0962943,27.0746554 C62.6079349,23.1258195 38.4852371,34.3708457 40.1256604,47.8703692 L44.7119036,45.8126444 C44.7119036,45.8126444 41.8103164,53.9026442 48.1088877,62.1444429 C47.5403163,62.5740725 46.9989935,63.0021148 46.4730147,63.4301571 C40.0355546,58.6052895 36.2960837,52.8513743 36.2960837,46.6714274 C36.2960837,31.3031209 59.4153424,18.5613223 89.6772464,16.2037033 C87.901056,18.7260313 86.2962941,21.4760841 85.2566116,24.2466661 L78.3783049,21.8878301" id="path20" fill="#FFFFFF"></path>
                        <path d="M153.147086,63.4301571 C152.624335,63.0021148 152.080419,62.5740725 151.511107,62.1444429 C157.806874,53.9026442 154.908462,45.8126444 154.908462,45.8126444 L159.494705,47.8703692 C161.130155,34.3708457 137.011108,23.1258195 118.522219,27.0746554 L121.240738,21.8878301 L114.364018,24.2466661 C113.324865,21.4760841 111.716399,18.7260313 109.942854,16.2037033 C140.201584,18.5613223 163.322747,31.3031209 163.322747,46.6714274 C163.322747,52.8493108 159.583065,58.6037022 153.147086,63.4301571" id="path22" fill="#FFFFFF"></path>
                        <path d="M79.9407387,44.6846021 L71.5079347,49.0629088 C70.7010564,48.3682528 70.2084639,47.4561893 70.2084639,46.4543904 C70.2084639,44.2888349 72.5111093,42.5332794 75.3513209,42.5332794 C77.3571409,42.5332794 79.0952361,43.4079354 79.9407387,44.6846021" id="path24" fill="#FFFFFF"></path>
                        <path d="M124.267193,42.5332794 C127.107404,42.5332794 129.41005,44.2888349 129.41005,46.4543904 C129.41005,47.4561893 128.917457,48.3682528 128.107404,49.0629088 L119.677775,44.6846021 C120.524865,43.4079354 122.261373,42.5332794 124.267193,42.5332794" id="path26" fill="#FFFFFF"></path>
                        <path d="M196.784122,123.712695 C196.646556,122.865605 195.313752,116.808463 188.755022,113.602643 C188.755022,113.602643 191.317456,113.197352 193.488355,113.626981 C193.488355,113.626981 193.883064,113.729627 193.659784,113.324336 C193.298937,112.660844 190.064016,106.898939 182.793117,105.908463 C182.793117,105.908463 183.728567,104.608992 186.340207,104.356611 C186.340207,104.356611 186.578302,104.228569 186.413223,104.002114 C186.018514,103.470368 182.606345,98.3486748 176.295763,97.7846536 C176.295763,97.7846536 177.686768,94.48095 175.457668,92.8021141 C175.457668,92.8021141 174.843382,93.2518495 173.913752,93.2518495 C172.623805,93.2518495 171.400525,92.1968231 172.250789,89.8349184 L174.311107,84.111109 L179.283064,81.821162 L187.027509,67.1788343 L181.707932,56.6576705 C181.707932,56.6576705 177.708461,58.8650779 170.021689,61.6571413 C174.675657,57.1042314 177.27407,52.0275119 177.27407,46.6714274 C177.27407,28.0851316 145.96825,12.8432801 106.154495,11.3682008 C102.788357,7.45285696 99.8105795,4.82390993 99.8105795,4.82390993 C99.8105795,4.82390993 96.8322727,7.45285696 93.4656061,11.3682008 C53.649205,12.8432801 22.3447613,28.0851316 22.3447613,46.6714274 C22.3447613,52.3846548 25.3044438,57.7830673 30.5569834,62.5603159 C21.1950259,59.3560832 16.3060313,56.6576705 16.3060313,56.6576705 L11.5821161,65.998411 L20.4704228,81.8746011 L25.4387824,84.1619027 L27.392539,89.8349184 C28.0470892,91.7338601 27.4443908,93.2518495 25.7324861,93.2518495 C24.900793,93.2518495 24.1881475,92.8021141 24.1881475,92.8021141 C21.9591,94.48095 23.3474068,97.7846536 23.3474068,97.7846536 C17.039735,98.3486748 13.62746,103.470368 13.2332801,104.002114 C13.065079,104.228569 13.3035976,104.356611 13.3035976,104.356611 C15.9145499,104.608992 16.8502112,105.908463 16.8502112,105.908463 C9.58248653,106.898939 6.34777762,112.660844 5.98359773,113.324336 C5.76349192,113.729627 6.15656069,113.626981 6.15656069,113.626981 C8.32587281,113.197352 10.8895764,113.602643 10.8895764,113.602643 C4.32973534,116.808463 2.9995449,122.865605 2.85900522,123.712695 C2.72424861,124.560843 3.54683589,124.137563 3.54683589,124.137563 C11.3679891,121.379891 19.0393646,118.284124 39.8305281,118.284124 L81.4619027,118.284124 L84.2566117,121.346029 L107.508992,121.346029 L110.300526,118.284124 L164.252377,118.284124 C176.748673,118.284124 188.183593,120.864547 196.099466,124.137563 C196.099466,124.137563 196.922217,124.560843 196.784122,123.712695 Z M194.968249,126.766663 C186.30899,123.194706 175.115869,121.1455 164.252377,121.1455 L111.566135,121.1455 L108.771955,124.207933 L82.9910032,124.207933 L80.1957652,121.1455 L39.8305281,121.1455 C18.7946556,121.1455 11.3834918,124.354494 4.52215862,126.828039 C1.15286241,127.893648 -0.241195232,125.322219 0.0338955018,123.256611 C0.113260844,122.68042 0.880661354,119.024865 3.87401049,115.508992 C2.84060839,114.755553 2.9689576,112.785182 3.4703597,111.956082 C3.98127503,111.026981 6.19793635,107.437034 10.496878,105.066135 C10.1510579,104.746558 10.1357669,103.321691 10.9720103,102.243913 C12.4473013,100.184654 15.4404229,96.9359764 20.0543381,95.5507913 C19.9260312,93.5619024 21.4607931,89.8518496 24.4204756,89.9894157 L23.1334915,86.2502624 L18.430899,84.0915323 L8.34116381,66.0656068 L15.0097351,52.8819563 C16.0858726,53.4486759 17.8164017,54.3158717 20.1769307,55.3645489 C18.8804228,52.5777236 18.1956609,49.6693109 18.1956609,46.6714274 C18.1956609,26.1820099 50.1206866,9.85883573 91.5941776,7.94021144 C95.1656061,3.6888253 99.8105795,0 99.8105795,0 C99.8105795,0 104.454495,3.6888253 108.025923,7.94021144 C149.499996,9.85883573 181.423276,26.1820099 181.423276,46.6714274 C181.423276,49.3317977 180.885181,51.9211098 179.858197,54.4179881 C181.215339,53.7740727 182.264546,53.2396812 182.992059,52.8523796 L190.247085,67.2079348 L181.359255,84.0137545 L176.598937,86.2089926 L175.222747,90.0290983 C178.365604,89.7984105 179.716927,93.7608442 179.588884,95.5507913 C184.202641,96.9359764 187.193117,100.181479 188.669837,102.239151 C189.296821,103.061902 189.687826,104.670368 189.100524,105.035447 C193.442323,107.406347 195.606873,111.059256 196.173011,111.951849 C197.025921,113.299997 196.33809,115.226452 195.769307,115.507405 C198.762429,119.024865 199.51481,122.683595 199.609519,123.255552 C199.945498,126.629626 197.083593,127.598939 194.968249,126.766663 L194.968249,126.766663 Z" id="path28" fill="#C4C7CC"></path>
                        <path d="M73.5169294,37.3158721 C65.8365063,37.3158721 59.6111096,42.0655545 59.6111096,47.9243374 C59.6111096,50.1973532 60.5470884,52.3036495 62.1460302,54.0301574 L56.5507922,57.0105806 C54.991533,54.8481468 54.1015859,52.3619564 54.1015859,49.7168242 C54.1015859,41.3549725 62.9931201,34.5746552 73.957141,34.5746552 C80.084125,34.5746552 85.5650772,36.6904224 89.2068761,40.0186233 L85.1095217,42.0597873 C82.6174583,39.200581 78.3571409,37.3158721 73.5169294,37.3158721" id="path30" fill="#C4C7CC"></path>
                        <path d="M137.472483,54.0301574 C139.06878,52.3036495 140.007404,50.1973532 140.007404,47.9243374 C140.007404,42.0655545 133.780949,37.3158721 126.098939,37.3158721 C121.261902,37.3158721 116.999468,39.200581 114.507934,42.0597873 L110.410579,40.0186233 C114.052378,36.6904224 119.531214,34.5746552 125.661373,34.5746552 C136.625923,34.5746552 145.516928,41.3549725 145.516928,49.7168242 C145.516928,52.3619564 144.629097,54.8481468 143.066663,57.0105806 L137.472483,54.0301574" id="path32" fill="#C4C7CC"></path>
                        <path d="M99.8105795,41.9847609 L99.8105795,14.2311637 C96.2788336,19.3956609 93.9248654,24.7894174 93.9248654,29.4549728 C93.9248654,32.8147611 95.012696,35.7767187 96.5910029,38.2930149 C93.9550241,35.6253959 91.5211617,31.8429622 91.5211617,27.0089411 C91.5211617,21.1386238 95.6058177,14.960952 99.8105795,10.2750791 C104.197881,14.9772483 108.502643,21.1386238 108.502643,27.0089411 C108.502643,34.9993642 99.8105795,41.9847609 99.8105795,41.9847609" id="path34" fill="#C4C7CC"></path>
                        <path d="M67.9306861,67.045501 C54.1687817,71.1656067 48.2068242,77.5317441 48.2068242,77.5317441 C48.2068242,77.5317441 45.8126444,68.1507919 68.9888872,60.265607 C84.7518497,54.9026441 94.365077,48.643967 98.070897,43.883491 C98.4312145,56.9984113 74.7735431,64.9973529 67.9306861,67.045501" id="path36" fill="#B71A35"></path>
                        <path d="M151.413753,77.5317441 C151.413753,77.5317441 145.449732,71.1656067 131.688356,67.045501 C124.84497,64.9973529 101.188886,56.9984113 101.550262,43.883491 C105.256082,48.643967 114.865606,54.9026441 130.630155,60.265607 C153.807404,68.1507919 151.413753,77.5317441 151.413753,77.5317441" id="path38" fill="#B71A35"></path>
                        <path d="M186.241794,116.749203 C186.202112,116.487828 180.817985,110.921161 171.086239,109.311108 C171.086239,109.311108 176.399996,109.010579 180.998408,109.814283 C180.998408,109.814283 181.294704,109.906346 181.194175,109.624865 C181.080948,109.31587 177.683593,105.825923 168.835446,104.13968 C168.835446,104.13968 170.394705,103.164019 175.091001,103.116929 C175.091001,103.116929 175.42116,103.115341 175.237562,102.879892 C175.020631,102.607934 171.394705,100.594177 166.404758,100.972484 C166.404758,100.972484 169.820102,99.1433838 168.441266,96.8735426 C168.441266,96.8735426 168.321689,96.7788336 168.266662,96.9163997 C167.964017,97.6915319 167.217985,98.4402092 165.973541,98.4402092 C164.719573,98.4402092 163.924864,97.665606 164.512165,96.3185161 L171.642324,80.1761885 C173.271953,76.4841251 172.996821,72.9470881 163.9037,75.0444426 L156.427509,76.7671938 C157.577245,79.3587282 158.082007,82.6894159 156.87407,85.9767174 C156.87407,85.9767174 154.400525,82.5703683 146.787827,78.9899451 L144.798938,79.4486753 C132.437034,82.2994688 127.364547,83.4693101 126.113753,88.5862412 L121.707933,106.607405 L118.115341,106.607405 L116.43968,113.289415 L137.753965,113.289415 L139.806875,106.607405 L136.894706,106.607405 L142.335975,88.2253946 L153.984652,85.621691 L146.607404,106.607405 L143.66243,106.607405 L141.485711,113.289415 L162.616398,113.289415 C165.713752,113.289415 177.686768,113.582537 186.034387,116.924865 C186.034387,116.924865 186.281477,117.008992 186.241794,116.749203 L186.241794,116.749203 Z M109.942854,16.2037033 C111.716399,18.7260313 113.324865,21.4760841 114.364018,24.2466661 L121.240738,21.8878301 L118.522219,27.0746554 C137.011108,23.1258195 161.130155,34.3708457 159.494705,47.8703692 L154.908462,45.8126444 C154.908462,45.8126444 157.806874,53.9026442 151.511107,62.1444429 C152.080419,62.5740725 152.624335,63.0021148 153.147086,63.4301571 C159.583065,58.6037022 163.322747,52.8493108 163.322747,46.6714274 C163.322747,31.3031209 140.201584,18.5613223 109.942854,16.2037033 Z M99.8105795,10.2750791 C95.6058177,14.960952 91.5211617,21.1386238 91.5211617,27.0089411 C91.5211617,31.8429622 93.9550241,35.6253959 96.5910029,38.2930149 C95.012696,35.7767187 93.9248654,32.8147611 93.9248654,29.4549728 C93.9248654,24.7894174 96.2788336,19.3956609 99.8105795,14.2311637 L99.8105795,41.9847609 C99.8105795,41.9847609 108.502643,34.9993642 108.502643,27.0089411 C108.502643,21.1386238 104.197881,14.9772483 99.8105795,10.2750791 L99.8105795,10.2750791 Z M36.2960837,46.6714274 C36.2960837,52.8513743 40.0355546,58.6052895 46.4730147,63.4301571 C46.9989935,63.0021148 47.5403163,62.5740725 48.1088877,62.1444429 C41.8103164,53.9026442 44.7119036,45.8126444 44.7119036,45.8126444 L40.1256604,47.8703692 C38.4852371,34.3708457 62.6079349,23.1258195 81.0962943,27.0746554 L78.3783049,21.8878301 L85.2566116,24.2466661 C86.2962941,21.4760841 87.901056,18.7260313 89.6772464,16.2037033 C59.4153424,18.5613223 36.2960837,31.3031209 36.2960837,46.6714274 Z M19.6021159,70.5010564 L24.0966132,79.7481462 L29.2301051,81.5444424 L33.3211632,92.3158707 L30.2606342,99.4005266 L33.4555018,99.4005266 L33.8593113,101.288886 C28.8692585,100.911109 25.2430682,102.924336 25.0289412,103.196294 C24.8426978,103.431743 25.1758724,103.433331 25.1758724,103.433331 C29.8722744,103.48095 31.4285706,104.457669 31.4285706,104.457669 C22.5830682,106.142325 19.1860842,109.632272 19.0699466,109.941267 C18.9659784,110.222749 19.2687826,110.130685 19.2687826,110.130685 C23.8642851,109.326452 29.1811104,109.62804 29.1811104,109.62804 C19.4458725,111.237563 14.0616928,116.803701 14.025079,117.065606 C13.9851848,117.325394 14.2298938,117.241267 14.2298938,117.241267 C23.6836502,113.459256 38.314126,113.289415 38.314126,113.289415 L78.6074054,113.289415 L77.0666647,103.560315 L63.8825381,103.560315 L64.6682524,106.607405 L54.0312156,106.607405 L52.0347606,99.3560822 L68.9550247,99.9772462 L63.3264534,92.2185162 L49.1726443,91.5994686 L47.1730147,86.132273 L54.9730145,87.2529079 L52.3129617,79.9074054 C51.9829088,79.8460297 51.6648135,79.7846541 51.3405278,79.7238075 C44.8956073,83.021691 42.7430677,85.9767174 42.7430677,85.9767174 C41.712327,83.1619027 41.9326445,80.3153419 42.7397344,77.9275113 C27.3497348,74.3486754 19.6021159,70.5010564 19.6021159,70.5010564 Z M68.9888872,60.265607 C45.8126444,68.1507919 48.2068242,77.5317441 48.2068242,77.5317441 C48.2068242,77.5317441 54.1687817,71.1656067 67.9306861,67.045501 C74.7735431,64.9973529 98.4312145,56.9984113 98.070897,43.883491 C94.365077,48.643967 84.7518497,54.9026441 68.9888872,60.265607 Z M70.2084639,46.4543904 C70.2084639,47.4561893 70.7010564,48.3682528 71.5079347,49.0629088 L79.9407387,44.6846021 C79.0952361,43.4079354 77.3571409,42.5332794 75.3513209,42.5332794 C72.5111093,42.5332794 70.2084639,44.2888349 70.2084639,46.4543904 L70.2084639,46.4543904 Z M73.5169294,37.3158721 C78.3571409,37.3158721 82.6174583,39.200581 85.1095217,42.0597873 L89.2068761,40.0186233 C85.5650772,36.6904224 80.084125,34.5746552 73.957141,34.5746552 C62.9931201,34.5746552 54.1015859,41.3549725 54.1015859,49.7168242 C54.1015859,52.3619564 54.991533,54.8481468 56.5507922,57.0105806 L62.1460302,54.0301574 C60.5470884,52.3036495 59.6111096,50.1973532 59.6111096,47.9243374 C59.6111096,42.0655545 65.8365063,37.3158721 73.5169294,37.3158721 L73.5169294,37.3158721 Z M130.630155,60.265607 C114.865606,54.9026441 105.256082,48.643967 101.550262,43.883491 C101.188886,56.9984113 124.84497,64.9973529 131.688356,67.045501 C145.449732,71.1656067 151.413753,77.5317441 151.413753,77.5317441 C151.413753,77.5317441 153.807404,68.1507919 130.630155,60.265607 L130.630155,60.265607 Z M119.677775,44.6846021 L128.107404,49.0629088 C128.917457,48.3682528 129.41005,47.4561893 129.41005,46.4543904 C129.41005,44.2888349 127.107404,42.5332794 124.267193,42.5332794 C122.261373,42.5332794 120.524865,43.4079354 119.677775,44.6846021 L119.677775,44.6846021 Z M126.098939,37.3158721 C133.780949,37.3158721 140.007404,42.0655545 140.007404,47.9243374 C140.007404,50.1973532 139.06878,52.3036495 137.472483,54.0301574 L143.066663,57.0105806 C144.629097,54.8481468 145.516928,52.3619564 145.516928,49.7168242 C145.516928,41.3549725 136.625923,34.5746552 125.661373,34.5746552 C119.531214,34.5746552 114.052378,36.6904224 110.410579,40.0186233 L114.507934,42.0597873 C116.999468,39.200581 121.261902,37.3158721 126.098939,37.3158721 L126.098939,37.3158721 Z M86.537564,116.828039 L104.142855,116.828039 L119.855023,89.0872994 L124.517986,88.7465586 L127.049732,81.594707 C124.511637,81.8042308 116.470897,82.4481461 108.441267,82.8656064 L104.289415,90.6989395 L85.1280402,90.6989395 L80.9021144,83.1788339 C72.0523792,82.8809503 64.9407391,81.8566117 61.6444429,81.3047599 L63.8735434,88.1317438 L68.6888872,88.7497332 L86.537564,116.828039 Z M196.784122,123.712695 C196.922217,124.560843 196.099466,124.137563 196.099466,124.137563 C188.183593,120.864547 176.748673,118.284124 164.252377,118.284124 L110.300526,118.284124 L107.508992,121.346029 L84.2566117,121.346029 L81.4619027,118.284124 L39.8305281,118.284124 C19.0393646,118.284124 11.3679891,121.379891 3.54683589,124.137563 C3.54683589,124.137563 2.72424861,124.560843 2.85900522,123.712695 C2.9995449,122.865605 4.32973534,116.808463 10.8895764,113.602643 C10.8895764,113.602643 8.32587281,113.197352 6.15656069,113.626981 C6.15656069,113.626981 5.76349192,113.729627 5.98359773,113.324336 C6.34777762,112.660844 9.58248653,106.898939 16.8502112,105.908463 C16.8502112,105.908463 15.9145499,104.608992 13.3035976,104.356611 C13.3035976,104.356611 13.065079,104.228569 13.2332801,104.002114 C13.62746,103.470368 17.039735,98.3486748 23.3474068,97.7846536 C23.3474068,97.7846536 21.9591,94.48095 24.1881475,92.8021141 C24.1881475,92.8021141 24.900793,93.2518495 25.7324861,93.2518495 C27.4443908,93.2518495 28.0470892,91.7338601 27.392539,89.8349184 L25.4387824,84.1619027 L20.4704228,81.8746011 L11.5821161,65.998411 L16.3060313,56.6576705 C16.3060313,56.6576705 21.1950259,59.3560832 30.5569834,62.5603159 C25.3044438,57.7830673 22.3447613,52.3846548 22.3447613,46.6714274 C22.3447613,28.0851316 53.649205,12.8432801 93.4656061,11.3682008 C96.8322727,7.45285696 99.8105795,4.82390993 99.8105795,4.82390993 C99.8105795,4.82390993 102.788357,7.45285696 106.154495,11.3682008 C145.96825,12.8432801 177.27407,28.0851316 177.27407,46.6714274 C177.27407,52.0275119 174.675657,57.1042314 170.021689,61.6571413 C177.708461,58.8650779 181.707932,56.6576705 181.707932,56.6576705 L187.027509,67.1788343 L179.283064,81.821162 L174.311107,84.111109 L172.250789,89.8349184 C171.400525,92.1968231 172.623805,93.2518495 173.913752,93.2518495 C174.843382,93.2518495 175.457668,92.8021141 175.457668,92.8021141 C177.686768,94.48095 176.295763,97.7846536 176.295763,97.7846536 C182.606345,98.3486748 186.018514,103.470368 186.413223,104.002114 C186.578302,104.228569 186.340207,104.356611 186.340207,104.356611 C183.728567,104.608992 182.793117,105.908463 182.793117,105.908463 C190.064016,106.898939 193.298937,112.660844 193.659784,113.324336 C193.883064,113.729627 193.488355,113.626981 193.488355,113.626981 C191.317456,113.197352 188.755022,113.602643 188.755022,113.602643 C195.313752,116.808463 196.646556,122.865605 196.784122,123.712695 L196.784122,123.712695 Z" id="path40" fill="#1B3866"></path>
                        <polygon id="path42" fill="#1B3866" points="95.4015849 110.604759 88.8243364 99.4005266 101.406347 99.4005266"></polygon>
                        <path d="M177.524863,74.1227495 C177.384123,74.1772468 177.18571,74.2042309 176.929625,74.2042309 L176.680419,74.2042309 L176.680419,73.0671939 L177.078832,73.0671939 C177.318514,73.0671939 177.505287,73.114813 177.639678,73.2111093 C177.77407,73.3068765 177.841265,73.4619029 177.841265,73.6767177 C177.841265,73.8910034 177.735974,74.0396807 177.524863,74.1227495 Z M175.652906,70.9746014 L175.652906,74.8952362 C175.896292,74.8952362 176.260313,74.8947071 176.744969,74.8931198 C177.229625,74.8915325 177.499466,74.888887 177.553435,74.8857124 C177.864017,74.8634902 178.12116,74.7962944 178.325921,74.6841251 C178.674599,74.4925907 178.849202,74.1804214 178.849202,73.7486754 C178.849202,73.4190458 178.757667,73.1809506 178.573541,73.0349188 C178.389414,72.8878289 178.163488,72.8005273 177.894705,72.7719559 C178.140736,72.720104 178.325921,72.6444426 178.450789,72.5449717 C178.681477,72.3587283 178.796821,72.0656067 178.796821,71.6656067 L178.796821,71.3153421 C178.796821,71.2767178 178.798937,71.2386226 178.804228,71.1999982 C178.80899,71.161903 178.819043,71.1232786 178.832271,71.0851834 L178.868779,70.9746014 L177.889414,70.9746014 C177.857138,71.0994691 177.835974,71.2804215 177.824863,71.5169294 C177.813223,71.7539665 177.79153,71.9137548 177.760313,71.9968236 C177.708461,72.1343897 177.613223,72.230686 177.471953,72.2846543 C177.395234,72.3169294 177.278832,72.3375643 177.121689,72.3470881 L176.896292,72.3613739 L176.680419,72.3613739 L176.680419,70.9746014 L175.652906,70.9746014 Z M175.125392,74.9915325 C174.562429,74.4153421 174.280948,73.7322733 174.280948,72.9423262 C174.280948,72.1232786 174.567191,71.4275114 175.139678,70.8550247 C175.709519,70.2820088 176.39735,69.9957654 177.20317,69.9957654 C178.006345,69.9957654 178.692588,70.2835961 179.262429,70.8592575 C179.831742,71.4386226 180.116398,72.1328024 180.116398,72.9423262 C180.116398,73.7290987 179.833329,74.4121675 179.266662,74.9915325 C178.694175,75.5798923 178.006345,75.8740722 177.20317,75.8740722 C176.390472,75.8740722 175.697879,75.5798923 175.125392,74.9915325 L175.125392,74.9915325 Z M179.67989,70.4037019 C178.99153,69.7380935 178.166133,69.4052893 177.20317,69.4052893 C176.208461,69.4052893 175.369837,69.74603 174.688355,70.4275115 C174.007403,71.1089929 173.666662,71.9470881 173.666662,72.9423262 C173.666662,73.9756595 174.034387,74.8349188 174.769837,75.5190457 C175.461371,76.1592574 176.271953,76.4788341 177.20317,76.4788341 C178.179361,76.4788341 179.012694,76.1338605 179.703699,75.4423262 C180.394175,74.7513209 180.740207,73.9179876 180.740207,72.9423262 C180.740207,71.9375643 180.386768,71.0915326 179.67989,70.4037019 L179.67989,70.4037019 Z" id="path44" fill="#FFFFFF"></path>
                    </g>
                </g>
            </g>
        </g>
    </g>
</svg>