<?xml version="1.0" encoding="UTF-8"?>
<svg width="200px" height="200px" viewBox="0 0 200 200" version="1.1" xmlns="http://www.w3.org/2000/svg" xmlns:xlink="http://www.w3.org/1999/xlink">
    <!-- Generator: Sketch 60.1 (88133) - https://sketch.com -->
    <title>southeast-mo-st</title>
    <desc>Created with Sketch.</desc>
    <g id="southeast-mo-st" stroke="none" stroke-width="1" fill="none" fill-rule="evenodd">
        <g id="southeast-mo-st_BGL" transform="translate(0.000000, -0.000000)">
            <g id="southeast-mo-st-copy" transform="translate(0.000000, 22.000000)">
                <path d="M199.799333,81.1513333 L199.796667,81.1253333 L199.794,81.098 C199.777333,80.9506667 199.354,77.4413333 196.582667,73.6033333 C194.209333,70.3153333 189.579333,66.12 180.924667,64.3166667 C179.434,58.9893333 171.274,41.198 128.036,33.2106667 L128.007333,33.2066667 L127.980667,33.202 C127.511333,33.1286667 80.8006667,25.8033333 51.5226667,17.1526667 L51.498,17.1446667 L51.4706667,17.1386667 C45.4173333,15.5193333 33.8693333,10.0833333 27.066,0.221333333 C27.1193333,6.578 33.1053333,22.582 44.9106667,35.586 C39.6986667,35.8426667 31.0733333,36.6666667 23.674,39.2933333 L18.008,41.302 L23.74,43.1173333 C23.9346667,43.1793333 40.7773333,48.5646667 53.172,56.5113333 C51.0953333,56.5786667 48.6213333,56.7653333 45.8553333,57.1706667 C38.278,58.2793333 26.9706667,61.318 16.126,69.4906667 L10.686,73.9466667 C9.43,73.7666667 8.14,73.5613333 6.814,73.3206667 L0,72.0886667 L5.08533333,76.7866667 C12.1326667,83.3006667 29.4686667,97.9646667 46.7833333,102.277333 C39.8913333,107.571333 25.3246667,119.778667 18.6673333,132.987333 L15.5486667,139.176 L21.5026667,135.627333 C21.6566667,135.535333 32.6746667,129.024667 45.2346667,124.575333 L45.2346667,128.468667 L51.1446667,128.468667 C48.296,133.851333 45.7413333,141.06 45.4473333,149.868667 L45.2506667,155.778667 L49.0206667,151.22 C49.0613333,151.170667 53.2553333,146.135333 60.8666667,140.139333 C67.838,134.647333 79.1853333,127.206667 93.71,122.866 C102.003333,122.050667 116.863333,119.034 125.789333,108.088667 C129.361333,107.092667 148.288667,101.989333 165.391333,100.735333 C167.572667,101.976667 174.864667,105.147333 186.372,100.644667 C186.691333,102.739333 187.433333,107.604 187.433333,107.604 L189.735333,106.784 C190.186,106.625333 200,102.916667 200,85.5966667 C200,84.2033333 199.936,82.724 199.799333,81.1513333" id="Fill-1" fill="#FFFFFE"></path>
                <path d="M179.238667,66.0433333 C179.238667,66.0433333 176.853333,44.28 127.668667,35.1953333 C127.668667,35.1953333 80.7006667,27.8773333 50.95,19.0873333 C50.95,19.0873333 36.2793333,15.184 30.304,6.682 C30.304,6.682 36.1893333,24.824 49.594,37.496 C49.594,37.496 35.3926667,37.276 24.3486667,41.194 C24.3486667,41.194 47.0913333,48.3853333 59.704,58.7253333 C59.704,58.7253333 37.6733333,55.776 17.3406667,71.1006667 C17.3406667,71.1006667 29.43,71.6373333 40.6513333,74.5033333 C34.5833333,76.3846667 23.28,78.3486667 6.45466667,75.3053333 C14.2366667,82.4986667 33.5473333,98.7353333 51.6646667,101.178667 C51.6646667,101.178667 29.034,116.901333 20.4686667,133.894667 C20.4686667,133.894667 42.8166667,120.57 60.7913333,118.696667 C60.7913333,118.696667 48.1206667,130.186 47.464,149.936 C47.464,149.936 64.3426667,129.471333 93.304,120.881333 C100.884,120.157333 116.04,117.34 124.628667,106.320667 C124.628667,106.320667 146.402,99.9973333 165.89,98.6733333 C165.89,98.6733333 173.741333,104.389333 187.976,97.7746667 L189.058667,104.884 C189.058667,104.884 199.513333,101.164 197.79,81.3253333 C197.79,81.3253333 196.394667,68.9773333 179.238667,66.0433333" id="Fill-2" fill="#1A1919"></path>
                <path d="M193.406667,79.9046667 C190.509333,74.3413333 174.755333,70.536 174.755333,70.536 L172.765333,67.6786667 C168.038667,68.5986667 164.314,75.4366667 164.314,75.4366667 C156.811333,79.54 148.941333,78.276 143.742667,81.0233333 C138.540667,83.7706667 133.786,93.0753333 133.786,93.0753333 C145.5,89.2866667 154.680667,92.254 162.508,92.9193333 C170.335333,93.586 172.201333,94.656 178.079333,93.0586667 C183.957333,91.4633333 186.179333,88.918 186.179333,88.918 C179.192,91.7866667 175.766,85.4346667 175.766,85.4346667 C167.222667,83.0233333 142.318667,86.508 142.318667,86.508 C146.924,83.7993333 165.87,80.7186667 171.867333,80.9086667 C177.865333,81.1 180.492,84.5146667 180.492,84.5146667 C181.685333,80.2853333 183.756,78.2006667 185.168667,76.978 C185.715333,77.382 186.161333,77.7473333 186.438667,78.038 C188.376667,80.0653333 190.431333,81.1846667 190.973333,83.85 C191.514667,86.512 192.312,92.94 192.028667,96.738 C192.028667,96.738 196.304667,85.4686667 193.406667,79.9046667" id="Fill-3" fill="#B6B7B6"></path>
                <path d="M50.696,126.265333 L51.192,124.104 L52.0186667,124.104 L52.0186667,126.854 L51.4833333,126.854 L51.4833333,124.993333 C51.4833333,124.94 51.484,124.866 51.4846667,124.769333 C51.4866667,124.673333 51.4866667,124.598667 51.4866667,124.545333 L50.966,126.854 L50.4093333,126.854 L49.892,124.545333 C49.892,124.598667 49.892,124.673333 49.8933333,124.769333 C49.8953333,124.866 49.8953333,124.94 49.8953333,124.993333 L49.8953333,126.854 L49.36,126.854 L49.36,124.104 L50.196,124.104 L50.696,126.265333 Z M46.806,124.104 L49.0333333,124.104 L49.0333333,124.591333 L48.2106667,124.591333 L48.2106667,126.854 L47.632,126.854 L47.632,124.591333 L46.806,124.591333 L46.806,124.104 L46.806,124.104 Z" id="Fill-4" fill="#1A1919"></path>
                <path d="M139.186,57.9873333 C139.186,57.9873333 147.92,54.4013333 157.696,57.3293333 C167.472,60.2573333 170.058,63.0753333 170.058,63.0753333 C170.058,63.0753333 167.918667,66.8126667 163.110667,66.5393333 C163.110667,66.5393333 157.818,59.1173333 139.186,57.9873333" id="Fill-5" fill="#D02139"></path>
                <path d="M86.392,48.9633333 C86.392,48.9633333 58.8766667,44.0726667 45.5826667,43.3546667 C45.5826667,43.3546667 71.342,55.9126667 77.0986667,66.9506667 C77.0986667,66.9506667 50.6866667,61.5066667 36.3413333,67.9113333 C36.3413333,67.9113333 63.0606667,73.2613333 68.8086667,80.8866667 C68.8086667,80.8866667 45.196,89.1026667 28.416,83.9046667 C28.416,83.9046667 56.858,103.565333 80.852,95.7306667 C80.852,95.7306667 53.1706667,102.074 39.0226667,119.571333 C39.0226667,119.571333 71.7606667,106 84.9246667,110.6 C84.9246667,110.6 58.5413333,122.800667 56.2533333,135.628667 C56.2533333,135.628667 81.8553333,116.329333 93.5886667,116.028667 C105.321333,115.728 120.09,102.980667 120.09,102.980667 C120.09,102.980667 108.439333,107.397333 102.02,104.548 C102.02,104.548 118.532667,99.6993333 127.502667,88.7106667 C127.502667,88.7106667 117.622667,87.0193333 108.434667,90.0053333 C108.434667,90.0053333 113.975333,78.9 116.401333,75.0986667 C116.401333,75.0986667 106.988,74.2473333 100.939333,67.7666667 C100.939333,67.7666667 110.367333,70.8673333 117.976,63.0193333 C117.976,63.0193333 105.043333,59.4853333 95.768,62.1306667 C95.768,62.1306667 100.736,58.4046667 112.175333,54.8526667 C112.175333,54.8526667 106.006667,52.1766667 103.394,46 C103.394,46 112.596667,53.5586667 126.105333,50.4966667 C126.105333,50.4966667 121.228667,48.0626667 119.367333,46.4666667 C119.367333,46.4666667 163.528,55.584 170.241333,59.344 C170.241333,59.344 153.56,38.7826667 99.432,37.9086667 C75.4033333,37.5193333 45.7726667,25.8113333 45.7726667,25.8113333 C45.7726667,25.8113333 64.272,45.332 86.392,48.9633333" id="Fill-6" fill="#D02139"></path>
                <path d="M156.742,66.54 C155.012,65.4546667 150.544,64.3786667 147.155333,63.6766667 C145.623333,65.178 144.729333,67.2053333 144.877333,69.3873333 C145.163333,73.6013333 149.176,76.762 153.836667,76.4466667 C158.108,76.156 161.407333,73.0393333 161.714,69.2773333 C159.827333,68.5506667 158.399333,67.5806667 156.742,66.54 Z M153.796,72.1033333 C152.718667,72.1773333 151.756667,71.5653333 151.323333,70.6433333 C151.320667,70.6433333 151.318667,70.644 151.316,70.6446667 C151.165333,70.6893333 151.008667,70.7226667 150.844667,70.7333333 C149.655333,70.8153333 148.629333,69.9186667 148.549333,68.732 C148.468667,67.5433333 149.364667,66.5153333 150.552667,66.434 C151.190667,66.3926667 151.776667,66.6373333 152.2,67.052 L152.200667,67.0506667 C152.209333,67.0593333 152.215333,67.0693333 152.224,67.078 C152.294667,67.15 152.364,67.2226667 152.424667,67.3033333 C152.428,67.3066667 152.430667,67.3093333 152.432667,67.3126667 C152.739333,67.1506667 153.081333,67.0433333 153.453333,67.0193333 C154.858,66.9233333 156.072667,67.9846667 156.169333,69.3893333 C156.264,70.794 155.201333,72.0086667 153.796,72.1033333 L153.796,72.1033333 Z" id="Fill-7" fill="#D02139"></path>
                <path d="M152.848,68.4393333 C152.764667,67.2513333 151.74,66.3553333 150.552667,66.434 C149.364667,66.5153333 148.468667,67.5433333 148.549333,68.732 C148.629333,69.9186667 149.655333,70.8153333 150.844667,70.7333333 C152.03,70.6533333 152.928667,69.6266667 152.848,68.4393333" id="Fill-8" fill="#FFFFFE"></path>
            </g>
        </g>
    </g>
</svg>