<?xml version="1.0" encoding="UTF-8"?>
<svg width="200px" height="200px" viewBox="0 0 200 200" version="1.1" xmlns="http://www.w3.org/2000/svg" xmlns:xlink="http://www.w3.org/1999/xlink">
    <!-- Generator: Sketch 54.1 (76490) - https://sketchapp.com -->
    <title>texas-am</title>
    <desc>Created with Sketch.</desc>
    <g id="texas-am" stroke="none" stroke-width="1" fill="none" fill-rule="evenodd">
        <g id="texas-am_BGD" transform="translate(0.000000, -0.000000)">
            <g id="texas-am" transform="translate(0.000000, 14.000000)">
                <g id="g10" transform="translate(99.974954, 86.361129) scale(-1, 1) rotate(-180.000000) translate(-99.974954, -86.361129) translate(0.000000, 0.110192)" fill-rule="nonzero">
                    <g id="g12">
                        <polyline id="path14" fill="#B6B5B5" points="199.754966 118.334282 199.754966 119.677032 196.169492 119.677032 196.169492 119.114447 196.167488 119.677032 176.681989 119.67002 175.263707 119.67002 174.77966 119.67002 174.425841 119.67002 173.446727 117.630851 160.931025 91.5960909 148.38507 117.64147 147.778008 118.9159 147.55622 119.363884 147.400347 119.677032 145.159225 119.677032 126.341494 119.677032 124.086348 119.677032 123.3158 119.677032 122.754217 119.677032 122.754217 116.079136 122.752614 106.053391 122.754217 103.799246 122.754217 103.028097 122.754217 102.466313 126.341494 102.466313 127.761179 102.466313 127.761179 63.9751549 126.067615 63.9751549 123.813671 63.9751549 123.037112 63.9751549 122.474127 63.9751549 122.474127 60.3786612 122.474127 50.3575244 122.474127 48.1005748 122.474127 47.3294253 122.474127 46.769245 126.067615 46.769245 147.19639 46.769245 149.452338 46.769245 150.223688 46.769245 150.783868 46.769245 150.783868 50.3575244 150.787274 60.3786612 150.783868 62.6302013 150.783868 63.4133718 150.783868 63.9751549 147.19639 63.9751549 145.341544 63.9751549 145.341544 84.2293993 157.721609 58.702528 160.92782 52.0689193 164.173299 58.6933118 176.725265 84.3694444 176.725265 63.9765574 175.036309 63.9751549 172.783968 63.9751549 172.005405 63.9751549 171.443622 63.9751549 171.443622 60.3786612 171.443622 50.3575244 171.443622 48.1005748 171.443622 47.3294253 171.443622 46.769245 175.036309 46.769245 196.169492 46.769245 198.42564 46.769245 199.194986 46.769245 199.754966 46.769245 199.754966 50.3575244 199.758573 60.3786612 199.754966 62.6302013 199.754966 63.4133718 199.754966 63.9751549 196.169492 63.9751549 194.321658 63.9751549 194.321658 102.466313 196.169492 102.466313 198.42564 102.466313 199.194986 102.466313 199.758573 102.466313 199.758573 106.053391 199.758573 116.079136 199.754966 118.334282"></polyline>
                        <path d="M36.2251932,84.6673658 L38.60055,90.1655875 L40.97771,84.6701707 L36.2251932,84.6673658 Z M77.007962,62.6736774 L77.007962,63.44663 L77.007962,64.0092145 L73.4254928,64.0092145 L68.9845212,64.0092145 L52.2434247,102.701926 L53.5238654,102.701926 L54.2880026,102.701926 L54.8495854,102.701926 L54.8495854,106.2874 L54.8495854,116.322962 L54.8495854,118.57891 L54.8495854,119.353866 L54.8495854,119.915649 L51.2643113,119.915649 L25.4421231,119.915649 L23.1841717,119.915649 L22.4112191,119.915649 L21.8504377,119.915649 L21.8504377,116.322962 L21.8504377,106.2874 L21.8504377,104.031252 L21.8504377,103.263709 L21.8504377,102.701926 L24.9380409,102.701926 L8.19872757,64.0110177 L3.59346848,64.0092145 L1.3400791,64.0092145 L0.562702716,64.0092145 L0,64.0092145 L0,60.4147243 L0,50.3899812 L0,48.1348348 L0,47.3636853 L0,46.8053081 L3.59346848,46.8053081 L26.666666,46.8017018 L28.9208107,46.8053081 L29.6903574,46.8053081 L30.2529419,46.8053081 L30.2529419,50.3899812 L30.2529419,60.4147243 L30.2529419,62.6736774 L30.2529419,63.44663 L30.2529419,64.0092145 L27.2933627,64.0092145 L28.7827691,67.451839 L48.4175295,67.451839 L49.904131,64.0092145 L48.0907576,64.0092145 L47.3176046,64.0092145 L46.7550201,64.0092145 L46.7550201,60.4147243 L46.7522152,50.3899812 L46.7550201,48.1348348 L46.7550201,47.3636853 L46.7550201,46.8053081 L50.3465051,46.8053081 L73.4254928,46.8017018 L75.6696199,46.8053081 L76.4489838,46.8053081 L77.007962,46.8053081 L77.007962,50.3899812 L77.0107669,60.4147243 L77.007962,62.6736774 L77.007962,62.6736774 Z" id="path16" fill="#B6B5B5"></path>
                        <polyline id="path18" fill="#B6B5B5" points="70.068418 8.07757556 66.4332565 8.07757556 66.4332565 40.9456539 83.1951895 40.9456539 83.1951895 142.194036 54.7187565 142.194036 54.7159515 129.061655 54.7159515 125.435509 53.7532669 125.435509 51.0880027 125.435509 25.4825939 125.435509 21.8466311 125.435509 21.8466311 126.398194 21.8466311 129.061655 21.8466311 168.676379 21.8466311 172.302525 22.8167287 172.302525 25.4825939 172.310739 173.799144 172.302525 177.422285 172.302525 177.422285 171.33984 177.429698 168.676379 177.422285 129.246779 177.422285 125.610615 176.4594 125.610615 173.799144 125.610615 147.998393 125.610615 144.373049 125.610615 144.373049 126.5735 144.366237 129.246779 144.366237 142.194036 116.079136 142.194036 116.079136 40.9456539 129.208712 40.9456539 132.836861 40.9456539 132.836861 39.9849727 132.836861 37.3116945 132.836861 11.7025191 132.836861 8.07757556 131.874778 8.07757556 129.208712 8.07052321 70.068418 8.07757556 70.068418 8.07757556"></polyline>
                        <polyline id="path20" fill="#FFFFFF" points="145.946603 117.191883 160.7453 86.2831934 176.257446 117.197092 176.994336 117.197092 195.974551 117.215124 197.352562 117.215124 197.352562 116.120608 197.352562 106.101275 197.352562 104.939041 195.974551 104.939041 191.850734 104.939041 191.850734 61.5499108 195.974551 61.5499108 197.773699 61.5499108 197.773699 60.4571986 197.773699 50.4468808 197.773699 49.2902567 195.974551 49.2902567 174.873624 49.2902567 173.903527 49.2902567 173.903527 50.4468808 173.903527 60.4571986 173.903527 61.5499108 174.873624 61.5499108 179.172748 61.5499108 179.172748 95.5103407 160.790379 57.5773589 151.496916 77.0370128 142.892058 95.4400176 142.892058 61.5499108 147.066362 61.5499108 148.294512 61.5499108 148.294512 60.4571986 148.294512 50.4468808 148.294512 49.2133221 147.066362 49.2133221 125.941194 49.2133221 124.924415 49.2133221 124.924415 50.4468808 124.924415 60.4571986 124.924415 61.5823676 125.941194 61.5969932 130.215875 61.5969932 130.215875 104.307736 126.204855 104.307736 125.106934 104.307736 125.106934 106.101275 125.106934 116.120608 125.106934 117.191883 126.204855 117.191883 145.010565 117.191883"></polyline>
                        <path d="M44.0969686,82.7093393 L33.1448026,82.7093393 L38.6700717,94.7291737 L44.0969686,82.7093393 Z M73.3457532,61.6356609 L67.2739277,61.6532917 L48.5014764,105.168442 L51.1396932,105.156621 L52.3832694,105.156621 L52.3896806,106.331678 L52.3896806,116.359025 L52.3896806,117.552113 L51.2100163,117.552113 L25.4112691,117.552113 L24.2498366,117.552113 L24.2498366,116.359025 L24.2498366,106.331678 L24.2498366,105.151212 L25.4112691,105.151212 L28.6934128,105.151212 L9.78007489,61.5475066 L3.58533425,61.5823676 L2.47441016,61.5823676 L2.47441016,60.5014761 L2.47441016,50.4793376 L2.47441016,49.2297508 L3.58533425,49.2297508 L26.635812,49.2297508 L27.6754313,49.2297508 L27.6754313,50.4793376 L27.6754313,60.5014761 L27.6790376,61.5653378 L26.6396187,61.5653378 L23.5119453,61.5823676 L27.0533427,69.983269 L50.0575995,69.983269 L53.2519897,62.2904067 L50.2898059,62.2904067 L49.151013,62.2904067 L49.151013,60.5014761 L49.151013,50.4793376 L49.151013,49.2089144 L50.2898059,49.2089144 L73.3457532,49.2089144 L74.5795123,49.2089144 L74.5795123,50.4793376 L74.5795123,60.5014761 L74.5795123,61.6356609 L73.3457532,61.6356609 L73.3457532,61.6356609 Z" id="path22" fill="#FFFFFF"></path>
                        <path d="M140.06511,8.40611048 C141.128972,8.40611048 142.035959,8.00877516 142.798293,7.23766573 C143.567439,6.49176042 143.923663,5.57758063 143.923663,4.52455786 C143.923663,3.44446773 143.567439,2.51620329 142.798293,1.76112793 C142.057798,1.00214373 141.128972,0.628287487 140.06511,0.628287487 C138.985221,0.628287487 138.080237,1.00214373 137.308887,1.76112793 C136.570194,2.51620329 136.192934,3.44446773 136.192934,4.52455786 C136.192934,5.57758063 136.570194,6.49176042 137.317903,7.23766573 C138.080237,8.00877516 138.985221,8.40611048 140.06511,8.40611048 M144.581214,4.52455786 C144.581214,5.76212357 144.12762,6.82037549 143.244474,7.68923597 C142.368341,8.56498852 141.310089,9.00035039 140.06511,9.00035039 C138.826343,9.00035039 137.762481,8.56498852 136.878935,7.68923597 C135.995589,6.82037549 135.581264,5.76212357 135.581264,4.52455786 C135.581264,3.27495108 135.995589,2.20525915 136.878935,1.32732278 C137.740442,0.442570487 138.820733,0 140.06511,0 C141.310089,0 142.368341,0.442570487 143.244474,1.32732278 C144.12762,2.21465559 144.581214,3.27495108 144.581214,4.52455786 M141.250184,5.48021023 C141.250184,5.10455284 141.091306,4.84449775 140.737287,4.71809655 C140.547555,4.64030041 140.274878,4.60946645 139.906232,4.60946645 L139.106032,4.60946645 L139.106032,6.38515386 L139.868366,6.38515386 C140.336185,6.38515386 140.697417,6.32184307 140.91059,6.20804392 C141.136586,6.07266702 141.250184,5.85023777 141.250184,5.48021023 M138.246528,6.99928858 L138.246528,2.0590032 L139.106032,2.0590032 L139.106032,3.99559219 L139.808662,3.99559219 C140.274878,3.99559219 140.592634,3.94308029 140.775153,3.84196334 C141.091306,3.65397436 141.250184,3.28739286 141.250184,2.70912089 L141.250184,2.32110187 L141.271822,2.15659399 C141.271822,2.13693959 141.271822,2.12590027 141.28785,2.12075126 C141.28785,2.08983716 141.28785,2.08246426 141.295464,2.0590032 L142.102876,2.0590032 L142.072022,2.12590027 C142.057798,2.15659399 142.035959,2.25073874 142.035959,2.38761827 C142.026944,2.49999493 142.019531,2.63358871 142.019531,2.75121456 L142.019531,3.09940388 C142.019531,3.34890049 141.938389,3.62157767 141.748857,3.85432497 C141.568141,4.12181307 141.28785,4.29892301 140.894362,4.35105424 C141.212318,4.40348599 141.454342,4.48683184 141.620633,4.58598536 C141.938389,4.79917844 142.102876,5.12819421 142.102876,5.570368 C142.102876,6.19904818 141.846428,6.60537925 141.333129,6.82037549 C141.055043,6.93956406 140.592634,6.99928858 139.989578,6.99928858 L138.246528,6.99928858" id="path24" fill="#FFFFFF"></path>
                        <polyline id="path26" fill="#FFFFFF" points="173.627243 169.808961 24.3618326 169.808961 24.3618326 128.145852 52.1855234 128.145852 52.1855234 129.082291 52.1855234 144.711041 85.6464792 144.711041 85.6464792 38.48054 69.99529 38.48054 68.959277 38.48054 68.959277 37.4238909 68.959277 11.8311041 68.959277 10.6552865 69.99529 10.6552865 129.08169 10.6552865 130.215875 10.6552865 130.215875 11.8311041 130.215875 37.4238909 130.215875 38.3378904 129.08169 38.3378904 113.626243 38.3378904 113.626243 144.711041 146.817327 144.711041 146.817327 129.266613 146.817327 128.17911 147.866563 128.17911 173.627243 128.17911 175.07097 128.17911 175.07097 129.266613 175.07097 168.665561 175.07097 169.808961 173.627243 169.808961"></polyline>
                        <polyline id="path28" fill="#B6B5B5" points="158.27077 158.359926 35.7331321 158.359926 29.2856492 164.624088 166.378959 164.624088 158.27077 158.359926"></polyline>
                        <polyline id="path30" fill="#B6B5B5" points="108.205357 149.838213 108.205357 33.1556215 101.939592 26.9673923 101.939592 156.088751 108.205357 149.838213"></polyline>
                        <polyline id="path32" fill="#B6B5B5" points="163.427594 138.9165 163.427594 154.855994 169.686347 161.306082 169.686347 132.931427 163.427594 138.9165"></polyline>
                        <polyline id="path34" fill="#B6B5B5" points="118.639616 21.9153513 118.639616 27.160931 124.907385 33.6182311 124.907385 15.9182566 118.639616 21.9153513"></polyline>
                    </g>
                </g>
            </g>
        </g>
    </g>
</svg>