<?xml version="1.0" encoding="UTF-8"?>
<svg width="200px" height="200px" viewBox="0 0 200 200" version="1.1" xmlns="http://www.w3.org/2000/svg" xmlns:xlink="http://www.w3.org/1999/xlink">
    <!-- Generator: Sketch 54.1 (76490) - https://sketchapp.com -->
    <title>utah</title>
    <desc>Created with Sketch.</desc>
    <g id="utah" stroke="none" stroke-width="1" fill="none" fill-rule="evenodd">
        <g id="utah_BGD" transform="translate(0.000000, 0.000000)">
            <g id="utah" transform="translate(0.000000, 9.000000)">
                <g id="g10" transform="translate(99.999998, 91.593940) scale(-1, 1) rotate(-180.000000) translate(-99.999998, -91.593940) translate(0.000000, 0.381821)" fill-rule="nonzero">
                    <g id="g12">
                        <path d="M171.120602,125.912724 L163.710905,125.912724 L163.710905,72.8193921 L163.660602,72.7763618 L147.564845,55.2649077 L101.769694,55.2649077 L85.6696948,72.7763618 L85.6206039,72.8193921 L85.6206039,125.912724 L78.2157556,125.912724 L78.2157556,149.527269 L122.364239,149.527269 L122.364239,125.912724 L117.671512,125.912724 L117.671512,81.2690889 L131.664845,81.2690889 L131.664845,125.912724 L126.967876,125.912724 L126.967876,149.527269 L171.120602,149.527269 L171.120602,125.912724 Z M124.668482,173.663026 C88.0030281,173.663026 58.2779379,144.45939 58.2779379,108.446664 C58.2779379,72.428483 88.0030281,43.2194535 124.668482,43.2194535 C161.328481,43.2194535 191.056965,72.428483 191.056965,108.446664 C191.056965,144.45939 161.328481,173.663026 124.668482,173.663026 L124.668482,173.663026 Z" id="path14" fill="#FFFFFF"></path>
                        <path d="M41.770605,91.8818159 L40.7838778,99.3442399 L40.7944838,99.4969672 L41.3243626,106.709088 L44.4888474,106.480603 C44.4888474,106.480603 43.9987868,99.7357551 43.9704231,99.4309066 C44.0101807,99.1266642 44.9244837,92.2836341 44.9244837,92.2836341 L41.770605,91.8818159 Z M39.5598778,52.3108472 C39.5598778,52.3108472 38.457393,64.1733317 38.4289687,64.4987863 C38.3359384,64.7927257 35.667393,73.2969679 35.667393,73.2969679 C35.667393,73.2969679 38.7277566,80.9224222 38.9372718,81.4333313 C38.9372718,81.9533313 38.9372718,85.5696948 38.9372718,85.5696948 L42.1131505,85.5696948 L42.1131505,80.8351495 C42.1131505,80.8351495 39.3889687,74.0575739 39.0303021,73.1660588 C39.3231505,72.2436346 41.5622414,65.1078772 41.5622414,65.1078772 L42.7251504,52.6036957 L39.5598778,52.3108472 Z M16.794242,33.6933931 L13.619333,33.6933931 C13.619333,33.6933931 13.619333,37.2568476 13.619333,38.211393 C13.309636,38.5369081 12.5478179,39.3515748 12.5478179,39.3515748 L12.5601209,39.9817566 L12.8241209,52.2338775 L16.0009693,52.1709078 C16.0009693,52.1709078 15.7746057,41.6787262 15.746242,40.5485444 C16.0492723,40.2225444 16.794242,39.4278172 16.794242,39.4278172 L16.794242,33.6933931 Z M49.9433927,142.922421 C49.7736957,142.784845 49.59612,142.63939 49.4019988,142.478178 L46.6728473,132.821209 L46.5568473,132.630906 C46.5568473,132.630906 42.1233323,125.499997 42.1020596,125.510906 C42.0901808,125.494542 36.9521809,111.878179 36.7978173,111.476361 C36.7646657,111.048482 36.070787,101.559391 36.070787,101.559391 C36.070787,101.559391 28.3119993,92.3169674 27.6455751,91.5236341 C27.6455751,90.6109068 27.6455751,85.4951494 27.6455751,84.8854524 C27.9145448,84.3448464 29.5144235,81.1163616 29.5144235,81.1163616 L29.321272,77.1533314 L26.1451509,77.3042405 C26.1451509,77.3042405 26.2727266,79.8369677 26.3049084,80.4654525 C26.0127872,81.0527252 24.4696964,84.1581797 24.4696964,84.1581797 L24.4696964,92.652725 C24.4696964,92.652725 32.3816356,102.059391 32.9827264,102.776361 C33.0433325,103.678179 33.6654537,112.144846 33.6654537,112.144846 L33.7429082,112.356361 C33.7429082,112.356361 39.1243021,126.608482 39.2563627,126.879997 C39.2563627,126.879997 43.5130292,133.722421 43.7277565,134.081209 C43.7781807,134.244239 44.3290898,136.193936 44.9736958,138.469087 C31.8797568,125.8103 3.60582415,91.2412098 3.29166658,28.5890296 C4.6865514,28.0236963 9.18539371,26.1891509 9.18539371,26.1891509 C9.18539371,26.1891509 9.26278765,22.6678782 9.27909068,21.7016964 C9.47303007,21.5392722 9.52696946,21.4945449 9.7693937,21.289757 C10.9280603,22.2012116 13.3269694,24.0909085 13.3269694,24.0909085 L15.7845451,24.0909085 C15.7845451,24.0909085 18.1614541,21.2133328 18.7679995,20.4855752 C19.2206662,20.4304237 19.5120601,20.3981813 20.1133934,20.3326056 C20.7966661,21.4199995 22.3245449,23.8745449 22.3245449,23.8745449 C22.3245449,23.8745449 29.3430296,31.0544235 30.037878,31.7708477 C30.115272,32.5970901 30.633272,38.1467869 30.7873932,39.7338778 L22.213757,56.7443016 L22.4950297,62.0660591 C22.4950297,62.0660591 25.6815751,67.1593923 26.1451509,67.886665 C26.1224236,68.1703013 26.1176357,68.2890892 26.0958781,68.5933316 C25.6110297,69.1266649 24.0561206,70.8424225 24.0561206,70.8424225 L24.0561206,73.8618163 L27.2317569,73.8618163 C27.2317569,73.8618163 27.2317569,72.7096952 27.2317569,72.0363618 C27.7440599,71.4618164 29.1941205,69.8763619 29.1941205,69.8763619 L29.3826053,67.0945438 C29.3826053,67.0945438 26.0013933,61.7060591 25.6216963,61.1096954 C25.5942418,60.5012106 25.4616357,58.0023622 25.42806,57.3951501 C25.7750903,56.6988471 33.4010295,41.5781202 33.6830295,41.0260596 L38.2478778,37.2346051 C38.6058172,39.0812111 39.4114536,43.2847868 39.4114536,43.2847868 C39.4114536,43.2847868 44.0101807,42.8721807 45.4661201,42.7308474 C46.1266655,44.1647868 48.4258776,49.0956351 48.4258776,49.0956351 C48.4258776,49.0956351 51.4751502,49.0310291 52.8316956,49.0096957 C53.1851502,50.6491502 54.225635,55.4401198 54.225635,55.4401198 C54.225635,55.4401198 55.8698168,55.5163622 56.2663622,55.5369077 C56.6024834,56.6449077 57.0606046,58.1332713 57.2196955,58.6550894 C56.9995137,59.4569076 53.8787865,70.7993922 53.8787865,70.7993922 L53.9888471,71.2006043 L55.9633319,78.3884829 C51.7836351,87.5775736 49.4569079,97.7490885 49.4569079,108.446664 C49.4569079,120.8903 52.6079381,132.622421 58.1603016,142.922421 L49.9433927,142.922421 L49.9433927,142.922421 Z" id="path16" fill="#FFFFFF"></path>
                        <polygon id="path18" fill="#FFFFFF" points="55.6993319 162.451511 50.996423 150.971511 55.6993319 150.971511"></polygon>
                        <polyline id="path20" fill="#CE0F3E" points="126.967876 149.527269 126.967876 125.912724 131.664845 125.912724 131.664845 81.2690889 117.671512 81.2690889 117.671512 125.912724 122.364239 125.912724 122.364239 149.527269 78.2157556 149.527269 78.2157556 125.912724 85.6206039 125.912724 85.6206039 72.8193921 85.6696948 72.7763618 101.769694 55.2649077 147.564845 55.2649077 163.660602 72.7763618 163.710905 72.8193921 163.710905 125.912724 171.120602 125.912724 171.120602 149.527269 126.967876 149.527269"></polyline>
                        <path d="M21.7670298,16.9872117 L17.1141208,17.5295753 C17.1141208,17.5295753 15.0570299,20.0193934 14.3406663,20.8756964 C13.5305451,20.247151 9.70406036,17.2369693 9.70406036,17.2369693 L6.13612106,20.2249086 C6.13612106,20.2249086 6.07624227,22.9195146 6.05373924,24.0812115 C5.49147865,24.3092115 4.35629686,24.7641812 3.22538174,25.2319994 C3.20809689,23.9284843 3.19223628,22.4623631 3.18655144,21.9289691 C3.67187264,21.4199995 4.90648473,20.1164843 4.90648473,20.1164843 C4.90648473,20.1164843 4.75284231,16.1072723 4.72561806,15.3574542 C5.13754533,14.6732724 8.64466645,8.91642402 9.02509068,8.29878767 C9.6214543,7.97206041 12.7031512,6.29945439 12.7031512,6.29945439 C12.7031512,6.29945439 13.1335148,4.23508474 13.3591512,3.12736962 C13.5852118,3.12736962 13.6295148,3.12736962 13.8163027,3.12736962 C14.3299996,3.63826052 15.3827875,4.68063625 15.3827875,4.68063625 C15.3827875,4.68063625 17.8032723,5.71330289 18.668545,6.09212106 C19.0483026,7.15696952 21.2265449,13.2944845 21.2265449,13.2944845 C21.2265449,13.2944845 23.2341206,13.9455754 24.0009691,14.1841815 C24.5849691,15.5326663 26.00806,18.7793329 26.0127872,18.7793329 C26.0127872,18.7793329 27.0161205,21.951454 28.0527872,25.2319994 C26.3989084,23.5376358 24.9493327,22.0501813 24.8494539,21.951454 C24.684666,21.679454 21.7670298,16.9872117 21.7670298,16.9872117" id="path22" fill="#CE0F3E"></path>
                        <path d="M58.6590894,52.5061805 C58.6590894,52.5061805 57.1541198,52.4412714 56.8172107,52.4304229 C56.4763016,50.8449078 55.3896956,45.8375746 55.3896956,45.8375746 C55.3896956,45.8375746 51.7012108,45.9029079 50.44412,45.9249685 C49.8103624,44.567211 47.405514,39.4187869 47.405514,39.4187869 C47.405514,39.4187869 43.6076959,39.7653929 41.9919383,39.9055142 C41.6664232,38.2012112 40.7786656,33.6060598 40.7786656,33.6060598 L37.6351506,33.6060598 L37.1896354,33.9879385 L33.7107264,36.9199991 L33.367878,33.2272719 L34.2663628,33.4770295 L38.7166051,28.1212114 L41.6491505,23.9381812 C41.6491505,23.9381812 41.9587868,22.5916358 42.1676353,21.6907873 C42.6311504,21.6588479 42.7416959,21.6472722 43.1377565,21.6164843 C44.1368474,22.9195146 46.2983019,25.7319994 46.4356352,25.8733327 C46.4356352,25.8733327 48.2933321,27.6115145 48.9940594,28.2513932 C48.9940594,28.8278781 48.9940594,29.3271508 48.9940594,29.7734538 C48.5975139,30.3698174 46.4249685,33.6060598 46.4249685,33.6060598 L50.1849078,36.7665445 C50.1849078,36.7665445 52.0373926,36.127393 52.9140593,35.8229082 C53.4709078,36.6041809 53.911938,37.2128476 54.3581805,37.8423021 C54.1818168,38.2568475 53.547332,39.7113929 53.547332,39.7113929 C53.547332,39.7113929 55.9905441,41.818908 56.5189683,42.2866656 C56.7296349,43.0570292 58.0146652,47.8799988 58.0146652,47.8799988 C58.0146652,47.8799988 60.7593924,51.2679987 61.8296954,52.5939987 C61.3109076,53.2249078 60.3849682,54.3423017 59.5310288,55.363635 L58.6590894,52.5061805" id="path24" fill="#CE0F3E"></path>
                        <path d="M44.4888474,106.480603 L41.3243626,106.709088 L40.7944838,99.4969672 L40.7838778,99.3442399 L41.770605,91.8818159 L44.9244837,92.2836341 C44.9244837,92.2836341 44.0101807,99.1266642 43.9704231,99.4309066 C43.9987868,99.7357551 44.4888474,106.480603 44.4888474,106.480603" id="path26" fill="#231F20"></path>
                        <path d="M39.0303021,73.1660588 C39.3889687,74.0575739 42.1131505,80.8351495 42.1131505,80.8351495 L42.1131505,85.5696948 L38.9372718,85.5696948 C38.9372718,85.5696948 38.9372718,81.9533313 38.9372718,81.4333313 C38.7277566,80.9224222 35.667393,73.2969679 35.667393,73.2969679 C35.667393,73.2969679 38.3359384,64.7927257 38.4289687,64.4987863 C38.457393,64.1733317 39.5598778,52.3108472 39.5598778,52.3108472 L42.7251504,52.6036957 L41.5622414,65.1078772 C41.5622414,65.1078772 39.3231505,72.2436346 39.0303021,73.1660588" id="path28" fill="#231F20"></path>
                        <path d="M16.0009693,52.1709078 L12.8241209,52.2338775 L12.5601209,39.9817566 L12.5478179,39.3515748 C12.5478179,39.3515748 13.309636,38.5369081 13.619333,38.211393 C13.619333,37.2568476 13.619333,33.6933931 13.619333,33.6933931 L16.794242,33.6933931 L16.794242,39.4278172 C16.794242,39.4278172 16.0492723,40.2225444 15.746242,40.5485444 C15.7746057,41.6787262 16.0009693,52.1709078 16.0009693,52.1709078" id="path30" fill="#231F20"></path>
                        <path d="M124.668482,43.2194535 C88.0030281,43.2194535 58.2779379,72.428483 58.2779379,108.446664 C58.2779379,144.45939 88.0030281,173.663026 124.668482,173.663026 C161.328481,173.663026 191.056965,144.45939 191.056965,108.446664 C191.056965,72.428483 161.328481,43.2194535 124.668482,43.2194535 L124.668482,43.2194535 Z M49.4569079,108.446664 C49.4569079,97.7490885 51.7836351,87.5775736 55.9633319,78.3884829 L53.9888471,71.2006043 L53.8787865,70.7993922 C53.8787865,70.7993922 56.9995137,59.4569076 57.2196955,58.6550894 C57.0606046,58.1332713 56.6024834,56.6449077 56.2663622,55.5369077 C55.8698168,55.5163622 54.225635,55.4401198 54.225635,55.4401198 C54.225635,55.4401198 53.1851502,50.6491502 52.8316956,49.0096957 C51.4751502,49.0310291 48.4258776,49.0956351 48.4258776,49.0956351 C48.4258776,49.0956351 46.1266655,44.1647868 45.4661201,42.7308474 C44.0101807,42.8721807 39.4114536,43.2847868 39.4114536,43.2847868 C39.4114536,43.2847868 38.6058172,39.0812111 38.2478778,37.2346051 L33.6830295,41.0260596 C33.4010295,41.5781202 25.7750903,56.6988471 25.42806,57.3951501 C25.4616357,58.0023622 25.5942418,60.5012106 25.6216963,61.1096954 C26.0013933,61.7060591 29.3826053,67.0945438 29.3826053,67.0945438 L29.1941205,69.8763619 C29.1941205,69.8763619 27.7440599,71.4618164 27.2317569,72.0363618 C27.2317569,72.7096952 27.2317569,73.8618163 27.2317569,73.8618163 L24.0561206,73.8618163 L24.0561206,70.8424225 C24.0561206,70.8424225 25.6110297,69.1266649 26.0958781,68.5933316 C26.1176357,68.2890892 26.1224236,68.1703013 26.1451509,67.886665 C25.6815751,67.1593923 22.4950297,62.0660591 22.4950297,62.0660591 L22.213757,56.7443016 L30.7873932,39.7338778 C30.633272,38.1467869 30.115272,32.5970901 30.037878,31.7708477 C29.3430296,31.0544235 22.3245449,23.8745449 22.3245449,23.8745449 C22.3245449,23.8745449 20.7966661,21.4199995 20.1133934,20.3326056 C19.5120601,20.3981813 19.2206662,20.4304237 18.7679995,20.4855752 C18.1614541,21.2133328 15.7845451,24.0909085 15.7845451,24.0909085 L13.3269694,24.0909085 C13.3269694,24.0909085 10.9280603,22.2012116 9.7693937,21.289757 C9.52696946,21.4945449 9.47303007,21.5392722 9.27909068,21.7016964 C9.26278765,22.6678782 9.18539371,26.1891509 9.18539371,26.1891509 C9.18539371,26.1891509 4.6865514,28.0236963 3.29166658,28.5890296 C3.60582415,91.2412098 31.8797568,125.8103 44.9736958,138.469087 C44.3290898,136.193936 43.7781807,134.244239 43.7277565,134.081209 C43.5130292,133.722421 39.2563627,126.879997 39.2563627,126.879997 C39.1243021,126.608482 33.7429082,112.356361 33.7429082,112.356361 L33.6654537,112.144846 C33.6654537,112.144846 33.0433325,103.678179 32.9827264,102.776361 C32.3816356,102.059391 24.4696964,92.652725 24.4696964,92.652725 L24.4696964,84.1581797 C24.4696964,84.1581797 26.0127872,81.0527252 26.3049084,80.4654525 C26.2727266,79.8369677 26.1451509,77.3042405 26.1451509,77.3042405 L29.321272,77.1533314 L29.5144235,81.1163616 C29.5144235,81.1163616 27.9145448,84.3448464 27.6455751,84.8854524 C27.6455751,85.4951494 27.6455751,90.6109068 27.6455751,91.5236341 C28.3119993,92.3169674 36.070787,101.559391 36.070787,101.559391 C36.070787,101.559391 36.7646657,111.048482 36.7978173,111.476361 C36.9521809,111.878179 42.0901808,125.494542 42.1020596,125.510906 C42.1233323,125.499997 46.5568473,132.630906 46.5568473,132.630906 L46.6728473,132.821209 L49.4019988,142.478178 C49.59612,142.63939 49.7736957,142.784845 49.9433927,142.922421 L58.1603016,142.922421 C52.6079381,132.622421 49.4569079,120.8903 49.4569079,108.446664 Z M59.5310288,55.363635 C60.3849682,54.3423017 61.3109076,53.2249078 61.8296954,52.5939987 C60.7593924,51.2679987 58.0146652,47.8799988 58.0146652,47.8799988 C58.0146652,47.8799988 56.7296349,43.0570292 56.5189683,42.2866656 C55.9905441,41.818908 53.547332,39.7113929 53.547332,39.7113929 C53.547332,39.7113929 54.1818168,38.2568475 54.3581805,37.8423021 C53.911938,37.2128476 53.4709078,36.6041809 52.9140593,35.8229082 C52.0373926,36.127393 50.1849078,36.7665445 50.1849078,36.7665445 L46.4249685,33.6060598 C46.4249685,33.6060598 48.5975139,30.3698174 48.9940594,29.7734538 C48.9940594,29.3271508 48.9940594,28.8278781 48.9940594,28.2513932 C48.2933321,27.6115145 46.4356352,25.8733327 46.4356352,25.8733327 C46.2983019,25.7319994 44.1368474,22.9195146 43.1377565,21.6164843 C42.7416959,21.6472722 42.6311504,21.6588479 42.1676353,21.6907873 C41.9587868,22.5916358 41.6491505,23.9381812 41.6491505,23.9381812 L38.7166051,28.1212114 L34.2663628,33.4770295 L33.367878,33.2272719 L33.7107264,36.9199991 L37.1896354,33.9879385 L37.6351506,33.6060598 L40.7786656,33.6060598 C40.7786656,33.6060598 41.6664232,38.2012112 41.9919383,39.9055142 C43.6076959,39.7653929 47.405514,39.4187869 47.405514,39.4187869 C47.405514,39.4187869 49.8103624,44.567211 50.44412,45.9249685 C51.7012108,45.9029079 55.3896956,45.8375746 55.3896956,45.8375746 C55.3896956,45.8375746 56.4763016,50.8449078 56.8172107,52.4304229 C57.1541198,52.4412714 58.6590894,52.5061805 58.6590894,52.5061805 L59.5310288,55.363635 Z M26.0127872,18.7793329 C26.00806,18.7793329 24.5849691,15.5326663 24.0009691,14.1841815 C23.2341206,13.9455754 21.2265449,13.2944845 21.2265449,13.2944845 C21.2265449,13.2944845 19.0483026,7.15696952 18.668545,6.09212106 C17.8032723,5.71330289 15.3827875,4.68063625 15.3827875,4.68063625 C15.3827875,4.68063625 14.3299996,3.63826052 13.8163027,3.12736962 C13.6295148,3.12736962 13.5852118,3.12736962 13.3591512,3.12736962 C13.1335148,4.23508474 12.7031512,6.29945439 12.7031512,6.29945439 C12.7031512,6.29945439 9.6214543,7.97206041 9.02509068,8.29878767 C8.64466645,8.91642402 5.13754533,14.6732724 4.72561806,15.3574542 C4.75284231,16.1072723 4.90648473,20.1164843 4.90648473,20.1164843 C4.90648473,20.1164843 3.67187264,21.4199995 3.18655144,21.9289691 C3.19223628,22.4623631 3.20809689,23.9284843 3.22538174,25.2319994 C4.35629686,24.7641812 5.49147865,24.3092115 6.05373924,24.0812115 C6.07624227,22.9195146 6.13612106,20.2249086 6.13612106,20.2249086 L9.70406036,17.2369693 C9.70406036,17.2369693 13.5305451,20.247151 14.3406663,20.8756964 C15.0570299,20.0193934 17.1141208,17.5295753 17.1141208,17.5295753 L21.7670298,16.9872117 C21.7670298,16.9872117 24.684666,21.679454 24.8494539,21.951454 C24.9493327,22.0501813 26.3989084,23.5376358 28.0527872,25.2319994 C27.0161205,21.951454 26.0127872,18.7793329 26.0127872,18.7793329 Z M55.6993319,162.451511 L55.6993319,150.971511 L50.996423,150.971511 L55.6993319,162.451511 Z M124.668482,182.352723 C99.2933309,182.352723 76.8175738,169.93939 63.1903015,150.971511 L57.9046046,150.971511 L57.9046046,167.950299 L55.3466047,167.950299 L49.2592109,158.390905 L45.9069685,161.953935 L45.2014534,159.607875 L47.4943018,150.971511 L42.7578171,150.971511 L42.7578171,142.922421 L45.1216958,142.922421 C32.8856355,131.889694 0.0823866646,95.9357552 0.0767048466,27.5890296 L0,20.7133328 C0,20.7133328 1.19649694,19.4436359 1.68631511,18.9327874 C1.6479636,17.9758783 1.5163333,14.5442421 1.5163333,14.5442421 L6.74218165,5.96353924 C6.74218165,5.96353924 9.04145432,4.71283019 9.88563612,4.25757565 C10.0788482,3.32315143 10.7623028,0 10.7623028,0 L15.1283027,0 C15.1283027,0 16.8716965,1.71567268 17.2024238,2.04001207 C17.6766056,2.24715752 21.2104843,3.76846657 21.2104843,3.76846657 C21.2104843,3.76846657 23.2883631,9.62309067 23.7085449,10.8072725 C24.4912115,11.05703 26.3496963,11.6550906 26.3496963,11.6550906 L28.9843629,17.6938783 C29.0343023,17.8247874 31.9680598,27.0781205 32.8330901,29.8163023 C32.9770295,29.8586659 32.9827264,29.8586659 33.1370901,29.9036356 C34.0295749,28.8278781 36.1749688,26.2424236 36.1804233,26.2424236 C36.1804233,26.2315145 38.2424233,23.2886055 38.6941202,22.6581206 C38.805393,22.1685449 39.5871505,18.7478783 39.5871505,18.7478783 L44.6214534,18.3672117 C44.6214534,18.3672117 48.7679988,23.7665449 48.78412,23.7871509 C48.8011503,23.7758176 51.6735139,26.4370296 51.6735139,26.4370296 L52.1699987,26.9048478 L52.1699987,30.7168477 C52.1699987,30.7168477 51.2265442,32.1285447 50.6252109,33.019878 C50.7360593,33.1188477 50.7530896,33.1285446 50.8572715,33.2139992 C51.7338775,32.9114537 54.1266653,32.0854537 54.1266653,32.0854537 L57.9756349,37.4732718 C57.9756349,37.4732718 57.4895743,38.5921202 57.3747864,38.8532111 C58.1015743,39.4952717 59.3487258,40.5691505 59.3487258,40.5691505 C59.3487258,40.5691505 60.7593924,45.8709686 60.9139379,46.4455746 C61.2945439,46.9121806 65.9151499,52.615029 65.9151499,52.615029 L60.3186652,59.3600591 C59.6190894,61.8927257 57.3470895,70.147271 57.1647864,70.7993922 C57.2386652,71.0703013 57.6204834,72.4545436 58.0773925,74.118786 C70.6806043,50.6029684 95.7981794,34.52909 124.668482,34.52909 C166.136966,34.52909 199.879389,67.6927256 199.879389,108.446664 C199.879389,149.19636 166.136966,182.352723 124.668482,182.352723 L124.668482,182.352723 Z" id="path32" fill="#231F20"></path>
                        <path d="M188.750904,47.9890897 C188.029086,47.2719988 187.154541,46.9152716 186.123632,46.9152716 C185.092723,46.9152716 184.216965,47.2719988 183.496359,47.9890897 C182.778783,48.7043018 182.421814,49.5703018 182.421814,50.5885442 C182.421814,51.5956351 182.780601,52.4569078 183.501208,53.1702411 C184.22848,53.8866047 185.101207,54.2431502 186.123632,54.2431502 C187.149692,54.2431502 188.026056,53.8866047 188.750904,53.1702411 C189.473329,52.4569078 189.832116,51.5956351 189.832116,50.5885442 C189.832116,49.5703018 189.473329,48.7043018 188.750904,47.9890897 Z M186.132117,54.8243623 C184.944238,54.8243623 183.930904,54.4121805 183.093935,53.587332 C182.252117,52.7594532 181.830298,51.7606654 181.830298,50.5932715 C181.830298,49.4145442 182.247268,48.4114533 183.08242,47.5835746 C183.921208,46.7497564 184.936359,46.3356958 186.132117,46.3356958 C187.32545,46.3356958 188.34545,46.7497564 189.186056,47.5835746 C190.027268,48.413817 190.449692,49.4176351 190.449692,50.5932715 C190.449692,51.763029 190.027268,52.763029 189.186056,53.587332 C188.34545,54.4121805 187.32545,54.8243623 186.132117,54.8243623 L186.132117,54.8243623 Z" id="path34" fill="#231F20"></path>
                        <path d="M186.79151,50.7940593 C186.612117,50.7260593 186.343026,50.6903624 185.986056,50.6903624 L185.22242,50.6903624 L185.22242,52.3550896 L185.944238,52.3550896 C186.413329,52.3550896 186.753935,52.2983017 186.966056,52.183029 C187.178783,52.0691502 187.28545,51.8461199 187.28545,51.5120593 C187.28545,51.1588472 187.121207,50.9199987 186.79151,50.7940593 L186.79151,50.7940593 Z M188.090298,51.5885442 C188.090298,52.1739987 187.844844,52.5691502 187.353329,52.7691502 C187.076965,52.8806653 186.643632,52.9346653 186.054541,52.9346653 L184.391511,52.9346653 L184.391511,48.2746049 L185.22242,48.2746049 L185.22242,50.1115139 L185.886056,50.1115139 C186.332117,50.1115139 186.643632,50.0598775 186.821814,49.9611503 C187.123632,49.7859988 187.272723,49.4296957 187.272723,48.8927261 L187.272723,48.5229685 L187.290298,48.3726049 C187.295753,48.3539382 187.298177,48.3369079 187.301813,48.3217564 C187.304844,48.3066049 187.309692,48.2902412 187.314541,48.2746049 L188.090298,48.2746049 L188.061207,48.3340594 C188.041813,48.369817 188.029086,48.4526655 188.02242,48.5769685 C188.012723,48.6993321 188.009086,48.815817 188.009086,48.9235139 L188.009086,49.2641806 C188.009086,49.4992715 187.92545,49.742423 187.753935,49.9872109 C187.584238,50.2350897 187.314541,50.3877563 186.947874,50.4455745 C187.238783,50.4914533 187.466662,50.5660593 187.629692,50.6713927 C187.936359,50.8655139 188.090298,51.1728472 188.090298,51.5885442 L188.090298,51.5885442 Z" id="path36" fill="#231F20"></path>
                    </g>
                </g>
            </g>
        </g>
    </g>
</svg>