<?xml version="1.0" encoding="UTF-8"?>
<svg width="200px" height="200px" viewBox="0 0 200 200" version="1.1" xmlns="http://www.w3.org/2000/svg" xmlns:xlink="http://www.w3.org/1999/xlink">
    <!-- Generator: Sketch 54.1 (76490) - https://sketchapp.com -->
    <title>vanderbilt</title>
    <desc>Created with Sketch.</desc>
    <g id="vanderbilt" stroke="none" stroke-width="1" fill="none" fill-rule="evenodd">
        <g id="vanderbilt_BGD">
            <g id="vanderbilt" transform="translate(0.000000, 2.000000)">
                <g id="g10" transform="translate(99.999998, 98.365588) scale(-1, 1) rotate(-180.000000) translate(-99.999998, -98.365588) translate(0.000000, 0.516129)" fill-rule="nonzero">
                    <g id="g12">
                        <path d="M99.742148,194.604296 L95.2931159,182.325372 L74.1802132,124.054836 L12.9863868,124.071825 L0,124.075911 L10.4334621,116.147524 L58.5972028,79.5531163 L33.4804293,13.2770534 L28.4492466,0 L40.2301065,7.09006434 L99.4681696,42.7335473 L158.762577,7.14045143 L170.653544,0 L165.613329,13.3022577 L140.508169,79.5531163 L188.685372,116.158492 L199.106232,124.075911 L186.11892,124.071825 L124.925158,124.054836 L104.159137,182.325372 L99.742148,194.604296 Z M99.7337609,180.961931 L121.615481,119.564943 L186.11892,119.583438 L135.165588,80.8677399 L161.379351,11.6935481 L99.4765567,48.849031 L37.7251603,11.6935481 L63.9397833,80.8677399 L12.9863868,119.583438 L77.4873099,119.564943 L99.7337609,180.961931 L99.7337609,180.961931 Z" id="path14" fill="#E7D393"></path>
                        <path d="M174.85806,24.7941929 C175.899781,24.7941929 176.890963,24.5380639 177.844512,24.0212897 C178.793759,23.5004295 179.545587,22.7612898 180.091608,21.7909672 C180.633329,20.8249242 180.910533,19.8126662 180.910533,18.7584081 C180.910533,17.7083436 180.63763,16.7044727 180.104082,15.7510104 C179.570748,14.797548 178.823006,14.0541072 177.869673,13.5206663 C176.916125,12.9914405 175.908168,12.7184083 174.85806,12.7184083 C173.803867,12.7184083 172.804082,12.9914405 171.842146,13.5206663 C170.888813,14.0541072 170.141071,14.797548 169.607738,15.7510104 C169.074189,16.7044727 168.805372,17.7083436 168.805372,18.7584081 C168.805372,19.8126662 169.07849,20.8249242 169.624512,21.7909672 C170.166232,22.7612898 170.918275,23.5004295 171.867523,24.0212897 C172.825157,24.5380639 173.81634,24.7941929 174.85806,24.7941929 L174.85806,24.7941929 Z M174.85806,23.5845155 C174.022146,23.5845155 173.224082,23.3787091 172.472254,22.9627951 C171.707738,22.5554833 171.115695,21.9632253 170.674619,21.18615 C170.233544,20.4175049 170.019351,19.6068597 170.019351,18.7584081 C170.019351,17.9183436 170.229243,17.1203006 170.661931,16.3600426 C171.081931,15.595591 171.686877,15.0033545 172.442791,14.5749244 C173.215695,14.1465158 174.013759,13.9323007 174.85806,13.9323007 C175.69806,13.9323007 176.500426,14.1465158 177.264727,14.5749244 C178.020856,15.0033545 178.625587,15.595591 179.054189,16.3600426 C179.482576,17.1203006 179.692469,17.9183436 179.692469,18.7584081 C179.692469,19.6068597 179.478275,20.4175049 179.041501,21.18615 C178.600426,21.9632253 178.004082,22.5554833 177.239565,22.9627951 C176.475049,23.3787091 175.681286,23.5845155 174.85806,23.5845155 L174.85806,23.5845155 Z M172.140426,15.5787953 L172.140426,21.8918274 L173.434189,21.8918274 C174.639566,21.8918274 175.31591,21.8834403 175.462791,21.8750532 C175.891393,21.8415048 176.227307,21.7531177 176.462576,21.6230102 C176.701931,21.4927737 176.895264,21.2869672 177.054834,21.01815 C177.210103,20.7451178 177.294189,20.4427092 177.294189,20.1108812 C177.294189,19.6572683 177.147092,19.2708382 176.844727,18.9432038 C176.550748,18.6197845 176.139135,18.4181716 175.601501,18.3425802 C175.794619,18.2711608 175.941716,18.1871608 176.050963,18.1073544 C176.15591,18.0191608 176.298705,17.8553329 176.47935,17.6201286 C176.533974,17.5571178 176.693544,17.3009028 176.95806,16.8472684 L177.67634,15.5787953 L176.055049,15.5787953 L175.53849,16.6036555 C175.193974,17.2967092 174.908383,17.7293329 174.669028,17.9057415 C174.446447,18.0863651 174.144082,18.1787737 173.791178,18.1787737 L173.455049,18.1787737 L173.455049,15.5787953 L172.140426,15.5787953 Z M173.455049,19.1910318 L173.967523,19.1910318 C174.702576,19.1910318 175.160426,19.2162361 175.332684,19.2750318 C175.509028,19.3254404 175.647738,19.4262361 175.748383,19.5648597 C175.85763,19.7034619 175.908168,19.8630748 175.908168,20.0436769 C175.908168,20.2116984 175.85763,20.3713113 175.761071,20.5015049 C175.656125,20.6401285 175.513329,20.7367307 175.328383,20.7955264 C175.143652,20.8543436 174.690103,20.8795264 173.967523,20.8795264 L173.455049,20.8795264 L173.455049,19.1910318 L173.455049,19.1910318 Z" id="path16" fill="#E7D393"></path>
                        <polyline id="path18" fill="#231F20" points="186.11892 119.583438 121.615481 119.564943 99.7337609 180.961931 77.4873099 119.564943 12.9863868 119.583438 63.9397833 80.8677399 37.7251603 11.6935481 99.4765567 48.849031 161.379351 11.6935481 135.165588 80.8677399 186.11892 119.583438"></polyline>
                        <polyline id="path20" fill="#FFFFFF" points="125.215051 106.167739 120.754406 106.167739 105.221718 52.8058051 92.5604278 52.8058051 78.0610733 106.167739 73.4408584 106.167739 73.4408584 115.284728 94.2296751 115.284728 94.2296751 106.167739 89.1331161 106.167739 99.6447287 64.5748371 111.039137 106.167739 106.019782 106.167739 106.019782 115.284728 125.215051 115.284728 125.215051 106.167739"></polyline>
                    </g>
                </g>
            </g>
        </g>
    </g>
</svg>